M48
;Layer_Color=9474304
;FILE_FORMAT=2:5
INCH,LZ
;TYPE=PLATED
T01F00S00C0.00591
%
T01
X0005906Y0008661
X0004921Y0010236
Y0013386
X0005906Y0014961
X000689Y0016535
X0009843Y0016535
X0010827Y001811
X0009843Y0019685
X0010827Y002126
X0009843Y0022835
X0005906Y0022835
X0004921Y002126
X0010827Y0014961
X0009843Y0013386
X0010827Y0011811
X0016732Y000689
Y0003937
X0022638
Y000689
X0026596Y0008939
X0025591Y0024606
X0016732
X0459449Y0014173
X0461417
X0464173Y0011024
X0467717Y0011811
X046811Y0017323
X0774409Y0014173
X0776378
X0779134Y0011024
X0782677Y0011811
X0783071Y0017323
X101063Y0014173
X1012598
X1015354Y0011024
X1018898Y0011811
X1019291Y0017323
X116811Y0014173
X1170079
X1172835Y0011024
X1176378Y0011811
X1176772Y0017323
M30
