M48
;Layer_Color=9474304
;FILE_FORMAT=2:5
INCH,LZ
;TYPE=PLATED
T01F00S00C0.00591
;TYPE=NON_PLATED
T02F00S00C0.03937
%
T01
X0005906Y0008661
X0004921Y0010236
Y0013386
X0005906Y0014961
X000689Y0016535
X0009843Y0016535
X0010827Y001811
X0009843Y0019685
X0010827Y002126
X0009843Y0022835
X0005906Y0022835
X0004921Y002126
X0010827Y0014961
X0009843Y0013386
X0010827Y0011811
X0016732Y000689
X0022638
X0026596Y0008939
X0025591Y0024606
X0016732
X0262598Y0014173
X0264567
X0267323Y0011024
X0270866Y0011811
X027126Y0017323
X0577559Y0014173
X0579528
X0582283Y0011024
X0585827Y0011811
X0586221Y0017323
X081378Y0014173
X0815748
X0818504Y0011024
X0822047Y0011811
X0822441Y0017323
X097126Y0014173
X0973228
X0975984Y0011024
X0979528Y0011811
X0979921Y0017323
T02
X0251969Y0003937
X0271654
Y0027559
X0251969
X0566929
X0586614
Y0003937
X0566929
X080315
X0822835
Y0027559
X080315
X096063
X0980315
Y0003937
X096063
M30
