G04*
G04 #@! TF.GenerationSoftware,Altium Limited,Altium Designer,25.8.1 (18)*
G04*
G04 Layer_Color=8388736*
%FSLAX44Y44*%
%MOMM*%
G71*
G04*
G04 #@! TF.SameCoordinates,4054CFD1-7900-4029-97E8-FE7289E817F4*
G04*
G04*
G04 #@! TF.FilePolarity,Negative*
G04*
G01*
G75*
%ADD21R,0.5532X0.4532*%
%ADD22R,0.7532X0.7532*%
%ADD23R,0.8032X0.5032*%
%ADD24R,0.5032X0.8032*%
%ADD25C,0.7032*%
%ADD26R,0.4532X0.5532*%
%ADD27R,0.6782X0.4232*%
%ADD28R,0.8532X0.5232*%
%ADD29R,0.5032X0.6532*%
D21*
X1142500Y55500D02*
D03*
Y50000D02*
D03*
X1135000Y49750D02*
D03*
Y55250D02*
D03*
X1150000Y55500D02*
D03*
Y50000D02*
D03*
X1935000Y49750D02*
D03*
Y55250D02*
D03*
X1942500Y55500D02*
D03*
Y50000D02*
D03*
X1950000Y55500D02*
D03*
Y50000D02*
D03*
X2535000Y49750D02*
D03*
Y55250D02*
D03*
X2542500Y55500D02*
D03*
Y50000D02*
D03*
X2550000Y55500D02*
D03*
Y50000D02*
D03*
X2935000Y49750D02*
D03*
Y55250D02*
D03*
X2950000Y55500D02*
D03*
Y50000D02*
D03*
X2942500Y55500D02*
D03*
Y50000D02*
D03*
D22*
X1137750Y39750D02*
D03*
Y30250D02*
D03*
X1147250D02*
D03*
Y39750D02*
D03*
X1937750D02*
D03*
Y30250D02*
D03*
X1947250D02*
D03*
Y39750D02*
D03*
X2537750D02*
D03*
Y30250D02*
D03*
X2547250D02*
D03*
Y39750D02*
D03*
X2937750D02*
D03*
Y30250D02*
D03*
X2947250D02*
D03*
Y39750D02*
D03*
D23*
X1182500Y32500D02*
D03*
Y37500D02*
D03*
Y42500D02*
D03*
Y47500D02*
D03*
X1157500D02*
D03*
Y42500D02*
D03*
Y37500D02*
D03*
Y32500D02*
D03*
X1982500D02*
D03*
Y37500D02*
D03*
Y42500D02*
D03*
Y47500D02*
D03*
X1957500D02*
D03*
Y42500D02*
D03*
Y37500D02*
D03*
Y32500D02*
D03*
X2582500D02*
D03*
Y37500D02*
D03*
Y42500D02*
D03*
Y47500D02*
D03*
X2557500D02*
D03*
Y42500D02*
D03*
Y37500D02*
D03*
Y32500D02*
D03*
X2982500D02*
D03*
Y37500D02*
D03*
Y42500D02*
D03*
Y47500D02*
D03*
X2957500D02*
D03*
Y42500D02*
D03*
Y37500D02*
D03*
Y32500D02*
D03*
D24*
X1175000Y30000D02*
D03*
X1165000D02*
D03*
X1175000Y50000D02*
D03*
X1170000D02*
D03*
X1165000D02*
D03*
X1170000Y30000D02*
D03*
X1975000D02*
D03*
X1965000D02*
D03*
X1975000Y50000D02*
D03*
X1970000D02*
D03*
X1965000D02*
D03*
X1970000Y30000D02*
D03*
X2575000D02*
D03*
X2565000D02*
D03*
X2575000Y50000D02*
D03*
X2570000D02*
D03*
X2565000D02*
D03*
X2570000Y30000D02*
D03*
X2975000D02*
D03*
X2965000D02*
D03*
X2975000Y50000D02*
D03*
X2970000D02*
D03*
X2965000D02*
D03*
X2970000Y30000D02*
D03*
D25*
X2966500Y20000D02*
D03*
X2995000Y30000D02*
D03*
X2980000Y20000D02*
D03*
X2953500D02*
D03*
D26*
X52750Y10000D02*
D03*
X47250D02*
D03*
X52750Y17500D02*
D03*
X47250D02*
D03*
X52750Y62500D02*
D03*
X47250D02*
D03*
D27*
X7880Y42000D02*
D03*
X32120Y38000D02*
D03*
Y42000D02*
D03*
Y34000D02*
D03*
Y46000D02*
D03*
Y22000D02*
D03*
Y26000D02*
D03*
Y30000D02*
D03*
X7880Y58000D02*
D03*
Y54000D02*
D03*
Y50000D02*
D03*
Y46000D02*
D03*
Y38000D02*
D03*
Y34000D02*
D03*
Y30000D02*
D03*
Y26000D02*
D03*
Y22000D02*
D03*
X32120Y58000D02*
D03*
Y54000D02*
D03*
Y50000D02*
D03*
D28*
X30850Y12500D02*
D03*
Y67500D02*
D03*
X9150D02*
D03*
Y12500D02*
D03*
D29*
X62500Y54250D02*
D03*
Y25750D02*
D03*
X47500Y54250D02*
D03*
X52500D02*
D03*
X57500D02*
D03*
Y25750D02*
D03*
X52500D02*
D03*
X47500D02*
D03*
M02*
