G04*
G04 #@! TF.GenerationSoftware,Altium Limited,Altium Designer,26.3.0 (6)*
G04*
G04 Layer_Physical_Order=1*
G04 Layer_Color=255*
%FSLAX44Y44*%
%MOMM*%
G71*
G04*
G04 #@! TF.SameCoordinates,CDFA49D8-EC7B-4DF7-83E0-EED4B2677C46*
G04*
G04*
G04 #@! TF.FilePolarity,Positive*
G04*
G01*
G75*
%ADD10C,0.1000*%
%ADD13R,0.3500X0.2500*%
%ADD14R,0.5500X0.5500*%
%ADD15R,0.6000X0.3000*%
%ADD16R,0.3000X0.6000*%
%ADD17C,0.5000*%
%ADD18R,0.2500X0.3500*%
%ADD19R,0.4750X0.2200*%
%ADD20R,0.6500X0.3200*%
%ADD21R,0.3000X0.4500*%
%ADD31C,0.5000*%
%ADD32C,0.2000*%
%ADD33C,0.3500*%
G36*
X60000Y78193D02*
X62120Y77914D01*
X64096Y77095D01*
X65793Y75793D01*
X67095Y74097D01*
X67914Y72120D01*
X68193Y70000D01*
X68216D01*
Y65000D01*
X68216Y65000D01*
X68149D01*
X68550Y61954D01*
X68528Y61926D01*
X68091Y61705D01*
X67750Y62046D01*
Y63047D01*
X67331Y64058D01*
X66558Y64831D01*
X65547Y65250D01*
X64453D01*
X63442Y64831D01*
X62669Y64058D01*
X62250Y63047D01*
Y61953D01*
X62669Y60942D01*
X63442Y60169D01*
X64453Y59750D01*
X65454D01*
X74352Y50852D01*
X74352Y50852D01*
X75500Y50376D01*
X1115000Y50376D01*
X1124500Y50376D01*
X1125648Y50852D01*
X1131788Y56992D01*
X1132250Y56801D01*
Y56520D01*
X1133730D01*
Y57500D01*
X1132949D01*
X1132758Y57962D01*
X1133173Y58376D01*
X1140876D01*
Y57750D01*
X1139750D01*
Y53250D01*
X1145250D01*
Y57750D01*
X1144124D01*
Y58376D01*
X1148376D01*
Y57750D01*
X1147250D01*
Y53250D01*
X1152750D01*
Y53250D01*
X1153250Y53454D01*
X1155876Y50827D01*
Y50000D01*
X1153500D01*
Y45000D01*
Y35500D01*
X1153500Y35000D01*
X1153500Y34500D01*
Y30000D01*
X1161500D01*
Y34500D01*
X1161500Y35000D01*
X1161500Y35500D01*
Y40000D01*
Y50000D01*
X1159124D01*
Y51500D01*
X1158648Y52648D01*
X1154648Y56648D01*
X1153500Y57124D01*
X1152750D01*
Y57750D01*
X1151624D01*
Y58376D01*
X1173376D01*
Y54000D01*
X1171270D01*
Y50000D01*
Y46000D01*
X1177500D01*
Y54000D01*
X1176624D01*
Y58376D01*
X1189327D01*
X1196852Y50852D01*
X1198000Y50376D01*
X1924500D01*
X1925648Y50852D01*
X1931788Y56992D01*
X1932250Y56801D01*
Y56520D01*
X1933730D01*
Y57500D01*
X1932949D01*
X1932758Y57962D01*
X1933172Y58376D01*
X1940876D01*
Y57750D01*
X1939750D01*
Y53250D01*
X1945250D01*
Y57750D01*
X1944124D01*
Y58376D01*
X1948376D01*
Y57750D01*
X1947250D01*
Y53250D01*
X1952750D01*
Y53250D01*
X1953250Y53454D01*
X1955876Y50827D01*
Y50000D01*
X1953500D01*
Y45000D01*
Y35500D01*
X1953500Y35000D01*
X1953500Y34500D01*
Y30000D01*
X1961500D01*
Y34500D01*
X1961500Y35000D01*
X1961500Y35500D01*
Y40000D01*
Y50000D01*
X1959124D01*
Y51500D01*
X1958648Y52648D01*
X1954648Y56648D01*
X1953500Y57124D01*
X1952750D01*
Y57750D01*
X1951624D01*
Y58376D01*
X1973376D01*
Y54000D01*
X1971270D01*
Y50000D01*
Y46000D01*
X1977500D01*
Y54000D01*
X1976624D01*
Y58000D01*
X1976900Y58376D01*
X1989328D01*
X1996852Y50852D01*
X1996852Y50852D01*
X1998000Y50376D01*
X2524500Y50376D01*
X2525648Y50852D01*
X2531788Y56992D01*
X2532250Y56801D01*
Y56520D01*
X2533730D01*
Y57500D01*
X2532949D01*
X2532758Y57962D01*
X2533172Y58376D01*
X2540196D01*
X2540504Y57876D01*
X2540440Y57750D01*
X2539750D01*
Y53250D01*
X2545250D01*
Y57750D01*
X2544124D01*
Y58376D01*
X2547689D01*
X2548073Y57911D01*
X2548075Y57893D01*
X2547940Y57750D01*
X2547250D01*
Y53250D01*
X2552750D01*
Y53250D01*
X2553250Y53454D01*
X2555876Y50827D01*
Y50000D01*
X2553500D01*
Y45000D01*
Y35500D01*
X2553500Y35000D01*
X2553500Y34500D01*
Y30000D01*
X2561500D01*
Y34500D01*
X2561500Y35000D01*
X2561500Y35500D01*
Y40000D01*
Y50000D01*
X2559124D01*
Y51500D01*
X2558648Y52648D01*
X2554648Y56648D01*
X2553500Y57124D01*
X2552750D01*
Y57750D01*
X2551624D01*
Y58376D01*
X2573376D01*
Y54000D01*
X2571270D01*
Y50000D01*
Y46000D01*
X2577500D01*
Y54000D01*
X2576624D01*
Y58376D01*
X2589327D01*
X2596852Y50852D01*
X2598000Y50376D01*
X2610000D01*
X2610000Y50376D01*
X2924500Y50376D01*
X2925648Y50852D01*
X2931788Y56992D01*
X2932250Y56801D01*
Y56520D01*
X2933730D01*
Y57500D01*
X2932950D01*
X2932758Y57962D01*
X2933173Y58376D01*
X2940876D01*
Y57750D01*
X2939750D01*
Y53250D01*
X2945250D01*
Y57750D01*
X2944124D01*
Y58376D01*
X2948376D01*
Y57750D01*
X2947250D01*
Y53250D01*
X2952750D01*
Y53250D01*
X2953250Y53454D01*
X2955876Y50827D01*
Y50000D01*
X2953500D01*
Y45000D01*
Y35500D01*
X2953500Y35000D01*
X2953500Y34500D01*
Y30000D01*
X2961500D01*
Y34500D01*
X2961500Y35000D01*
X2961500Y35500D01*
Y40000D01*
Y50000D01*
X2959124D01*
Y51500D01*
X2958648Y52648D01*
X2954648Y56648D01*
X2953500Y57124D01*
X2952750D01*
Y57750D01*
X2951624D01*
Y58376D01*
X2968328D01*
X2972242Y54462D01*
X2972050Y54000D01*
X2971270D01*
Y50000D01*
Y46000D01*
X2977500D01*
Y54000D01*
X2976624D01*
X2976148Y55148D01*
X2971758Y59538D01*
X2971949Y60000D01*
X2998216D01*
Y32441D01*
X2997716Y32234D01*
X2996983Y32967D01*
X2995696Y33500D01*
X2994304D01*
X2993017Y32967D01*
X2992033Y31983D01*
X2991884Y31624D01*
X2990266D01*
X2989558Y32331D01*
X2988547Y32750D01*
X2987546D01*
X2986648Y33648D01*
X2986500Y33709D01*
X2986500Y35000D01*
X2986500Y35500D01*
Y41904D01*
X2987000Y42111D01*
X2987442Y41669D01*
X2988453Y41250D01*
X2989547D01*
X2990558Y41669D01*
X2991331Y42442D01*
X2991750Y43453D01*
Y44547D01*
X2991331Y45558D01*
X2990558Y46331D01*
X2989547Y46750D01*
X2988546D01*
X2986648Y48648D01*
X2986500Y48709D01*
Y50000D01*
X2978500D01*
Y45000D01*
Y35500D01*
X2978500Y35000D01*
X2978500Y34500D01*
Y31449D01*
X2978000Y31209D01*
X2977500Y31416D01*
Y34000D01*
X2974542D01*
X2974355Y34500D01*
X2974750Y35453D01*
Y36547D01*
X2974331Y37558D01*
X2973558Y38331D01*
X2972547Y38750D01*
X2971453D01*
X2970442Y38331D01*
X2969813Y37702D01*
X2969500Y37608D01*
X2969187Y37702D01*
X2968558Y38331D01*
X2967547Y38750D01*
X2966453D01*
X2965442Y38331D01*
X2964669Y37558D01*
X2964250Y36547D01*
Y35546D01*
X2963852Y35148D01*
X2963376Y34000D01*
X2962500D01*
Y26000D01*
X2968376D01*
Y24172D01*
X2967555Y23351D01*
X2967196Y23500D01*
X2965804D01*
X2964518Y22967D01*
X2963533Y21983D01*
X2963000Y20696D01*
Y20000D01*
X2957000D01*
Y20696D01*
X2956467Y21983D01*
X2955482Y22967D01*
X2954770Y23262D01*
Y20000D01*
X2952230D01*
Y23262D01*
X2951517Y22967D01*
X2950533Y21983D01*
X2950000Y20696D01*
Y20000D01*
X2926808D01*
X2926576Y21762D01*
X2925896Y23404D01*
X2924814Y24814D01*
X2923404Y25896D01*
X2923296Y25941D01*
X2923393Y26431D01*
X2937500D01*
X2937845Y26500D01*
X2941500D01*
Y31704D01*
X2943038Y33242D01*
X2943500Y33051D01*
Y26500D01*
X2951000D01*
Y34000D01*
X2944160D01*
X2943882Y34416D01*
X2944124Y35000D01*
Y36000D01*
X2945980D01*
Y39750D01*
Y43500D01*
X2944124D01*
Y44000D01*
X2943648Y45148D01*
X2942148Y46648D01*
X2941000Y47124D01*
X2938173D01*
X2937750Y47546D01*
Y52000D01*
X2932250D01*
Y47500D01*
X2933583D01*
X2933852Y46852D01*
X2936352Y44352D01*
X2937202Y44000D01*
X2937102Y43500D01*
X2934000D01*
Y38296D01*
X2931328Y35624D01*
X2920000D01*
X2610000Y35624D01*
X2597333D01*
X2596185Y35148D01*
X2591212Y30175D01*
X2590750Y30367D01*
Y30547D01*
X2590331Y31558D01*
X2589558Y32331D01*
X2588547Y32750D01*
X2587546D01*
X2586648Y33648D01*
X2586500Y33709D01*
X2586500Y35000D01*
X2586500Y35500D01*
Y41904D01*
X2587000Y42111D01*
X2587442Y41669D01*
X2588453Y41250D01*
X2589547D01*
X2590558Y41669D01*
X2591331Y42442D01*
X2591750Y43453D01*
Y44547D01*
X2591331Y45558D01*
X2590558Y46331D01*
X2589547Y46750D01*
X2588546D01*
X2586648Y48648D01*
X2586500Y48709D01*
Y50000D01*
X2578500D01*
Y45000D01*
Y35500D01*
X2578500Y35000D01*
X2578500Y34500D01*
Y31449D01*
X2578000Y31209D01*
X2577500Y31416D01*
Y34000D01*
X2574542D01*
X2574355Y34500D01*
X2574750Y35453D01*
Y36547D01*
X2574331Y37558D01*
X2573558Y38331D01*
X2572547Y38750D01*
X2571453D01*
X2570442Y38331D01*
X2569813Y37702D01*
X2569500Y37608D01*
X2569187Y37702D01*
X2568558Y38331D01*
X2567547Y38750D01*
X2566453D01*
X2565442Y38331D01*
X2564669Y37558D01*
X2564250Y36547D01*
Y35546D01*
X2563852Y35148D01*
X2563376Y34000D01*
X2562500D01*
Y26000D01*
X2562202Y25624D01*
X2554173D01*
X2551000Y28796D01*
Y34000D01*
X2544159D01*
X2543882Y34416D01*
X2544124Y35000D01*
Y36000D01*
X2545980D01*
Y39750D01*
Y43500D01*
X2544124D01*
Y44000D01*
X2543648Y45148D01*
X2542148Y46648D01*
X2541000Y47124D01*
X2538172D01*
X2537750Y47546D01*
Y52000D01*
X2532250D01*
Y47500D01*
X2533584D01*
X2533852Y46852D01*
X2536352Y44352D01*
X2537202Y44000D01*
X2537102Y43500D01*
X2534000D01*
Y38296D01*
X2531328Y35624D01*
X2520000D01*
X2010000Y35624D01*
X1997333D01*
X1996185Y35148D01*
X1991212Y30175D01*
X1990750Y30367D01*
Y30547D01*
X1990331Y31558D01*
X1989558Y32331D01*
X1988547Y32750D01*
X1987546D01*
X1986648Y33648D01*
X1986500Y33709D01*
X1986500Y35000D01*
X1986500Y35500D01*
Y41904D01*
X1987000Y42111D01*
X1987442Y41669D01*
X1988453Y41250D01*
X1989547D01*
X1990558Y41669D01*
X1991331Y42442D01*
X1991750Y43453D01*
Y44547D01*
X1991331Y45558D01*
X1990558Y46331D01*
X1989547Y46750D01*
X1988546D01*
X1986648Y48648D01*
X1986500Y48709D01*
Y50000D01*
X1978500D01*
Y45000D01*
Y35500D01*
X1978500Y35000D01*
X1978500Y34500D01*
Y31449D01*
X1978000Y31209D01*
X1977500Y31416D01*
Y34000D01*
X1974542D01*
X1974355Y34500D01*
X1974750Y35453D01*
Y36547D01*
X1974331Y37558D01*
X1973558Y38331D01*
X1972547Y38750D01*
X1971453D01*
X1970442Y38331D01*
X1969813Y37702D01*
X1969500Y37608D01*
X1969187Y37702D01*
X1968558Y38331D01*
X1967547Y38750D01*
X1966453D01*
X1965442Y38331D01*
X1964669Y37558D01*
X1964250Y36547D01*
Y35546D01*
X1963852Y35148D01*
X1963376Y34000D01*
X1962500D01*
Y26000D01*
X1962202Y25624D01*
X1954173D01*
X1951000Y28796D01*
Y34000D01*
X1944159D01*
X1943882Y34416D01*
X1944124Y35000D01*
Y36000D01*
X1945980D01*
Y39750D01*
Y43500D01*
X1944124D01*
Y44000D01*
X1943648Y45148D01*
X1942148Y46648D01*
X1941000Y47124D01*
X1938172D01*
X1937750Y47546D01*
Y52000D01*
X1932250D01*
Y47500D01*
X1933584D01*
X1933852Y46852D01*
X1936352Y44352D01*
X1937202Y44000D01*
X1937102Y43500D01*
X1934000D01*
Y38296D01*
X1931328Y35624D01*
X1920000D01*
X1210000Y35624D01*
X1197333D01*
X1196185Y35148D01*
X1191212Y30175D01*
X1190750Y30367D01*
Y30547D01*
X1190331Y31558D01*
X1189558Y32331D01*
X1188547Y32750D01*
X1187546D01*
X1186648Y33648D01*
X1186500Y33709D01*
X1186500Y35000D01*
X1186500Y35500D01*
Y41904D01*
X1187000Y42111D01*
X1187442Y41669D01*
X1188453Y41250D01*
X1189547D01*
X1190558Y41669D01*
X1191331Y42442D01*
X1191750Y43453D01*
Y44547D01*
X1191331Y45558D01*
X1190558Y46331D01*
X1189547Y46750D01*
X1188546D01*
X1186648Y48648D01*
X1186500Y48709D01*
Y50000D01*
X1178500D01*
Y45000D01*
Y35500D01*
X1178500Y35000D01*
X1178500Y34500D01*
Y31449D01*
X1178000Y31209D01*
X1177500Y31416D01*
Y34000D01*
X1174542D01*
X1174355Y34500D01*
X1174750Y35453D01*
Y36547D01*
X1174331Y37558D01*
X1173558Y38331D01*
X1172547Y38750D01*
X1171453D01*
X1170442Y38331D01*
X1169813Y37702D01*
X1169500Y37608D01*
X1169187Y37702D01*
X1168558Y38331D01*
X1167547Y38750D01*
X1166453D01*
X1165442Y38331D01*
X1164669Y37558D01*
X1164250Y36547D01*
Y35546D01*
X1163852Y35148D01*
X1163376Y34000D01*
X1162500D01*
Y26000D01*
X1162202Y25624D01*
X1154173D01*
X1151000Y28796D01*
Y34000D01*
X1144159D01*
X1143882Y34416D01*
X1144124Y35000D01*
Y36000D01*
X1145980D01*
Y39750D01*
Y43500D01*
X1144124D01*
Y44000D01*
X1143648Y45148D01*
X1142148Y46648D01*
X1141000Y47124D01*
X1138173D01*
X1137750Y47546D01*
Y52000D01*
X1132250D01*
Y47500D01*
X1133584D01*
X1133852Y46852D01*
X1136352Y44352D01*
X1137202Y44000D01*
X1137102Y43500D01*
X1134000D01*
Y38296D01*
X1131328Y35624D01*
X1120000D01*
X70000Y35624D01*
X70000Y35624D01*
X47573D01*
X47382Y36086D01*
X59672Y48376D01*
X61000D01*
X62148Y48852D01*
X63648Y50352D01*
X63917Y51000D01*
X65000D01*
Y57500D01*
X60500D01*
X60000Y57500D01*
Y57500D01*
X60000D01*
Y57500D01*
X53770D01*
Y54250D01*
Y51000D01*
X54051D01*
X54242Y50538D01*
X35995Y32291D01*
X35495Y32493D01*
Y35900D01*
Y47900D01*
Y60100D01*
X28745D01*
Y59624D01*
X27266D01*
X26558Y60331D01*
X25547Y60750D01*
X24453D01*
X23442Y60331D01*
X22669Y59558D01*
X22250Y58547D01*
Y57453D01*
X22669Y56442D01*
X23442Y55669D01*
X24453Y55250D01*
X24591D01*
X24869Y54834D01*
X24750Y54547D01*
Y53453D01*
X24869Y53166D01*
X24591Y52750D01*
X24453D01*
X23442Y52331D01*
X22669Y51558D01*
X22250Y50547D01*
Y49453D01*
X22669Y48442D01*
X23442Y47669D01*
X24453Y47250D01*
X24591D01*
X24869Y46834D01*
X24750Y46547D01*
Y45453D01*
X24869Y45166D01*
X24591Y44750D01*
X24453D01*
X23442Y44331D01*
X22669Y43558D01*
X22250Y42547D01*
Y41453D01*
X22669Y40442D01*
X23442Y39669D01*
X24453Y39250D01*
X24591D01*
X24869Y38834D01*
X24750Y38547D01*
Y37453D01*
X24869Y37166D01*
X24591Y36750D01*
X24453D01*
X23442Y36331D01*
X22669Y35558D01*
X22250Y34547D01*
Y33453D01*
X22669Y32442D01*
X23442Y31669D01*
X24453Y31250D01*
X24591D01*
X24869Y30834D01*
X24750Y30547D01*
Y29453D01*
X25169Y28442D01*
X25942Y27669D01*
X26953Y27250D01*
X28047D01*
X28329Y27367D01*
X28745Y27089D01*
Y21258D01*
X28245Y21051D01*
X18148Y31148D01*
X17000Y31624D01*
X14720D01*
X14513Y32124D01*
X14831Y32442D01*
X15250Y33453D01*
Y34547D01*
X15131Y34834D01*
X15409Y35250D01*
X15547D01*
X16558Y35669D01*
X17331Y36442D01*
X17750Y37453D01*
Y38547D01*
X17631Y38834D01*
X17909Y39250D01*
X18047D01*
X19058Y39669D01*
X19831Y40442D01*
X20250Y41453D01*
Y42547D01*
X19831Y43558D01*
X19058Y44331D01*
X18047Y44750D01*
X16953D01*
X15942Y44331D01*
X15235Y43624D01*
X11255D01*
Y44730D01*
X7880D01*
X4505D01*
Y43900D01*
Y31900D01*
Y19900D01*
X11255D01*
Y19961D01*
X13150D01*
X13442Y19669D01*
X14453Y19250D01*
X15547D01*
X16558Y19669D01*
X17331Y20442D01*
X17750Y21453D01*
Y22547D01*
X17331Y23558D01*
X16558Y24331D01*
X15547Y24750D01*
X15409D01*
X15131Y25166D01*
X15250Y25453D01*
Y26547D01*
X14831Y27558D01*
X14513Y27876D01*
X14720Y28376D01*
X16328D01*
X26852Y17852D01*
X28000Y17376D01*
X37000D01*
X38148Y17852D01*
X42148Y21852D01*
X42624Y23000D01*
Y28328D01*
X46673Y32376D01*
X70000D01*
X70000Y32376D01*
X71524D01*
X71715Y31914D01*
X65500Y25699D01*
X65000Y25906D01*
Y29000D01*
X63770D01*
Y25750D01*
Y22500D01*
X64025D01*
X64256Y21340D01*
X65029Y20182D01*
X66187Y19408D01*
X67553Y19137D01*
X68535Y19332D01*
X68895Y18894D01*
X68552Y18067D01*
X68149Y15000D01*
X68216D01*
Y10000D01*
X68216Y10000D01*
X68193D01*
X67914Y7879D01*
X67095Y5903D01*
X65793Y4207D01*
X64096Y2905D01*
X62120Y2086D01*
X60000Y1807D01*
Y1784D01*
X60000Y1784D01*
X10023D01*
Y1807D01*
X7896Y2087D01*
X5915Y2907D01*
X4213Y4213D01*
X2907Y5915D01*
X2087Y7896D01*
X1807Y10023D01*
X1784D01*
Y69977D01*
X1807D01*
X2087Y72104D01*
X2907Y74085D01*
X4213Y75787D01*
X5915Y77093D01*
X7896Y77913D01*
X10023Y78193D01*
Y78216D01*
X10023Y78216D01*
X60000D01*
Y78193D01*
D02*
G37*
%LPC*%
G36*
X35100Y70100D02*
X26600D01*
Y64900D01*
X35100D01*
Y70100D01*
D02*
G37*
G36*
X13400D02*
X4900D01*
Y64900D01*
X13400D01*
Y70100D01*
D02*
G37*
G36*
X49500Y65250D02*
X45000D01*
Y64596D01*
X44500Y64389D01*
X44058Y64831D01*
X43047Y65250D01*
X41953D01*
X40942Y64831D01*
X40169Y64058D01*
X39750Y63047D01*
Y61953D01*
X40169Y60942D01*
X40942Y60169D01*
X41953Y59750D01*
X43047D01*
X44058Y60169D01*
X44500Y60611D01*
X45000Y60404D01*
Y59750D01*
X45876D01*
Y57500D01*
X45000D01*
Y51000D01*
X51230D01*
Y54250D01*
Y57500D01*
X49124D01*
Y59750D01*
X49500D01*
Y65250D01*
D02*
G37*
G36*
X55000D02*
X54020D01*
Y63770D01*
X55000D01*
Y65250D01*
D02*
G37*
G36*
X51480D02*
X50500D01*
Y63770D01*
X51480D01*
Y65250D01*
D02*
G37*
G36*
X15547Y60750D02*
X14453D01*
X13442Y60331D01*
X13150Y60039D01*
X11255D01*
Y60100D01*
X4505D01*
Y55900D01*
Y51270D01*
X7880D01*
X11526D01*
X11671Y51367D01*
X11953Y51250D01*
X13047D01*
X14058Y51669D01*
X14831Y52442D01*
X15250Y53453D01*
Y54547D01*
X15131Y54834D01*
X15409Y55250D01*
X15547D01*
X16558Y55669D01*
X17331Y56442D01*
X17750Y57453D01*
Y58547D01*
X17331Y59558D01*
X16558Y60331D01*
X15547Y60750D01*
D02*
G37*
G36*
X55000Y61230D02*
X54020D01*
Y59750D01*
X55000D01*
Y61230D01*
D02*
G37*
G36*
X51480D02*
X50500D01*
Y59750D01*
X51480D01*
Y61230D01*
D02*
G37*
G36*
X2937750Y57500D02*
X2936270D01*
Y56520D01*
X2937750D01*
Y57500D01*
D02*
G37*
G36*
X2537750D02*
X2536270D01*
Y56520D01*
X2537750D01*
Y57500D01*
D02*
G37*
G36*
X1937750D02*
X1936270D01*
Y56520D01*
X1937750D01*
Y57500D01*
D02*
G37*
G36*
X1137750D02*
X1136270D01*
Y56520D01*
X1137750D01*
Y57500D01*
D02*
G37*
G36*
X2937750Y53980D02*
X2936270D01*
Y53000D01*
X2937750D01*
Y53980D01*
D02*
G37*
G36*
X2933730D02*
X2932250D01*
Y53000D01*
X2933730D01*
Y53980D01*
D02*
G37*
G36*
X2537750D02*
X2536270D01*
Y53000D01*
X2537750D01*
Y53980D01*
D02*
G37*
G36*
X2533730D02*
X2532250D01*
Y53000D01*
X2533730D01*
Y53980D01*
D02*
G37*
G36*
X1937750Y53980D02*
X1936270D01*
Y53000D01*
X1937750D01*
Y53980D01*
D02*
G37*
G36*
X1933730D02*
X1932250D01*
Y53000D01*
X1933730D01*
Y53980D01*
D02*
G37*
G36*
X1137750Y53980D02*
X1136270D01*
Y53000D01*
X1137750D01*
Y53980D01*
D02*
G37*
G36*
X1133730D02*
X1132250D01*
Y53000D01*
X1133730D01*
Y53980D01*
D02*
G37*
G36*
X1945250Y52250D02*
X1943770D01*
Y51270D01*
X1945250D01*
Y52250D01*
D02*
G37*
G36*
X1941230D02*
X1939750D01*
Y51270D01*
X1941230D01*
Y52250D01*
D02*
G37*
G36*
X2945250D02*
X2943770D01*
Y51270D01*
X2945250D01*
Y52250D01*
D02*
G37*
G36*
X2545250D02*
X2543770D01*
Y51270D01*
X2545250D01*
Y52250D01*
D02*
G37*
G36*
X2941230D02*
X2939750D01*
Y51270D01*
X2941230D01*
Y52250D01*
D02*
G37*
G36*
X2541230D02*
X2539750D01*
Y51270D01*
X2541230D01*
Y52250D01*
D02*
G37*
G36*
X2963730Y54000D02*
X2962500D01*
Y51270D01*
X2963730D01*
Y54000D01*
D02*
G37*
G36*
X2563730D02*
X2562500D01*
Y51270D01*
X2563730D01*
Y54000D01*
D02*
G37*
G36*
X1963730D02*
X1962500D01*
Y51270D01*
X1963730D01*
Y54000D01*
D02*
G37*
G36*
X1163730D02*
X1162500D01*
Y51270D01*
X1163730D01*
Y54000D01*
D02*
G37*
G36*
X1152750Y52250D02*
X1151270D01*
Y51270D01*
X1152750D01*
Y52250D01*
D02*
G37*
G36*
X1145250D02*
X1143770D01*
Y51270D01*
X1145250D01*
Y52250D01*
D02*
G37*
G36*
X1148730D02*
X1147250D01*
Y51270D01*
X1148730D01*
Y52250D01*
D02*
G37*
G36*
X1141230D02*
X1139750D01*
Y51270D01*
X1141230D01*
Y52250D01*
D02*
G37*
G36*
X1952750D02*
X1951270D01*
Y51270D01*
X1952750D01*
Y52250D01*
D02*
G37*
G36*
X1948730D02*
X1947250D01*
Y51270D01*
X1948730D01*
Y52250D01*
D02*
G37*
G36*
X2952750D02*
X2951270D01*
Y51270D01*
X2952750D01*
Y52250D01*
D02*
G37*
G36*
X2552750D02*
X2551270D01*
Y51270D01*
X2552750D01*
Y52250D01*
D02*
G37*
G36*
X2948730D02*
X2947250D01*
Y51270D01*
X2948730D01*
Y52250D01*
D02*
G37*
G36*
X2548730D02*
X2547250D01*
Y51270D01*
X2548730D01*
Y52250D01*
D02*
G37*
G36*
X2952750Y48730D02*
X2951270D01*
Y47750D01*
X2952750D01*
Y48730D01*
D02*
G37*
G36*
X2948730D02*
X2947250D01*
Y47750D01*
X2948730D01*
Y48730D01*
D02*
G37*
G36*
X2945250Y48730D02*
X2943770D01*
Y47750D01*
X2945250D01*
Y48730D01*
D02*
G37*
G36*
X2941230D02*
X2939750D01*
Y47750D01*
X2941230D01*
Y48730D01*
D02*
G37*
G36*
X2552750Y48730D02*
X2551270D01*
Y47750D01*
X2552750D01*
Y48730D01*
D02*
G37*
G36*
X2548730D02*
X2547250D01*
Y47750D01*
X2548730D01*
Y48730D01*
D02*
G37*
G36*
X2545250Y48730D02*
X2543770D01*
Y47750D01*
X2545250D01*
Y48730D01*
D02*
G37*
G36*
X2541230D02*
X2539750D01*
Y47750D01*
X2541230D01*
Y48730D01*
D02*
G37*
G36*
X1952750Y48730D02*
X1951270D01*
Y47750D01*
X1952750D01*
Y48730D01*
D02*
G37*
G36*
X1948730D02*
X1947250D01*
Y47750D01*
X1948730D01*
Y48730D01*
D02*
G37*
G36*
X1945250Y48730D02*
X1943770D01*
Y47750D01*
X1945250D01*
Y48730D01*
D02*
G37*
G36*
X1941230D02*
X1939750D01*
Y47750D01*
X1941230D01*
Y48730D01*
D02*
G37*
G36*
X1152750Y48730D02*
X1151270D01*
Y47750D01*
X1152750D01*
Y48730D01*
D02*
G37*
G36*
X1148730D02*
X1147250D01*
Y47750D01*
X1148730D01*
Y48730D01*
D02*
G37*
G36*
X1145250D02*
X1143770D01*
Y47750D01*
X1145250D01*
Y48730D01*
D02*
G37*
G36*
X1141230D02*
X1139750D01*
Y47750D01*
X1141230D01*
Y48730D01*
D02*
G37*
G36*
X11255D02*
X7880D01*
X4505D01*
Y47270D01*
X7880D01*
X11255D01*
Y48730D01*
D02*
G37*
G36*
X2968730Y54000D02*
X2966270D01*
Y50000D01*
Y46000D01*
X2968730D01*
Y50000D01*
Y54000D01*
D02*
G37*
G36*
X2963730Y48730D02*
X2962500D01*
Y46000D01*
X2963730D01*
Y48730D01*
D02*
G37*
G36*
X2568730Y54000D02*
X2566270D01*
Y50000D01*
Y46000D01*
X2568730D01*
Y50000D01*
Y54000D01*
D02*
G37*
G36*
X2563730Y48730D02*
X2562500D01*
Y46000D01*
X2563730D01*
Y48730D01*
D02*
G37*
G36*
X1968730Y54000D02*
X1966270D01*
Y50000D01*
Y46000D01*
X1968730D01*
Y50000D01*
Y54000D01*
D02*
G37*
G36*
X1963730Y48730D02*
X1962500D01*
Y46000D01*
X1963730D01*
Y48730D01*
D02*
G37*
G36*
X1168730Y54000D02*
X1166270D01*
Y50000D01*
Y46000D01*
X1168730D01*
Y50000D01*
Y54000D01*
D02*
G37*
G36*
X1163730Y48730D02*
X1162500D01*
Y46000D01*
X1163730D01*
Y48730D01*
D02*
G37*
G36*
X1151000Y43500D02*
X1148520D01*
Y41020D01*
X1151000D01*
Y43500D01*
D02*
G37*
G36*
X2951000D02*
X2948520D01*
Y41020D01*
X2951000D01*
Y43500D01*
D02*
G37*
G36*
X2551000D02*
X2548520D01*
Y41020D01*
X2551000D01*
Y43500D01*
D02*
G37*
G36*
X1951000D02*
X1948520D01*
Y41020D01*
X1951000D01*
Y43500D01*
D02*
G37*
G36*
X2951000Y38480D02*
X2948520D01*
Y36000D01*
X2951000D01*
Y38480D01*
D02*
G37*
G36*
X2551000D02*
X2548520D01*
Y36000D01*
X2551000D01*
Y38480D01*
D02*
G37*
G36*
X1951000Y38480D02*
X1948520D01*
Y36000D01*
X1951000D01*
Y38480D01*
D02*
G37*
G36*
X1151000Y38480D02*
X1148520D01*
Y36000D01*
X1151000D01*
Y38480D01*
D02*
G37*
G36*
X46230Y29000D02*
X45000D01*
Y27020D01*
X46230D01*
Y29000D01*
D02*
G37*
G36*
Y24480D02*
X45000D01*
Y22500D01*
X46230D01*
Y24480D01*
D02*
G37*
G36*
X51230Y29000D02*
X48770D01*
Y25750D01*
Y22500D01*
X51230D01*
Y25750D01*
Y29000D01*
D02*
G37*
G36*
X56230D02*
X53770D01*
Y25750D01*
Y22500D01*
X56230D01*
Y25750D01*
Y29000D01*
D02*
G37*
G36*
X60000Y29000D02*
X59500Y29000D01*
X58770D01*
Y25750D01*
Y22500D01*
X59500D01*
X60000Y22500D01*
X60500Y22500D01*
X61230D01*
Y25750D01*
Y29000D01*
X60500D01*
X60000Y29000D01*
D02*
G37*
G36*
X58047Y20250D02*
X56953D01*
X55942Y19831D01*
X55500Y19389D01*
X55000Y19596D01*
Y20250D01*
X50500D01*
Y14750D01*
X55000D01*
Y15404D01*
X55500Y15611D01*
X55942Y15169D01*
X56953Y14750D01*
X58047D01*
X59058Y15169D01*
X59831Y15942D01*
X60250Y16953D01*
Y18047D01*
X59831Y19058D01*
X59058Y19831D01*
X58047Y20250D01*
D02*
G37*
G36*
X49500D02*
X45000D01*
Y19596D01*
X44500Y19389D01*
X44058Y19831D01*
X43047Y20250D01*
X41953D01*
X40942Y19831D01*
X40169Y19058D01*
X39750Y18047D01*
Y16953D01*
X40169Y15942D01*
X40942Y15169D01*
X41953Y14750D01*
X43047D01*
X44058Y15169D01*
X44500Y15611D01*
X45000Y15404D01*
Y14750D01*
X49500D01*
Y20250D01*
D02*
G37*
G36*
X58047Y12750D02*
X56953D01*
X55942Y12331D01*
X55500Y11889D01*
X55000Y12096D01*
Y12750D01*
X50500D01*
Y7250D01*
X55000D01*
Y7904D01*
X55500Y8111D01*
X55942Y7669D01*
X56953Y7250D01*
X58047D01*
X59058Y7669D01*
X59831Y8442D01*
X60250Y9453D01*
Y10547D01*
X59831Y11558D01*
X59058Y12331D01*
X58047Y12750D01*
D02*
G37*
G36*
X49500D02*
X45000D01*
Y12096D01*
X44500Y11889D01*
X44058Y12331D01*
X43047Y12750D01*
X41953D01*
X40942Y12331D01*
X40169Y11558D01*
X39750Y10547D01*
Y9453D01*
X40169Y8442D01*
X40942Y7669D01*
X41953Y7250D01*
X43047D01*
X44058Y7669D01*
X44500Y8111D01*
X45000Y7904D01*
Y7250D01*
X49500D01*
Y12750D01*
D02*
G37*
G36*
X35100Y15100D02*
X26600D01*
Y9900D01*
X35100D01*
Y15100D01*
D02*
G37*
G36*
X13400D02*
X4900D01*
Y9900D01*
X13400D01*
Y15100D01*
D02*
G37*
%LPD*%
D10*
X2924500Y52000D02*
X2932500Y60000D01*
X2610000Y52000D02*
X2924500Y52000D01*
X2932500Y60000D02*
X2942500D01*
X2550000Y55500D02*
X2553500D01*
X2532500Y60000D02*
X2542500D01*
X1998000Y52000D02*
X2524500Y52000D01*
X2532500Y60000D01*
X1932500D02*
X1942500D01*
X1924500Y52000D02*
X1932500Y60000D01*
X1198000Y52000D02*
X1924500D01*
X75500Y52000D02*
X1115000Y52000D01*
X1124500Y52000D01*
X1132500Y60000D02*
X1142500D01*
X1124500Y52000D02*
X1132500Y60000D01*
X1135000Y48000D02*
X1137500Y45500D01*
X1142500Y35000D02*
Y44000D01*
X1141000Y45500D02*
X1142500Y44000D01*
X1135000Y48000D02*
Y49750D01*
X1137500Y45500D02*
X1141000D01*
X1137500Y30000D02*
X1142500Y35000D01*
X1153500Y55500D02*
X1157500Y51500D01*
Y47500D02*
Y51500D01*
X1150000Y55500D02*
X1153500D01*
X1935000Y48000D02*
X1937500Y45500D01*
X1942500Y35000D02*
Y44000D01*
X1941000Y45500D02*
X1942500Y44000D01*
X1935000Y48000D02*
Y49750D01*
X1937500Y45500D02*
X1941000D01*
X1937500Y30000D02*
X1942500Y35000D01*
X1953500Y55500D02*
X1957500Y51500D01*
Y47500D02*
Y51500D01*
X1950000Y55500D02*
X1953500D01*
X2535000Y48000D02*
X2537500Y45500D01*
X2542500Y35000D02*
Y44000D01*
X2541000Y45500D02*
X2542500Y44000D01*
X2535000Y48000D02*
Y49750D01*
X2537500Y45500D02*
X2541000D01*
X2537500Y30000D02*
X2542500Y35000D01*
X2553500Y55500D02*
X2557500Y51500D01*
Y47500D02*
Y51500D01*
X2935000Y48000D02*
X2937500Y45500D01*
X2942500Y35000D02*
Y44000D01*
X2941000Y45500D02*
X2942500Y44000D01*
X2935000Y48000D02*
Y49750D01*
X2937500Y45500D02*
X2941000D01*
X2937500Y30000D02*
X2942500Y35000D01*
X2953500Y55500D02*
X2957500Y51500D01*
Y47500D02*
Y51500D01*
X2950000Y55500D02*
X2953500D01*
X2550000Y60000D02*
X2590000D01*
X1975000Y50000D02*
Y60000D01*
X1950000Y60000D02*
X1990000D01*
X42500Y17500D02*
X47250D01*
X41000Y23000D02*
Y29000D01*
X37000Y19000D02*
X41000Y23000D01*
X28000Y19000D02*
X37000D01*
X39000Y25000D02*
Y30000D01*
X36000Y22000D02*
X39000Y25000D01*
X32120Y22000D02*
X36000D01*
X37000Y27000D02*
Y31000D01*
X36000Y26000D02*
X37000Y27000D01*
X32120Y26000D02*
X36000D01*
X17000Y30000D02*
X28000Y19000D01*
X1197333Y34000D02*
X1210000D01*
X1187333Y24000D02*
X1197333Y34000D01*
X1142500Y55500D02*
Y60000D01*
X1150000D02*
X1175000D01*
X1175000Y60000D02*
X1175000Y60000D01*
X1150000Y55500D02*
Y60000D01*
X1142500D02*
X1150000D01*
X1175000D02*
X1190000D01*
X1198000Y52000D01*
X1165000Y30000D02*
Y34000D01*
X1167000Y36000D01*
X1170000Y30000D02*
Y34000D01*
X1153500Y24000D02*
X1187333D01*
X1170000Y34000D02*
X1172000Y36000D01*
X1185500Y32500D02*
X1188000Y30000D01*
X1185500Y47500D02*
X1189000Y44000D01*
X1175000Y30000D02*
X1177000D01*
X1179000Y28000D01*
X1182500Y32500D02*
X1185500D01*
X1182500Y47500D02*
X1185500D01*
X1175000Y50000D02*
Y60000D01*
X1147250Y30250D02*
X1153500Y24000D01*
X1210000Y34000D02*
X1920000Y34000D01*
X2550000Y58000D02*
X2550000D01*
X2575000Y50000D02*
Y60000D01*
X2542500Y60000D02*
X2550000D01*
X2575000Y50000D02*
Y50000D01*
X2550000Y55500D02*
Y58000D01*
X2542500D02*
X2542500D01*
X2920000Y34000D02*
X2932000D01*
X2937750Y39750D01*
X1982500Y47500D02*
X1985500D01*
X1989000Y44000D01*
X1990000Y60000D02*
X1998000Y52000D01*
X2585500Y47500D02*
X2589000Y44000D01*
X2582500Y47500D02*
X2585500D01*
X2590000Y60000D02*
X2598000Y52000D01*
X2610000D01*
X2520000Y34000D02*
X2532000D01*
X2550000Y58000D02*
Y60000D01*
X2542500Y55500D02*
Y58000D01*
Y60000D01*
X2970000Y30000D02*
Y34000D01*
X2965000Y30000D02*
Y34000D01*
X2967000Y36000D01*
X2966500Y20000D02*
X2970000Y23500D01*
Y30000D01*
Y34000D02*
X2972000Y36000D01*
X2975000Y50000D02*
Y54000D01*
Y50000D02*
X2975000Y50000D01*
X2975000Y30000D02*
X2977000D01*
X2979000Y28000D01*
X2980000Y27000D01*
X2982500Y32500D02*
X2985500D01*
X2982500Y47500D02*
X2985500D01*
X2985500Y32500D02*
X2988000Y30000D01*
X2985500Y47500D02*
X2989000Y44000D01*
X2988000Y30000D02*
X2995000D01*
X2942500Y60000D02*
X2950000D01*
X2969000D01*
X2980000Y20000D02*
Y27000D01*
X2950000Y55500D02*
Y60000D01*
X2942500Y55500D02*
Y60000D01*
X2969000D02*
X2975000Y54000D01*
X70000Y34000D02*
X1120000Y34000D01*
X1132000D02*
X1137750Y39750D01*
X1120000Y34000D02*
X1132000D01*
X2610000Y34000D02*
X2920000Y34000D01*
X2597333Y34000D02*
X2610000D01*
X2582500Y32500D02*
X2585500D01*
X2588000Y30000D01*
X2587333Y24000D02*
X2597333Y34000D01*
X1932000Y34000D02*
X1937750Y39750D01*
X1920000Y34000D02*
X1932000D01*
X1942500Y55500D02*
Y60000D01*
X1950000D01*
Y55500D02*
Y60000D01*
X1947250Y30250D02*
X1953500Y24000D01*
X1970000Y34000D02*
X1972000Y36000D01*
X1965000Y34000D02*
X1967000Y36000D01*
X1953500Y24000D02*
X1987333D01*
X1977000Y30000D02*
X1979000Y28000D01*
X1975000Y30000D02*
X1977000D01*
X1965000D02*
Y34000D01*
X1970000Y30000D02*
Y34000D01*
X1982500Y32500D02*
X1985500D01*
X1975000Y50000D02*
Y58000D01*
X1975000Y50000D02*
X1975000Y50000D01*
X1985500Y32500D02*
X1988000Y30000D01*
X2010000Y34000D02*
X2520000Y34000D01*
X1997333Y34000D02*
X2010000D01*
X1987333Y24000D02*
X1997333Y34000D01*
X2575000Y50000D02*
X2575000Y50000D01*
X2547250Y30250D02*
X2553500Y24000D01*
X2532000Y34000D02*
X2537750Y39750D01*
X2542500Y55500D02*
Y58000D01*
X2570000Y34000D02*
X2572000Y36000D01*
X2553500Y24000D02*
X2587333D01*
X2577000Y30000D02*
X2579000Y28000D01*
X2575000Y30000D02*
X2577000D01*
X2570000D02*
Y34000D01*
X2565000Y30000D02*
Y34000D01*
X2567000Y36000D01*
X42500Y10000D02*
X47250D01*
X52750D02*
X57500D01*
X52750Y17500D02*
X57500D01*
X7880Y42000D02*
X17500D01*
X65000Y62500D02*
X75500Y52000D01*
X47250Y62500D02*
X47500Y62250D01*
Y54250D02*
Y62250D01*
X42500Y62500D02*
X47250D01*
X46000Y34000D02*
X70000D01*
X41000Y29000D02*
X46000Y34000D01*
X37000Y31000D02*
X57500Y51500D01*
Y54250D01*
X59000Y50000D02*
X61000D01*
X62500Y51500D01*
Y54250D01*
X39000Y30000D02*
X59000Y50000D01*
X57086Y53836D02*
X57500Y54250D01*
X7880Y30000D02*
X17000D01*
X27500D02*
X27500Y30000D01*
X32120D01*
X7880Y34000D02*
X12500D01*
X7880Y38000D02*
X7880Y38000D01*
X7880Y38000D02*
X15000D01*
X27500Y38000D02*
X32120D01*
X25000Y34000D02*
X32120D01*
X27500Y54000D02*
X32120D01*
X25000Y42000D02*
X32120D01*
X25000Y50000D02*
X32120D01*
X25000Y58000D02*
X32120D01*
X27500Y46000D02*
X32120D01*
D13*
X1142500Y55500D02*
D03*
Y50000D02*
D03*
X1135000Y49750D02*
D03*
Y55250D02*
D03*
X1150000Y55500D02*
D03*
Y50000D02*
D03*
X1935000Y49750D02*
D03*
Y55250D02*
D03*
X1942500Y55500D02*
D03*
Y50000D02*
D03*
X1950000Y55500D02*
D03*
Y50000D02*
D03*
X2535000Y49750D02*
D03*
Y55250D02*
D03*
X2542500Y55500D02*
D03*
Y50000D02*
D03*
X2550000Y55500D02*
D03*
Y50000D02*
D03*
X2935000Y49750D02*
D03*
Y55250D02*
D03*
X2950000Y55500D02*
D03*
Y50000D02*
D03*
X2942500Y55500D02*
D03*
Y50000D02*
D03*
D14*
X1137750Y39750D02*
D03*
Y30250D02*
D03*
X1147250D02*
D03*
Y39750D02*
D03*
X1937750D02*
D03*
Y30250D02*
D03*
X1947250D02*
D03*
Y39750D02*
D03*
X2537750D02*
D03*
Y30250D02*
D03*
X2547250D02*
D03*
Y39750D02*
D03*
X2937750D02*
D03*
Y30250D02*
D03*
X2947250D02*
D03*
Y39750D02*
D03*
D15*
X1182500Y32500D02*
D03*
Y37500D02*
D03*
Y42500D02*
D03*
Y47500D02*
D03*
X1157500D02*
D03*
Y42500D02*
D03*
Y37500D02*
D03*
Y32500D02*
D03*
X1982500D02*
D03*
Y37500D02*
D03*
Y42500D02*
D03*
Y47500D02*
D03*
X1957500D02*
D03*
Y42500D02*
D03*
Y37500D02*
D03*
Y32500D02*
D03*
X2582500D02*
D03*
Y37500D02*
D03*
Y42500D02*
D03*
Y47500D02*
D03*
X2557500D02*
D03*
Y42500D02*
D03*
Y37500D02*
D03*
Y32500D02*
D03*
X2982500D02*
D03*
Y37500D02*
D03*
Y42500D02*
D03*
Y47500D02*
D03*
X2957500D02*
D03*
Y42500D02*
D03*
Y37500D02*
D03*
Y32500D02*
D03*
D16*
X1175000Y30000D02*
D03*
X1165000D02*
D03*
X1175000Y50000D02*
D03*
X1170000D02*
D03*
X1165000D02*
D03*
X1170000Y30000D02*
D03*
X1975000D02*
D03*
X1965000D02*
D03*
X1975000Y50000D02*
D03*
X1970000D02*
D03*
X1965000D02*
D03*
X1970000Y30000D02*
D03*
X2575000D02*
D03*
X2565000D02*
D03*
X2575000Y50000D02*
D03*
X2570000D02*
D03*
X2565000D02*
D03*
X2570000Y30000D02*
D03*
X2975000D02*
D03*
X2965000D02*
D03*
X2975000Y50000D02*
D03*
X2970000D02*
D03*
X2965000D02*
D03*
X2970000Y30000D02*
D03*
D17*
X2966500Y20000D02*
D03*
X2995000Y30000D02*
D03*
X2980000Y20000D02*
D03*
X2953500D02*
D03*
D18*
X52750Y10000D02*
D03*
X47250D02*
D03*
X52750Y17500D02*
D03*
X47250D02*
D03*
X52750Y62500D02*
D03*
X47250D02*
D03*
D19*
X7880Y42000D02*
D03*
X32120Y38000D02*
D03*
Y42000D02*
D03*
Y34000D02*
D03*
Y46000D02*
D03*
Y22000D02*
D03*
Y26000D02*
D03*
Y30000D02*
D03*
X7880Y58000D02*
D03*
Y54000D02*
D03*
Y50000D02*
D03*
Y46000D02*
D03*
Y38000D02*
D03*
Y34000D02*
D03*
Y30000D02*
D03*
Y26000D02*
D03*
Y22000D02*
D03*
X32120Y58000D02*
D03*
Y54000D02*
D03*
Y50000D02*
D03*
D20*
X30850Y12500D02*
D03*
Y67500D02*
D03*
X9150D02*
D03*
Y12500D02*
D03*
D21*
X62500Y54250D02*
D03*
Y25750D02*
D03*
X47500Y54250D02*
D03*
X52500D02*
D03*
X57500D02*
D03*
Y25750D02*
D03*
X52500D02*
D03*
X47500D02*
D03*
D31*
X67553Y22705D02*
X74847Y30000D01*
X90000Y30000D02*
X1120000Y30000D01*
X1199000Y30000D02*
X1210000D01*
Y30000D02*
X1920000Y30000D01*
X1188750Y19750D02*
X1199000Y30000D01*
X1145250Y19750D02*
X1188750D01*
X1120000Y30000D02*
X1137500D01*
X1137750Y27250D02*
Y30250D01*
Y27250D02*
X1145250Y19750D01*
X2920000Y30000D02*
X2937500D01*
X2610000Y30000D02*
X2920000Y30000D01*
X2588750Y19750D02*
X2599000Y30000D01*
X2610000D01*
X1920000Y30000D02*
X1937500D01*
X1937750Y27250D02*
X1945250Y19750D01*
X1937750Y27250D02*
Y30250D01*
X1945250Y19750D02*
X1988750D01*
X2010000Y30000D02*
X2520000Y30000D01*
Y30000D02*
X2537500D01*
X1999000Y30000D02*
X2010000D01*
X1988750Y19750D02*
X1999000Y30000D01*
X2537750Y27250D02*
X2545250Y19750D01*
X2537750Y27250D02*
Y30250D01*
X2545250Y19750D02*
X2588750D01*
X74847Y30000D02*
X90000D01*
D32*
X7880Y58000D02*
X15000D01*
X7880Y54000D02*
X12500D01*
X7880Y22000D02*
X15000D01*
X7880Y26000D02*
X12500D01*
D33*
X67553Y22705D02*
D03*
X42500Y17500D02*
D03*
X1189000Y44000D02*
D03*
X1167000Y36000D02*
D03*
X1172000D02*
D03*
X1179000Y28000D02*
D03*
X1188000Y30000D02*
D03*
X1989000Y44000D02*
D03*
X1967000Y36000D02*
D03*
X1972000D02*
D03*
X1979000Y28000D02*
D03*
X1988000Y30000D02*
D03*
X2589000Y44000D02*
D03*
X2572000Y36000D02*
D03*
X2579000Y28000D02*
D03*
X2588000Y30000D02*
D03*
X2567000Y36000D02*
D03*
X2967000D02*
D03*
X2972000D02*
D03*
X2979000Y28000D02*
D03*
X2988000Y30000D02*
D03*
X2989000Y44000D02*
D03*
X42500Y10000D02*
D03*
X57500D02*
D03*
Y17500D02*
D03*
X17500Y42000D02*
D03*
X65000Y62500D02*
D03*
X15000Y58000D02*
D03*
X12500Y54000D02*
D03*
X15000Y22000D02*
D03*
X12500Y26000D02*
D03*
X42500Y62500D02*
D03*
X27500Y30000D02*
D03*
X12500Y34000D02*
D03*
X15000Y38000D02*
D03*
X27500Y38000D02*
D03*
X25000Y34000D02*
D03*
X27500Y54000D02*
D03*
X25000Y42000D02*
D03*
Y50000D02*
D03*
Y58000D02*
D03*
X27500Y46000D02*
D03*
M02*
