G04*
G04 #@! TF.GenerationSoftware,Altium Limited,Altium Designer,25.8.1 (18)*
G04*
G04 Layer_Color=16711935*
%FSLAX44Y44*%
%MOMM*%
G71*
G04*
G04 #@! TF.SameCoordinates,4054CFD1-7900-4029-97E8-FE7289E817F4*
G04*
G04*
G04 #@! TF.FilePolarity,Positive*
G04*
G01*
G75*
G36*
X62917Y79616D02*
X64737Y78862D01*
X66375Y77768D01*
X67768Y76375D01*
X68862Y74737D01*
X69616Y72917D01*
X70000Y70985D01*
Y70000D01*
Y10000D01*
Y9015D01*
X69616Y7083D01*
X68862Y5263D01*
X67768Y3625D01*
X66375Y2233D01*
X64737Y1138D01*
X62917Y384D01*
X60985Y0D01*
X9015D01*
X7083Y384D01*
X5263Y1138D01*
X3625Y2233D01*
X2233Y3625D01*
X1138Y5263D01*
X384Y7083D01*
X0Y9015D01*
Y10000D01*
Y70000D01*
Y70985D01*
X384Y72917D01*
X1138Y74737D01*
X2233Y76375D01*
X3625Y77768D01*
X5263Y78862D01*
X7083Y79616D01*
X9015Y80000D01*
X60985D01*
X62917Y79616D01*
D02*
G37*
G36*
X1120000Y65000D02*
X1120000Y65000D01*
X1210000Y65000D01*
X1210995Y65000D01*
X1212832Y64239D01*
X1214239Y62832D01*
X1215000Y60995D01*
X1215000Y60000D01*
X1215000D01*
X1215000Y60000D01*
X1215000Y20000D01*
X1215000Y19005D01*
X1214239Y17168D01*
X1212832Y15761D01*
X1210995Y15000D01*
X1210000Y15000D01*
Y15000D01*
X1210000Y15000D01*
Y15000D01*
X1120000Y15000D01*
X1119055Y14950D01*
X1117271Y15582D01*
X1115864Y16849D01*
X1115049Y18557D01*
X1115000Y19503D01*
X1115000Y19503D01*
X1115000Y60000D01*
X1114999Y60995D01*
X1115759Y62833D01*
X1117166Y64240D01*
X1119005Y65001D01*
X1120000Y65000D01*
D02*
G37*
G36*
X1920000D02*
X1920000Y65000D01*
X2010000Y65000D01*
X2010995Y65000D01*
X2012832Y64239D01*
X2014239Y62832D01*
X2015000Y60995D01*
X2015000Y60000D01*
X2015000D01*
X2015000Y60000D01*
X2015000Y20000D01*
X2015000Y19005D01*
X2014239Y17168D01*
X2012832Y15761D01*
X2010995Y15000D01*
X2010000Y15000D01*
Y15000D01*
X2010000Y15000D01*
Y15000D01*
X1920000Y15000D01*
X1919055Y14950D01*
X1917271Y15582D01*
X1915864Y16849D01*
X1915049Y18557D01*
X1915000Y19503D01*
X1915000Y19503D01*
X1915000Y60000D01*
X1914999Y60995D01*
X1915759Y62833D01*
X1917166Y64240D01*
X1919005Y65001D01*
X1920000Y65000D01*
D02*
G37*
G36*
X2520000D02*
X2520000Y65000D01*
X2610000Y65000D01*
X2610995Y65000D01*
X2612832Y64239D01*
X2614239Y62832D01*
X2615000Y60995D01*
X2615000Y60000D01*
X2615000D01*
X2615000Y60000D01*
X2615000Y20000D01*
X2615000Y19005D01*
X2614239Y17168D01*
X2612832Y15761D01*
X2610995Y15000D01*
X2610000Y15000D01*
Y15000D01*
X2610000Y15000D01*
Y15000D01*
X2520000Y15000D01*
X2519055Y14950D01*
X2517271Y15582D01*
X2515864Y16849D01*
X2515049Y18557D01*
X2515000Y19503D01*
X2515000Y19503D01*
X2515000Y60000D01*
X2514999Y60995D01*
X2515759Y62833D01*
X2517166Y64240D01*
X2519005Y65001D01*
X2520000Y65000D01*
D02*
G37*
G36*
X2920000D02*
X2920000Y65000D01*
X3010000Y65000D01*
X3010995Y65000D01*
X3012832Y64239D01*
X3014239Y62832D01*
X3015000Y60995D01*
X3015000Y60000D01*
X3015000D01*
X3015000Y60000D01*
X3015000Y20000D01*
X3015000Y19005D01*
X3014239Y17168D01*
X3012832Y15761D01*
X3010995Y15000D01*
X3010000Y15000D01*
Y15000D01*
X3010000Y15000D01*
Y15000D01*
X2920000Y15000D01*
X2919055Y14950D01*
X2917271Y15582D01*
X2915864Y16849D01*
X2915049Y18557D01*
X2915000Y19503D01*
X2915000Y19503D01*
X2915000Y60000D01*
X2914999Y60995D01*
X2915759Y62833D01*
X2917166Y64240D01*
X2919005Y65001D01*
X2920000Y65000D01*
D02*
G37*
M02*
