G04*
G04 #@! TF.GenerationSoftware,Altium Limited,Altium Designer,26.1.1 (7)*
G04*
G04 Layer_Physical_Order=2*
G04 Layer_Color=16711680*
%FSLAX44Y44*%
%MOMM*%
G71*
G04*
G04 #@! TF.SameCoordinates,B0D02E19-ABCC-407F-B56D-B1A7719BE132*
G04*
G04*
G04 #@! TF.FilePolarity,Positive*
G04*
G01*
G75*
%ADD10C,0.1000*%
%ADD32C,0.3500*%
G36*
X60000Y78193D02*
X62120Y77914D01*
X64096Y77095D01*
X65793Y75793D01*
X67095Y74097D01*
X67914Y72120D01*
X68193Y70000D01*
X68216D01*
Y65000D01*
X68216Y65000D01*
X68149D01*
X68552Y61933D01*
X69736Y59074D01*
X70000Y58731D01*
Y51624D01*
X37673D01*
X30148Y59148D01*
X29000Y59624D01*
X27266D01*
X26558Y60331D01*
X25547Y60750D01*
X24453D01*
X23442Y60331D01*
X22669Y59558D01*
X22250Y58547D01*
Y57453D01*
X22669Y56442D01*
X23442Y55669D01*
X24453Y55250D01*
X24591D01*
X24869Y54834D01*
X24750Y54547D01*
Y53453D01*
X24869Y53166D01*
X24591Y52750D01*
X24453D01*
X23442Y52331D01*
X22669Y51558D01*
X22250Y50547D01*
Y49453D01*
X22669Y48442D01*
X23442Y47669D01*
X24453Y47250D01*
X24591D01*
X24869Y46834D01*
X24750Y46547D01*
Y45453D01*
X24869Y45166D01*
X24591Y44750D01*
X24453D01*
X23442Y44331D01*
X22669Y43558D01*
X22250Y42547D01*
Y41453D01*
X22645Y40500D01*
X22458Y40000D01*
X21416D01*
X21148Y40648D01*
X20250Y41546D01*
Y42547D01*
X19831Y43558D01*
X19058Y44331D01*
X18047Y44750D01*
X16953D01*
X15942Y44331D01*
X15169Y43558D01*
X14750Y42547D01*
Y41453D01*
X14869Y41166D01*
X14591Y40750D01*
X14453D01*
X13442Y40331D01*
X13111Y40000D01*
X1784D01*
Y69977D01*
X1807D01*
X2087Y72104D01*
X2907Y74085D01*
X4213Y75787D01*
X5915Y77093D01*
X7896Y77913D01*
X10023Y78193D01*
Y78216D01*
X10023Y78216D01*
X60000D01*
Y78193D01*
D02*
G37*
G36*
X70000Y34376D02*
Y33624D01*
X66000D01*
X64852Y33148D01*
X56352Y24648D01*
X55876Y23500D01*
Y19765D01*
X55169Y19058D01*
X54750Y18047D01*
Y16953D01*
X55169Y15942D01*
X55275Y15835D01*
X55084Y15374D01*
X44916D01*
X44725Y15835D01*
X44831Y15942D01*
X45250Y16953D01*
Y18047D01*
X44831Y19058D01*
X44058Y19831D01*
X43047Y20250D01*
X41953D01*
X40942Y19831D01*
X40234Y19124D01*
X35173D01*
X27508Y26788D01*
X27699Y27250D01*
X28047D01*
X29058Y27669D01*
X29813Y28424D01*
X30048D01*
X31196Y28900D01*
X36672Y34376D01*
X70000D01*
X70000Y34376D01*
D02*
G37*
G36*
X12250Y38547D02*
Y37453D01*
X12369Y37166D01*
X12091Y36750D01*
X11953D01*
X10942Y36331D01*
X10169Y35558D01*
X9750Y34547D01*
Y33453D01*
X10169Y32442D01*
X10942Y31669D01*
X11953Y31250D01*
X12625D01*
X35024Y8852D01*
X36172Y8376D01*
X40234D01*
X40942Y7669D01*
X41953Y7250D01*
X43047D01*
X44058Y7669D01*
X44831Y8442D01*
X45250Y9453D01*
Y10547D01*
X44831Y11558D01*
X44724Y11665D01*
X44916Y12126D01*
X55084D01*
X55276Y11665D01*
X55169Y11558D01*
X54750Y10547D01*
Y9453D01*
X55169Y8442D01*
X55942Y7669D01*
X56953Y7250D01*
X58047D01*
X59058Y7669D01*
X59831Y8442D01*
X60250Y9453D01*
Y9954D01*
X64148Y13852D01*
X64624Y15000D01*
Y22327D01*
X68672Y26376D01*
X70000D01*
Y21269D01*
X69736Y20926D01*
X68552Y18067D01*
X68149Y15000D01*
X68216D01*
Y10000D01*
X68216Y10000D01*
X68193D01*
X67914Y7879D01*
X67095Y5903D01*
X65793Y4207D01*
X64096Y2905D01*
X62120Y2086D01*
X60000Y1807D01*
Y1784D01*
X60000Y1784D01*
X10023D01*
Y1807D01*
X7896Y2087D01*
X5915Y2907D01*
X4213Y4213D01*
X2907Y5915D01*
X2087Y7896D01*
X1807Y10023D01*
X1784D01*
Y38918D01*
X12002D01*
X12250Y38547D01*
D02*
G37*
D10*
X57500Y23500D02*
X66000Y32000D01*
X20000D02*
X34500Y17500D01*
X17000Y32000D02*
X35250Y13750D01*
X12500Y33672D02*
X36172Y10000D01*
X12500Y33672D02*
Y34000D01*
X36172Y10000D02*
X42500D01*
X17000Y32000D02*
Y36000D01*
X35250Y13750D02*
X58750D01*
X61000Y16000D01*
Y24000D01*
X20000Y32000D02*
Y39500D01*
X34500Y17500D02*
X42500D01*
X67000Y30000D02*
X1174000D01*
X63000Y23000D02*
X68000Y28000D01*
X61000Y24000D02*
X67000Y30000D01*
X66000Y32000D02*
X1168000D01*
X1986000Y50000D02*
X1991000D01*
X1990000Y48000D02*
X1994000Y44000D01*
X1991000Y50000D02*
X1995000Y46000D01*
X1179000Y40000D02*
X1920000D01*
X1978000Y38000D02*
X2563000D01*
X1977000Y36000D02*
X2567000D01*
X1992000Y32000D02*
X2568000D01*
X1988000Y30000D02*
X2574000D01*
X1992000Y28000D02*
X2579000D01*
X1995000Y46000D02*
X2585000D01*
X1994000Y44000D02*
X2589000D01*
X1990000Y26000D02*
X1992000Y28000D01*
X1990000Y34000D02*
X1992000Y32000D01*
X1920000Y40000D02*
X1963000D01*
X1965000Y42000D01*
X1964000Y38000D02*
X1966000Y40000D01*
X1973000D01*
X1965000Y42000D02*
X1974000D01*
X1968000Y32000D02*
X1972000Y36000D01*
X1972212Y35788D01*
X1974384D01*
X1973000Y40000D02*
X1977000Y36000D01*
X1974000Y30000D02*
X1976000Y32000D01*
X1974384Y35788D02*
X1976172Y34000D01*
X1974000Y42000D02*
X1978000Y38000D01*
X1976000Y32000D02*
X1982000D01*
X1979000Y28000D02*
X1981000Y26000D01*
X1982000Y32000D02*
X1984000Y30000D01*
X1976172Y34000D02*
X1990000D01*
X1984000Y48000D02*
X1986000Y50000D01*
X1981000Y26000D02*
X1990000D01*
X1984000Y30000D02*
X1988000D01*
X1987000Y48000D02*
X1990000D01*
X1985000Y46000D02*
X1987000Y48000D01*
X1192000Y52000D02*
X1196000Y48000D01*
X1191000Y50000D02*
X1195000Y46000D01*
X1190000Y26000D02*
X1192000Y28000D01*
X1190000Y34000D02*
X1192000Y32000D01*
X1190000Y48000D02*
X1194000Y44000D01*
X1178000Y38000D02*
X1964000D01*
X1177000Y36000D02*
X1967000D01*
X1192000Y32000D02*
X1968000D01*
X1188000Y30000D02*
X1974000D01*
X1192000Y28000D02*
X1979000D01*
X1195000Y46000D02*
X1985000D01*
X1196000Y48000D02*
X1984000D01*
X1194000Y44000D02*
X1989000D01*
X1920000Y40000D02*
X1920000Y40000D01*
X2574384Y35788D02*
X2576172Y34000D01*
X2574000Y40000D02*
X2578000Y36000D01*
X2563000Y38000D02*
X2565000Y40000D01*
X2572212Y35788D02*
X2574384D01*
X2574000Y30000D02*
X2576000Y32000D01*
X2565000Y40000D02*
X2574000D01*
X2568000Y32000D02*
X2572000Y36000D01*
X2572212Y35788D01*
X2576000Y32000D02*
X2582000D01*
X2579000Y28000D02*
X2581000Y26000D01*
X2582000Y32000D02*
X2584000Y30000D01*
X2576172Y34000D02*
X2590000D01*
X2581000Y26000D02*
X2590000D01*
X2584000Y30000D02*
X2588000D01*
X2585000Y46000D02*
X2587000Y48000D01*
X2591000D01*
X2590000Y26000D02*
X2592000Y28000D01*
X2591000Y48000D02*
X2595000Y44000D01*
X2590000Y34000D02*
X2592000Y32000D01*
X2578000Y36000D02*
X2967000D01*
X2592000Y32000D02*
X2968000D01*
X2588000Y30000D02*
X2974000D01*
X2592000Y28000D02*
X2979000D01*
X2595000Y44000D02*
X2989000D01*
X2974000Y30000D02*
X2976000Y32000D01*
X2968000D02*
X2972000Y36000D01*
X2976000Y32000D02*
X2982000D01*
X2984000Y30000D01*
X2988000D01*
X90000Y46000D02*
X1120000Y46000D01*
X68000Y28000D02*
X1179000D01*
X1120000Y50000D02*
X1158000D01*
X1120000Y36000D02*
X1167000D01*
X1163000Y40000D02*
X1165000Y42000D01*
X1120000Y48000D02*
X1159000D01*
X1120000Y46000D02*
X1160000D01*
X1120000Y40000D02*
X1163000D01*
X1120000Y38000D02*
X1164000D01*
X1158000Y50000D02*
X1160000Y52000D01*
X1159000Y48000D02*
X1161000Y50000D01*
X1160000Y46000D02*
X1162000Y48000D01*
X1161000Y44000D02*
X1163000Y46000D01*
X1162000Y42000D02*
X1164000Y44000D01*
X1174000Y30000D02*
X1176000Y32000D01*
X1174384Y35788D02*
X1176172Y34000D01*
X1160000Y52000D02*
X1192000D01*
X1162000Y48000D02*
X1190000D01*
X1161000Y50000D02*
X1191000D01*
X1172212Y35788D02*
X1174384D01*
X1163000Y46000D02*
X1187000D01*
X1164000Y44000D02*
X1175000D01*
X1166000Y40000D02*
X1173000D01*
X1165000Y42000D02*
X1174000D01*
X1168000Y32000D02*
X1172000Y36000D01*
X1172212Y35788D01*
X25000Y42000D02*
X1162000Y42000D01*
X70000Y36000D02*
X1120000Y36000D01*
X70000Y50000D02*
X1120000Y50000D01*
X70000Y38000D02*
X1120000Y38000D01*
X29500Y44000D02*
X1161000Y44000D01*
X90000Y40000D02*
X1120000Y40000D01*
X90000Y48000D02*
X1120000Y48000D01*
X1181000Y26000D02*
X1190000D01*
X1174000Y42000D02*
X1178000Y38000D01*
X1175000Y44000D02*
X1179000Y40000D01*
X1176000Y32000D02*
X1182000D01*
X1179000Y28000D02*
X1181000Y26000D01*
X1182000Y32000D02*
X1184000Y30000D01*
X1176172Y34000D02*
X1190000D01*
X1184000Y30000D02*
X1188000D01*
X1164000Y38000D02*
X1166000Y40000D01*
X1173000D02*
X1177000Y36000D01*
X1187000Y46000D02*
X1189000Y44000D01*
X59000Y11000D02*
X63000Y15000D01*
X57500Y17500D02*
Y23500D01*
X17500Y42000D02*
X20000Y39500D01*
X63000Y15000D02*
Y23000D01*
X27500Y30000D02*
X27548Y30048D01*
X30048D02*
X36000Y36000D01*
X27548Y30048D02*
X30048D01*
X15000Y38000D02*
X17000Y36000D01*
X25000Y34000D02*
X31000D01*
X27500Y38000D02*
X29500Y40000D01*
X90000D01*
X31000Y34000D02*
X35000Y38000D01*
X36000Y36000D02*
X70000D01*
X35000Y38000D02*
X70000D01*
X37000Y50000D02*
X70000D01*
X29000Y58000D02*
X37000Y50000D01*
X25000Y58000D02*
X29000D01*
X27500Y54000D02*
X27548Y53952D01*
X30048D01*
X36000Y48000D01*
X90000D01*
X35000Y46000D02*
X90000D01*
X31000Y50000D02*
X35000Y46000D01*
X25000Y50000D02*
X31000D01*
X27500Y46000D02*
X29500Y44000D01*
D32*
X67553Y22705D02*
D03*
X42500Y17500D02*
D03*
X1189000Y44000D02*
D03*
X1167000Y36000D02*
D03*
X1172000D02*
D03*
X1179000Y28000D02*
D03*
X1188000Y30000D02*
D03*
X1989000Y44000D02*
D03*
X1967000Y36000D02*
D03*
X1972000D02*
D03*
X1979000Y28000D02*
D03*
X1988000Y30000D02*
D03*
X2589000Y44000D02*
D03*
X2572000Y36000D02*
D03*
X2579000Y28000D02*
D03*
X2588000Y30000D02*
D03*
X2567000Y36000D02*
D03*
X2967000D02*
D03*
X2972000D02*
D03*
X2979000Y28000D02*
D03*
X2988000Y30000D02*
D03*
X2989000Y44000D02*
D03*
X42500Y10000D02*
D03*
X57500D02*
D03*
Y17500D02*
D03*
X17500Y42000D02*
D03*
X65000Y62500D02*
D03*
X15000Y58000D02*
D03*
X12500Y54000D02*
D03*
X15000Y22000D02*
D03*
X12500Y26000D02*
D03*
X42500Y62500D02*
D03*
X27500Y30000D02*
D03*
X12500Y34000D02*
D03*
X15000Y38000D02*
D03*
X27500Y38000D02*
D03*
X25000Y34000D02*
D03*
X27500Y54000D02*
D03*
X25000Y42000D02*
D03*
Y50000D02*
D03*
Y58000D02*
D03*
X27500Y46000D02*
D03*
M02*
