G04*
G04 #@! TF.GenerationSoftware,Altium Limited,Altium Designer,25.2.1 (25)*
G04*
G04 Layer_Color=65535*
%FSLAX44Y44*%
%MOMM*%
G71*
G04*
G04 #@! TF.SameCoordinates,24B669B4-43E1-4125-8CB8-FB5C22A2B249*
G04*
G04*
G04 #@! TF.FilePolarity,Positive*
G04*
G01*
G75*
%ADD10C,0.1000*%
%ADD11C,0.0100*%
D10*
X2433500Y44500D02*
G03*
X2433500Y44500I-500J0D01*
G01*
X2033500D02*
G03*
X2033500Y44500I-500J0D01*
G01*
X1433500D02*
G03*
X1433500Y44500I-500J0D01*
G01*
X633500D02*
G03*
X633500Y44500I-500J0D01*
G01*
X686500Y27000D02*
G03*
X686500Y27000I-500J0D01*
G01*
X2486500D02*
G03*
X2486500Y27000I-500J0D01*
G01*
X2086500D02*
G03*
X2086500Y27000I-500J0D01*
G01*
X1486500D02*
G03*
X1486500Y27000I-500J0D01*
G01*
X66500Y43500D02*
G03*
X66500Y43500I-500J0D01*
G01*
D11*
X2440080Y35292D02*
Y34875D01*
X2440163Y34792D01*
X2440330D01*
X2440413Y34875D01*
Y35292D01*
X2440580Y35208D02*
X2440663Y35292D01*
X2440830D01*
X2440913Y35208D01*
Y35125D01*
X2440830Y35042D01*
X2440746D01*
X2440830D01*
X2440913Y34958D01*
Y34875D01*
X2440830Y34792D01*
X2440663D01*
X2440580Y34875D01*
X2441080Y34708D02*
X2441413D01*
X2441579Y35292D02*
X2441746D01*
X2441663D01*
Y34792D01*
X2441579D01*
X2441746D01*
X2441996D02*
Y35292D01*
X2442163Y35125D01*
X2442329Y35292D01*
Y34792D01*
X2442496Y35292D02*
Y34875D01*
X2442579Y34792D01*
X2442746D01*
X2442829Y34875D01*
Y35292D01*
X2443246Y34792D02*
Y35292D01*
X2442996Y35042D01*
X2443329D01*
X2040080Y35292D02*
Y34875D01*
X2040163Y34792D01*
X2040330D01*
X2040413Y34875D01*
Y35292D01*
X2040580Y35208D02*
X2040663Y35292D01*
X2040830D01*
X2040913Y35208D01*
Y35125D01*
X2040830Y35042D01*
X2040746D01*
X2040830D01*
X2040913Y34958D01*
Y34875D01*
X2040830Y34792D01*
X2040663D01*
X2040580Y34875D01*
X2041080Y34708D02*
X2041413D01*
X2041579Y35292D02*
X2041746D01*
X2041663D01*
Y34792D01*
X2041579D01*
X2041746D01*
X2041996D02*
Y35292D01*
X2042163Y35125D01*
X2042329Y35292D01*
Y34792D01*
X2042496Y35292D02*
Y34875D01*
X2042579Y34792D01*
X2042746D01*
X2042829Y34875D01*
Y35292D01*
X2042996Y35208D02*
X2043079Y35292D01*
X2043246D01*
X2043329Y35208D01*
Y35125D01*
X2043246Y35042D01*
X2043162D01*
X2043246D01*
X2043329Y34958D01*
Y34875D01*
X2043246Y34792D01*
X2043079D01*
X2042996Y34875D01*
X1440080Y35292D02*
Y34875D01*
X1440163Y34792D01*
X1440330D01*
X1440413Y34875D01*
Y35292D01*
X1440580Y35208D02*
X1440663Y35292D01*
X1440830D01*
X1440913Y35208D01*
Y35125D01*
X1440830Y35042D01*
X1440746D01*
X1440830D01*
X1440913Y34958D01*
Y34875D01*
X1440830Y34792D01*
X1440663D01*
X1440580Y34875D01*
X1441080Y34708D02*
X1441413D01*
X1441579Y35292D02*
X1441746D01*
X1441663D01*
Y34792D01*
X1441579D01*
X1441746D01*
X1441996D02*
Y35292D01*
X1442163Y35125D01*
X1442329Y35292D01*
Y34792D01*
X1442496Y35292D02*
Y34875D01*
X1442579Y34792D01*
X1442746D01*
X1442829Y34875D01*
Y35292D01*
X1443329Y34792D02*
X1442996D01*
X1443329Y35125D01*
Y35208D01*
X1443246Y35292D01*
X1443079D01*
X1442996Y35208D01*
X2468782Y40378D02*
Y39961D01*
X2468865Y39878D01*
X2469032D01*
X2469115Y39961D01*
Y40378D01*
X2469615Y39878D02*
X2469282D01*
X2469615Y40211D01*
Y40294D01*
X2469532Y40378D01*
X2469365D01*
X2469282Y40294D01*
X2469782Y39795D02*
X2470115D01*
X2470282Y40378D02*
X2470448D01*
X2470365D01*
Y39878D01*
X2470282D01*
X2470448D01*
X2470698D02*
Y40378D01*
X2470865Y40211D01*
X2471031Y40378D01*
Y39878D01*
X2471198Y40378D02*
Y39961D01*
X2471281Y39878D01*
X2471448D01*
X2471531Y39961D01*
Y40378D01*
X2471948Y39878D02*
Y40378D01*
X2471698Y40128D01*
X2472031D01*
X2068782Y40378D02*
Y39961D01*
X2068865Y39878D01*
X2069032D01*
X2069115Y39961D01*
Y40378D01*
X2069615Y39878D02*
X2069282D01*
X2069615Y40211D01*
Y40294D01*
X2069532Y40378D01*
X2069365D01*
X2069282Y40294D01*
X2069782Y39795D02*
X2070115D01*
X2070282Y40378D02*
X2070448D01*
X2070365D01*
Y39878D01*
X2070282D01*
X2070448D01*
X2070698D02*
Y40378D01*
X2070865Y40211D01*
X2071031Y40378D01*
Y39878D01*
X2071198Y40378D02*
Y39961D01*
X2071281Y39878D01*
X2071448D01*
X2071531Y39961D01*
Y40378D01*
X2071698Y40294D02*
X2071781Y40378D01*
X2071948D01*
X2072031Y40294D01*
Y40211D01*
X2071948Y40128D01*
X2071864D01*
X2071948D01*
X2072031Y40045D01*
Y39961D01*
X2071948Y39878D01*
X2071781D01*
X2071698Y39961D01*
X1468782Y40378D02*
Y39961D01*
X1468865Y39878D01*
X1469032D01*
X1469115Y39961D01*
Y40378D01*
X1469615Y39878D02*
X1469282D01*
X1469615Y40211D01*
Y40294D01*
X1469532Y40378D01*
X1469365D01*
X1469282Y40294D01*
X1469782Y39795D02*
X1470115D01*
X1470282Y40378D02*
X1470448D01*
X1470365D01*
Y39878D01*
X1470282D01*
X1470448D01*
X1470698D02*
Y40378D01*
X1470865Y40211D01*
X1471031Y40378D01*
Y39878D01*
X1471198Y40378D02*
Y39961D01*
X1471281Y39878D01*
X1471448D01*
X1471531Y39961D01*
Y40378D01*
X1472031Y39878D02*
X1471698D01*
X1472031Y40211D01*
Y40294D01*
X1471948Y40378D01*
X1471781D01*
X1471698Y40294D01*
X2448795Y52994D02*
X2448712Y53078D01*
X2448545D01*
X2448462Y52994D01*
Y52661D01*
X2448545Y52578D01*
X2448712D01*
X2448795Y52661D01*
X2449212Y52578D02*
Y53078D01*
X2448962Y52828D01*
X2449295D01*
X2449462Y52495D02*
X2449795D01*
X2449962Y53078D02*
X2450128D01*
X2450045D01*
Y52578D01*
X2449962D01*
X2450128D01*
X2450378D02*
Y53078D01*
X2450545Y52911D01*
X2450711Y53078D01*
Y52578D01*
X2450878Y53078D02*
Y52661D01*
X2450961Y52578D01*
X2451128D01*
X2451211Y52661D01*
Y53078D01*
X2451628Y52578D02*
Y53078D01*
X2451378Y52828D01*
X2451711D01*
X2048795Y52994D02*
X2048712Y53078D01*
X2048545D01*
X2048462Y52994D01*
Y52661D01*
X2048545Y52578D01*
X2048712D01*
X2048795Y52661D01*
X2049212Y52578D02*
Y53078D01*
X2048962Y52828D01*
X2049295D01*
X2049462Y52495D02*
X2049795D01*
X2049962Y53078D02*
X2050128D01*
X2050045D01*
Y52578D01*
X2049962D01*
X2050128D01*
X2050378D02*
Y53078D01*
X2050545Y52911D01*
X2050711Y53078D01*
Y52578D01*
X2050878Y53078D02*
Y52661D01*
X2050961Y52578D01*
X2051128D01*
X2051211Y52661D01*
Y53078D01*
X2051378Y52994D02*
X2051461Y53078D01*
X2051628D01*
X2051711Y52994D01*
Y52911D01*
X2051628Y52828D01*
X2051544D01*
X2051628D01*
X2051711Y52745D01*
Y52661D01*
X2051628Y52578D01*
X2051461D01*
X2051378Y52661D01*
X1448795Y52994D02*
X1448712Y53078D01*
X1448545D01*
X1448462Y52994D01*
Y52661D01*
X1448545Y52578D01*
X1448712D01*
X1448795Y52661D01*
X1449212Y52578D02*
Y53078D01*
X1448962Y52828D01*
X1449295D01*
X1449462Y52495D02*
X1449795D01*
X1449962Y53078D02*
X1450128D01*
X1450045D01*
Y52578D01*
X1449962D01*
X1450128D01*
X1450378D02*
Y53078D01*
X1450545Y52911D01*
X1450711Y53078D01*
Y52578D01*
X1450878Y53078D02*
Y52661D01*
X1450961Y52578D01*
X1451128D01*
X1451211Y52661D01*
Y53078D01*
X1451711Y52578D02*
X1451378D01*
X1451711Y52911D01*
Y52994D01*
X1451628Y53078D01*
X1451461D01*
X1451378Y52994D01*
X2441175D02*
X2441092Y53078D01*
X2440925D01*
X2440842Y52994D01*
Y52661D01*
X2440925Y52578D01*
X2441092D01*
X2441175Y52661D01*
X2441342Y52994D02*
X2441425Y53078D01*
X2441592D01*
X2441675Y52994D01*
Y52911D01*
X2441592Y52828D01*
X2441508D01*
X2441592D01*
X2441675Y52745D01*
Y52661D01*
X2441592Y52578D01*
X2441425D01*
X2441342Y52661D01*
X2441842Y52495D02*
X2442175D01*
X2442341Y53078D02*
X2442508D01*
X2442425D01*
Y52578D01*
X2442341D01*
X2442508D01*
X2442758D02*
Y53078D01*
X2442925Y52911D01*
X2443091Y53078D01*
Y52578D01*
X2443258Y53078D02*
Y52661D01*
X2443341Y52578D01*
X2443508D01*
X2443591Y52661D01*
Y53078D01*
X2444008Y52578D02*
Y53078D01*
X2443758Y52828D01*
X2444091D01*
X2041175Y52994D02*
X2041092Y53078D01*
X2040925D01*
X2040842Y52994D01*
Y52661D01*
X2040925Y52578D01*
X2041092D01*
X2041175Y52661D01*
X2041342Y52994D02*
X2041425Y53078D01*
X2041592D01*
X2041675Y52994D01*
Y52911D01*
X2041592Y52828D01*
X2041508D01*
X2041592D01*
X2041675Y52745D01*
Y52661D01*
X2041592Y52578D01*
X2041425D01*
X2041342Y52661D01*
X2041842Y52495D02*
X2042175D01*
X2042341Y53078D02*
X2042508D01*
X2042425D01*
Y52578D01*
X2042341D01*
X2042508D01*
X2042758D02*
Y53078D01*
X2042925Y52911D01*
X2043091Y53078D01*
Y52578D01*
X2043258Y53078D02*
Y52661D01*
X2043341Y52578D01*
X2043508D01*
X2043591Y52661D01*
Y53078D01*
X2043758Y52994D02*
X2043841Y53078D01*
X2044008D01*
X2044091Y52994D01*
Y52911D01*
X2044008Y52828D01*
X2043924D01*
X2044008D01*
X2044091Y52745D01*
Y52661D01*
X2044008Y52578D01*
X2043841D01*
X2043758Y52661D01*
X1441175Y52994D02*
X1441092Y53078D01*
X1440925D01*
X1440842Y52994D01*
Y52661D01*
X1440925Y52578D01*
X1441092D01*
X1441175Y52661D01*
X1441342Y52994D02*
X1441425Y53078D01*
X1441592D01*
X1441675Y52994D01*
Y52911D01*
X1441592Y52828D01*
X1441508D01*
X1441592D01*
X1441675Y52745D01*
Y52661D01*
X1441592Y52578D01*
X1441425D01*
X1441342Y52661D01*
X1441842Y52495D02*
X1442175D01*
X1442341Y53078D02*
X1442508D01*
X1442425D01*
Y52578D01*
X1442341D01*
X1442508D01*
X1442758D02*
Y53078D01*
X1442925Y52911D01*
X1443091Y53078D01*
Y52578D01*
X1443258Y53078D02*
Y52661D01*
X1443341Y52578D01*
X1443508D01*
X1443591Y52661D01*
Y53078D01*
X1444091Y52578D02*
X1443758D01*
X1444091Y52911D01*
Y52994D01*
X1444008Y53078D01*
X1443841D01*
X1443758Y52994D01*
X2433809Y52741D02*
X2433726Y52824D01*
X2433559D01*
X2433476Y52741D01*
Y52407D01*
X2433559Y52324D01*
X2433726D01*
X2433809Y52407D01*
X2434309Y52324D02*
X2433976D01*
X2434309Y52657D01*
Y52741D01*
X2434226Y52824D01*
X2434059D01*
X2433976Y52741D01*
X2434476Y52241D02*
X2434809D01*
X2434975Y52824D02*
X2435142D01*
X2435059D01*
Y52324D01*
X2434975D01*
X2435142D01*
X2435392D02*
Y52824D01*
X2435559Y52657D01*
X2435725Y52824D01*
Y52324D01*
X2435892Y52824D02*
Y52407D01*
X2435975Y52324D01*
X2436142D01*
X2436225Y52407D01*
Y52824D01*
X2436642Y52324D02*
Y52824D01*
X2436392Y52574D01*
X2436725D01*
X2033809Y52741D02*
X2033726Y52824D01*
X2033559D01*
X2033476Y52741D01*
Y52407D01*
X2033559Y52324D01*
X2033726D01*
X2033809Y52407D01*
X2034309Y52324D02*
X2033976D01*
X2034309Y52657D01*
Y52741D01*
X2034226Y52824D01*
X2034059D01*
X2033976Y52741D01*
X2034476Y52241D02*
X2034809D01*
X2034975Y52824D02*
X2035142D01*
X2035059D01*
Y52324D01*
X2034975D01*
X2035142D01*
X2035392D02*
Y52824D01*
X2035559Y52657D01*
X2035725Y52824D01*
Y52324D01*
X2035892Y52824D02*
Y52407D01*
X2035975Y52324D01*
X2036142D01*
X2036225Y52407D01*
Y52824D01*
X2036392Y52741D02*
X2036475Y52824D01*
X2036642D01*
X2036725Y52741D01*
Y52657D01*
X2036642Y52574D01*
X2036558D01*
X2036642D01*
X2036725Y52491D01*
Y52407D01*
X2036642Y52324D01*
X2036475D01*
X2036392Y52407D01*
X1433809Y52741D02*
X1433726Y52824D01*
X1433559D01*
X1433476Y52741D01*
Y52407D01*
X1433559Y52324D01*
X1433726D01*
X1433809Y52407D01*
X1434309Y52324D02*
X1433976D01*
X1434309Y52657D01*
Y52741D01*
X1434226Y52824D01*
X1434059D01*
X1433976Y52741D01*
X1434476Y52241D02*
X1434809D01*
X1434975Y52824D02*
X1435142D01*
X1435059D01*
Y52324D01*
X1434975D01*
X1435142D01*
X1435392D02*
Y52824D01*
X1435559Y52657D01*
X1435725Y52824D01*
Y52324D01*
X1435892Y52824D02*
Y52407D01*
X1435975Y52324D01*
X1436142D01*
X1436225Y52407D01*
Y52824D01*
X1436725Y52324D02*
X1436392D01*
X1436725Y52657D01*
Y52741D01*
X1436642Y52824D01*
X1436475D01*
X1436392Y52741D01*
X668782Y40378D02*
Y39961D01*
X668865Y39878D01*
X669032D01*
X669115Y39961D01*
Y40378D01*
X669615Y39878D02*
X669282D01*
X669615Y40211D01*
Y40294D01*
X669532Y40378D01*
X669365D01*
X669282Y40294D01*
X669782Y39795D02*
X670115D01*
X670282Y40378D02*
X670448D01*
X670365D01*
Y39878D01*
X670282D01*
X670448D01*
X670698D02*
Y40378D01*
X670865Y40211D01*
X671031Y40378D01*
Y39878D01*
X671198Y40378D02*
Y39961D01*
X671281Y39878D01*
X671448D01*
X671531Y39961D01*
Y40378D01*
X671698Y39878D02*
X671864D01*
X671781D01*
Y40378D01*
X671698Y40294D01*
X648795Y52994D02*
X648712Y53078D01*
X648545D01*
X648462Y52994D01*
Y52661D01*
X648545Y52578D01*
X648712D01*
X648795Y52661D01*
X649212Y52578D02*
Y53078D01*
X648962Y52828D01*
X649295D01*
X649462Y52495D02*
X649795D01*
X649961Y53078D02*
X650128D01*
X650045D01*
Y52578D01*
X649961D01*
X650128D01*
X650378D02*
Y53078D01*
X650545Y52911D01*
X650711Y53078D01*
Y52578D01*
X650878Y53078D02*
Y52661D01*
X650961Y52578D01*
X651128D01*
X651211Y52661D01*
Y53078D01*
X651378Y52578D02*
X651544D01*
X651461D01*
Y53078D01*
X651378Y52994D01*
X641175D02*
X641092Y53078D01*
X640925D01*
X640842Y52994D01*
Y52661D01*
X640925Y52578D01*
X641092D01*
X641175Y52661D01*
X641342Y52994D02*
X641425Y53078D01*
X641592D01*
X641675Y52994D01*
Y52911D01*
X641592Y52828D01*
X641508D01*
X641592D01*
X641675Y52745D01*
Y52661D01*
X641592Y52578D01*
X641425D01*
X641342Y52661D01*
X641842Y52495D02*
X642175D01*
X642342Y53078D02*
X642508D01*
X642425D01*
Y52578D01*
X642342D01*
X642508D01*
X642758D02*
Y53078D01*
X642925Y52911D01*
X643091Y53078D01*
Y52578D01*
X643258Y53078D02*
Y52661D01*
X643341Y52578D01*
X643508D01*
X643591Y52661D01*
Y53078D01*
X643758Y52578D02*
X643924D01*
X643841D01*
Y53078D01*
X643758Y52994D01*
X640080Y35292D02*
Y34875D01*
X640163Y34792D01*
X640330D01*
X640413Y34875D01*
Y35292D01*
X640580Y35208D02*
X640663Y35292D01*
X640830D01*
X640913Y35208D01*
Y35125D01*
X640830Y35042D01*
X640747D01*
X640830D01*
X640913Y34958D01*
Y34875D01*
X640830Y34792D01*
X640663D01*
X640580Y34875D01*
X641080Y34708D02*
X641413D01*
X641580Y35292D02*
X641746D01*
X641663D01*
Y34792D01*
X641580D01*
X641746D01*
X641996D02*
Y35292D01*
X642163Y35125D01*
X642329Y35292D01*
Y34792D01*
X642496Y35292D02*
Y34875D01*
X642579Y34792D01*
X642746D01*
X642829Y34875D01*
Y35292D01*
X642996Y34792D02*
X643162D01*
X643079D01*
Y35292D01*
X642996Y35208D01*
X633809Y52741D02*
X633726Y52824D01*
X633559D01*
X633476Y52741D01*
Y52407D01*
X633559Y52324D01*
X633726D01*
X633809Y52407D01*
X634309Y52324D02*
X633976D01*
X634309Y52657D01*
Y52741D01*
X634226Y52824D01*
X634059D01*
X633976Y52741D01*
X634476Y52241D02*
X634809D01*
X634976Y52824D02*
X635142D01*
X635059D01*
Y52324D01*
X634976D01*
X635142D01*
X635392D02*
Y52824D01*
X635559Y52657D01*
X635725Y52824D01*
Y52324D01*
X635892Y52824D02*
Y52407D01*
X635975Y52324D01*
X636142D01*
X636225Y52407D01*
Y52824D01*
X636392Y52324D02*
X636558D01*
X636475D01*
Y52824D01*
X636392Y52741D01*
X55626Y26154D02*
Y25737D01*
X55709Y25654D01*
X55876D01*
X55959Y25737D01*
Y26154D01*
X56126Y25654D02*
X56293D01*
X56209D01*
Y26154D01*
X56126Y26070D01*
X19891Y40124D02*
X19725D01*
X19808D01*
Y39707D01*
X19725Y39624D01*
X19641D01*
X19558Y39707D01*
X20058Y39624D02*
X20224D01*
X20141D01*
Y40124D01*
X20058Y40040D01*
X69929Y17435D02*
X69846Y17518D01*
X69679D01*
X69596Y17435D01*
Y17101D01*
X69679Y17018D01*
X69846D01*
X69929Y17101D01*
X70096Y17018D02*
X70262D01*
X70179D01*
Y17518D01*
X70096Y17435D01*
M02*
