G04*
G04 #@! TF.GenerationSoftware,Altium Limited,Altium Designer,25.6.2 (33)*
G04*
G04 Layer_Color=16711935*
%FSLAX44Y44*%
%MOMM*%
G71*
G04*
G04 #@! TF.SameCoordinates,666DC8B7-FBB2-4308-818D-5F341A9CC9FC*
G04*
G04*
G04 #@! TF.FilePolarity,Positive*
G04*
G01*
G75*
G36*
X62917Y79616D02*
X64737Y78862D01*
X66375Y77768D01*
X67768Y76375D01*
X68862Y74737D01*
X69616Y72917D01*
X70000Y70985D01*
Y70000D01*
Y10000D01*
Y9015D01*
X69616Y7083D01*
X68862Y5263D01*
X67768Y3625D01*
X66375Y2233D01*
X64737Y1138D01*
X62917Y384D01*
X60985Y0D01*
X9015D01*
X7083Y384D01*
X5263Y1138D01*
X3625Y2233D01*
X2233Y3625D01*
X1138Y5263D01*
X384Y7083D01*
X0Y9015D01*
Y10000D01*
Y70000D01*
Y70985D01*
X384Y72917D01*
X1138Y74737D01*
X2233Y76375D01*
X3625Y77768D01*
X5263Y78862D01*
X7083Y79616D01*
X9015Y80000D01*
X60985D01*
X62917Y79616D01*
D02*
G37*
G36*
X701340Y60000D02*
X702066Y58912D01*
X703912Y57066D01*
X706173Y55761D01*
X708695Y55086D01*
X710000Y55000D01*
X710000Y25000D01*
X708695Y24914D01*
X706173Y24239D01*
X703912Y22933D01*
X702066Y21087D01*
X701608Y20402D01*
X701340Y20000D01*
X701340Y20000D01*
X701340Y20000D01*
X628660Y20000D01*
X627934Y21087D01*
X626088Y22933D01*
X623827Y24239D01*
X621305Y24914D01*
X620000Y25000D01*
X620000Y25000D01*
Y55000D01*
X621305Y55086D01*
X623827Y55761D01*
X626088Y57066D01*
X627934Y58912D01*
X628660Y60000D01*
X628660Y60000D01*
X701340Y60000D01*
D02*
G37*
G36*
X1501340D02*
X1502066Y58912D01*
X1503912Y57066D01*
X1506173Y55761D01*
X1508695Y55086D01*
X1510000Y55000D01*
X1510000Y25000D01*
X1508695Y24914D01*
X1506173Y24239D01*
X1503912Y22933D01*
X1502066Y21087D01*
X1501608Y20402D01*
X1501340Y20000D01*
X1501340Y20000D01*
X1501340Y20000D01*
X1428660Y20000D01*
X1427934Y21087D01*
X1426088Y22933D01*
X1423827Y24239D01*
X1421305Y24914D01*
X1420000Y25000D01*
X1420000Y25000D01*
Y55000D01*
X1421305Y55086D01*
X1423827Y55761D01*
X1426088Y57066D01*
X1427934Y58912D01*
X1428660Y60000D01*
X1428660Y60000D01*
X1501340Y60000D01*
D02*
G37*
G36*
X2101340D02*
X2102066Y58912D01*
X2103912Y57066D01*
X2106173Y55761D01*
X2108695Y55086D01*
X2110000Y55000D01*
X2110000Y25000D01*
X2108695Y24914D01*
X2106173Y24239D01*
X2103912Y22933D01*
X2102066Y21087D01*
X2101608Y20402D01*
X2101340Y20000D01*
X2101340Y20000D01*
X2101340Y20000D01*
X2028660Y20000D01*
X2027934Y21087D01*
X2026088Y22933D01*
X2023827Y24239D01*
X2021305Y24914D01*
X2020000Y25000D01*
X2020000Y25000D01*
Y55000D01*
X2021305Y55086D01*
X2023827Y55761D01*
X2026088Y57066D01*
X2027934Y58912D01*
X2028660Y60000D01*
X2028660Y60000D01*
X2101340Y60000D01*
D02*
G37*
G36*
X2500000Y20000D02*
X2428660Y20000D01*
X2427934Y21088D01*
X2426088Y22933D01*
X2423827Y24239D01*
X2421305Y24914D01*
X2420000Y25000D01*
X2420000Y25000D01*
X2420000Y55000D01*
X2421305Y55086D01*
X2423827Y55761D01*
X2426088Y57067D01*
X2427934Y58913D01*
X2428661Y60001D01*
X2500000Y60001D01*
Y20000D01*
D02*
G37*
M02*
