G04*
G04 #@! TF.GenerationSoftware,Altium Limited,Altium Designer,25.2.1 (25)*
G04*
G04 Layer_Physical_Order=2*
G04 Layer_Color=16711680*
%FSLAX44Y44*%
%MOMM*%
G71*
G04*
G04 #@! TF.SameCoordinates,24B669B4-43E1-4125-8CB8-FB5C22A2B249*
G04*
G04*
G04 #@! TF.FilePolarity,Positive*
G04*
G01*
G75*
%ADD10C,0.1000*%
%ADD28C,1.0000*%
%ADD29C,0.3500*%
D10*
X2484000Y30000D02*
X2488000D01*
X2472000Y36000D02*
X2472212Y35788D01*
X2468000Y32000D02*
X2472000Y36000D01*
X2420000Y32000D02*
X2468000D01*
X2420000Y36000D02*
X2467000D01*
X2420000Y28000D02*
X2479000D01*
X2463000Y46000D02*
X2487000D01*
X2489000Y44000D01*
X2420000D02*
X2461000D01*
X2463000Y46000D01*
X2476000Y32000D02*
X2482000D01*
X2420000Y30000D02*
X2474000D01*
X2482000Y32000D02*
X2484000Y30000D01*
X2474000D02*
X2476000Y32000D01*
X2074384Y35788D02*
X2076172Y34000D01*
X2090000D01*
X2072000Y36000D02*
X2072212Y35788D01*
X2074384D01*
X2090000Y34000D02*
X2092000Y32000D01*
X2110000D01*
X2068000D02*
X2072000Y36000D01*
X2020000Y32000D02*
X2068000D01*
X2020000Y36000D02*
X2067000D01*
X2020000Y28000D02*
X2079000D01*
X2092000D02*
X2110000D01*
X2090000Y26000D02*
X2092000Y28000D01*
X2081000Y26000D02*
X2090000D01*
X2079000Y28000D02*
X2081000Y26000D01*
X2063000Y46000D02*
X2087000D01*
X2089000Y44000D01*
X2020000D02*
X2061000D01*
X2063000Y46000D01*
X2076000Y32000D02*
X2082000D01*
X2020000Y30000D02*
X2074000D01*
X2088000D02*
X2110000D01*
X2082000Y32000D02*
X2084000Y30000D01*
X2074000D02*
X2076000Y32000D01*
X2084000Y30000D02*
X2088000D01*
X1474384Y35788D02*
X1476172Y34000D01*
X1490000D01*
X1472000Y36000D02*
X1472212Y35788D01*
X1474384D01*
X1490000Y34000D02*
X1492000Y32000D01*
X1510000D01*
X1468000D02*
X1472000Y36000D01*
X1420000Y32000D02*
X1468000D01*
X1420000Y36000D02*
X1467000D01*
X1420000Y28000D02*
X1479000D01*
X1492000D02*
X1510000D01*
X1490000Y26000D02*
X1492000Y28000D01*
X1481000Y26000D02*
X1490000D01*
X1479000Y28000D02*
X1481000Y26000D01*
X1463000Y46000D02*
X1487000D01*
X1489000Y44000D01*
X1420000D02*
X1461000D01*
X1463000Y46000D01*
X1476000Y32000D02*
X1482000D01*
X1420000Y30000D02*
X1474000D01*
X1488000D02*
X1510000D01*
X1482000Y32000D02*
X1484000Y30000D01*
X1474000D02*
X1476000Y32000D01*
X1484000Y30000D02*
X1488000D01*
X90000Y50000D02*
X615000D01*
X90000Y48000D02*
X615000D01*
X90000Y46000D02*
X615000D01*
X90000Y44000D02*
X615000D01*
X90000Y42000D02*
X615000D01*
X90000Y40000D02*
X615000D01*
X90000Y38000D02*
X615000D01*
X90000Y36000D02*
X615000D01*
X90000Y32000D02*
X615000D01*
X90000Y30000D02*
X615000D01*
X90000Y28000D02*
X615000D01*
X620000Y30000D02*
X674000D01*
X676000Y32000D02*
X682000D01*
X674000Y30000D02*
X676000Y32000D01*
X684000Y30000D02*
X688000D01*
X682000Y32000D02*
X684000Y30000D01*
X681000Y26000D02*
X690000D01*
X620000Y28000D02*
X679000D01*
X681000Y26000D01*
X620000Y50000D02*
X658000D01*
X660000Y52000D02*
X692000D01*
X658000Y50000D02*
X660000Y52000D01*
X659000Y48000D02*
X661000Y50000D01*
X620000Y48000D02*
X659000D01*
X661000Y50000D02*
X691000D01*
X620000Y46000D02*
X660000D01*
X662000Y48000D02*
X690000D01*
X660000Y46000D02*
X662000Y48000D01*
X672212Y35788D02*
X674384D01*
X620000Y32000D02*
X668000D01*
X672000Y36000D01*
X692000Y32000D02*
X710000D01*
X663000Y46000D02*
X687000D01*
X620000Y44000D02*
X661000D01*
X620000Y36000D02*
X667000D01*
X672000D02*
X672212Y35788D01*
X674384D02*
X676172Y34000D01*
X661000Y44000D02*
X663000Y46000D01*
X676172Y34000D02*
X690000D01*
X687000Y46000D02*
X689000Y44000D01*
X690000Y34000D02*
X692000Y32000D01*
X690000Y26000D02*
X692000Y28000D01*
X620000Y42000D02*
X662000D01*
X664000Y44000D02*
X675000D01*
X662000Y42000D02*
X664000Y44000D01*
X665000Y42000D02*
X674000D01*
X620000Y40000D02*
X663000D01*
X665000Y42000D01*
X666000Y40000D02*
X673000D01*
X620000Y38000D02*
X664000D01*
X666000Y40000D01*
X692000Y28000D02*
X710000D01*
X688000Y30000D02*
X710000D01*
X677000Y36000D02*
X710000D01*
X673000Y40000D02*
X677000Y36000D01*
X674000Y42000D02*
X678000Y38000D01*
X710000D01*
X679000Y40000D02*
X710000D01*
X675000Y44000D02*
X679000Y40000D01*
X696000Y48000D02*
X710000D01*
X692000Y52000D02*
X696000Y48000D01*
X695000Y46000D02*
X710000D01*
X691000Y50000D02*
X695000Y46000D01*
X694000Y44000D02*
X710000D01*
X690000Y48000D02*
X694000Y44000D01*
D28*
X2440000Y70000D02*
D03*
X2490000D02*
D03*
X2440000Y10000D02*
D03*
X2490000D02*
D03*
X2040000Y70000D02*
D03*
X2090000D02*
D03*
X2040000Y10000D02*
D03*
X2090000D02*
D03*
X1440000Y70000D02*
D03*
X1490000D02*
D03*
X1440000Y10000D02*
D03*
X1490000D02*
D03*
X690000D02*
D03*
X640000D02*
D03*
X690000Y70000D02*
D03*
X640000D02*
D03*
D29*
X2472000Y36000D02*
D03*
X2467000D02*
D03*
X2479000Y28000D02*
D03*
X2489000Y44000D02*
D03*
X2488000Y30000D02*
D03*
X2072000Y36000D02*
D03*
X2067000D02*
D03*
X2079000Y28000D02*
D03*
X2089000Y44000D02*
D03*
X2088000Y30000D02*
D03*
X1472000Y36000D02*
D03*
X1467000D02*
D03*
X1479000Y28000D02*
D03*
X1489000Y44000D02*
D03*
X1488000Y30000D02*
D03*
X679000Y28000D02*
D03*
X672000Y36000D02*
D03*
X688000Y30000D02*
D03*
X667000Y36000D02*
D03*
X689000Y44000D02*
D03*
M02*
