G04*
G04 #@! TF.GenerationSoftware,Altium Limited,Altium Designer,25.1.2 (22)*
G04*
G04 Layer_Color=65535*
%FSLAX44Y44*%
%MOMM*%
G71*
G04*
G04 #@! TF.SameCoordinates,82F444F8-DCFF-400D-ACCD-D4CDA30F30E1*
G04*
G04*
G04 #@! TF.FilePolarity,Positive*
G04*
G01*
G75*
%ADD10C,0.1000*%
%ADD11C,0.2540*%
D10*
X191000Y40500D02*
G03*
X191000Y40500I-500J0D01*
G01*
D11*
X17269Y108453D02*
X12190D01*
X14729D01*
Y95757D01*
X12190Y93218D01*
X9651D01*
X7112Y95757D01*
X22347Y93218D02*
X27425D01*
X24886D01*
Y108453D01*
X22347Y105914D01*
X192024Y81275D02*
Y68579D01*
X194563Y66040D01*
X199641D01*
X202181Y68579D01*
Y81275D01*
X207259Y66040D02*
X212337D01*
X209798D01*
Y81275D01*
X207259Y78736D01*
X175257Y134870D02*
X172717Y137409D01*
X167639D01*
X165100Y134870D01*
Y124713D01*
X167639Y122174D01*
X172717D01*
X175257Y124713D01*
X180335Y122174D02*
X185413D01*
X182874D01*
Y137409D01*
X180335Y134870D01*
X228089Y77720D02*
X225550Y80259D01*
X220471D01*
X217932Y77720D01*
Y67563D01*
X220471Y65024D01*
X225550D01*
X228089Y67563D01*
X243324Y65024D02*
X233167D01*
X243324Y75181D01*
Y77720D01*
X240785Y80259D01*
X235706D01*
X233167Y77720D01*
X85087Y134870D02*
X82548Y137409D01*
X77469D01*
X74930Y134870D01*
Y124713D01*
X77469Y122174D01*
X82548D01*
X85087Y124713D01*
X90165Y134870D02*
X92704Y137409D01*
X97783D01*
X100322Y134870D01*
Y132331D01*
X97783Y129791D01*
X95243D01*
X97783D01*
X100322Y127252D01*
Y124713D01*
X97783Y122174D01*
X92704D01*
X90165Y124713D01*
M02*
