G04*
G04 #@! TF.GenerationSoftware,Altium Limited,Altium Designer,25.1.2 (22)*
G04*
G04 Layer_Color=8388736*
%FSLAX44Y44*%
%MOMM*%
G71*
G04*
G04 #@! TF.SameCoordinates,82F444F8-DCFF-400D-ACCD-D4CDA30F30E1*
G04*
G04*
G04 #@! TF.FilePolarity,Negative*
G04*
G01*
G75*
%ADD17R,0.6782X0.4232*%
%ADD18R,0.8532X0.5232*%
%ADD19R,0.7532X0.7532*%
%ADD20R,0.6032X0.9032*%
%ADD21R,0.9032X0.6032*%
D17*
X7880Y52000D02*
D03*
Y48000D02*
D03*
Y56000D02*
D03*
Y44000D02*
D03*
Y68000D02*
D03*
Y64000D02*
D03*
Y60000D02*
D03*
X32120Y32000D02*
D03*
Y36000D02*
D03*
Y40000D02*
D03*
Y44000D02*
D03*
Y48000D02*
D03*
Y52000D02*
D03*
Y56000D02*
D03*
Y60000D02*
D03*
Y64000D02*
D03*
Y68000D02*
D03*
X7880Y32000D02*
D03*
Y36000D02*
D03*
Y40000D02*
D03*
D18*
X9150Y77500D02*
D03*
Y22500D02*
D03*
X30850D02*
D03*
Y77500D02*
D03*
D19*
X195250Y54750D02*
D03*
X204750D02*
D03*
Y45250D02*
D03*
X195250D02*
D03*
D20*
X174500Y110000D02*
D03*
X165500D02*
D03*
X84501Y110000D02*
D03*
X75501D02*
D03*
D21*
X220000Y54500D02*
D03*
Y45500D02*
D03*
M02*
