G04 Output by ViewMate Deluxe V11.24.15  PentaLogix*
G04 Sat Feb  8 12:17:42 2025*
%IPPOS*%
%FSLAX25Y25*%
%MOIN*%
%ADD10C,0.003937*%

%LPD*%
X0Y0D2*G36*X51974Y16709D2*G1X51952D1*X51861Y16704*X51775Y16695*X51694Y16675*X51615Y16653*X51544Y16626*X51475Y16593*X51413Y16561*X51357Y16527*X51305Y16493*X51258Y16461*X51187Y16402*X51162Y16380*X51128Y16345*X51069Y16274*X51020Y16195*X50975Y16114*X50939Y16028*X50906Y15939*X50880Y15853*X50858Y15765*X50840Y15684*X50825Y15602*X50815Y15528*X50808Y15462*X50806Y15432*X50803Y15406*X50801Y15381*Y15339*X50798Y15322*Y15292*X50801Y15191*X50808Y15095*X50821Y15002*X50838Y14916*X50877Y14758*X50902Y14689*X50924Y14626*X50948Y14569*X50971Y14517*X50990Y14476*X51027Y14409*X51039Y14389*X51047Y14377*X51049Y14372*X51081Y14330*X51113Y14291*X51145Y14254*X51180Y14220*X51251Y14156*X51322Y14104*X51396Y14057*X51467Y14021*X51539Y13991*X51608Y13966*X51674Y13947*X51733Y13932*X51787Y13922*X51871Y13910*X51888*X51900Y13907*X51925*X51972Y13910*X52016Y13912*X52102Y13927*X52183Y13949*X52262Y13976*X52334Y14011*X52402Y14047*X52464Y14087*X52520Y14129*X52572Y14171*X52616Y14210*X52653Y14247*X52685Y14281*X52712Y14308*X52730Y14330*X52739Y14345*X52744Y14350*Y13907*X52742Y13865*Y13831*X52737Y13767*X52730Y13696*X52724Y13676*X52722Y13661*X52715Y13629*Y13624*X52712Y13619*X52693Y13575*X52646Y13506*X52621Y13482*X52582Y13447*X52567Y13437*X52540Y13422*X52508Y13408*X52441Y13388*X52370Y13373*X52301Y13361*X52269Y13359*X52210Y13354*X52188*X52169Y13351*X52102*X52065Y13354*X51997Y13363*X51969Y13369*X51917Y13383*X51895Y13391*X51878Y13396*X51861Y13403*X51849Y13410*X51836Y13415*X51822Y13425*X51819Y13428*X51817*X51790Y13452*X51770Y13482*X51753Y13514*X51731Y13578*X51726Y13602*X51721Y13619*Y13627*X50892Y13728*X50889Y13693*Y13639*X50892Y13572*X50902Y13509*X50916Y13447*X50934Y13391*X50956Y13337*X50980Y13287*X51034Y13199*X51061Y13162*X51089Y13130*X51113Y13100*X51135Y13078*X51152Y13059*X51167Y13044*X51180Y13034*X51239Y12992*X51308Y12955*X51379Y12923*X51458Y12896*X51539Y12874*X51622Y12854*X51704Y12837*X51785Y12825*X51863Y12815*X51935Y12808*X52001Y12803*X52031Y12800*X52058*X52082Y12798*X52104*X52124Y12795*X52240*X52304Y12798*X52476Y12813*X52572Y12827*X52653Y12842*X52756Y12867*X52771Y12872*X52781Y12874*X52867Y12906*X52906Y12923*X52978Y12958*X53037Y12992*X53064Y13009*X53086Y13026*X53108Y13041*X53125Y13054*X53138Y13066*X53158Y13083*X53162Y13085*X53217Y13145*X53261Y13206*X53300Y13268*X53332Y13329*X53345Y13356*X53357Y13383*X53367Y13408*X53374Y13428*X53389Y13465*Y13467*X53404Y13514*X53416Y13565*X53426Y13622*X53435Y13681*X53450Y13799*X53460Y13917*X53462Y13971*X53467Y14070*X53470Y14109*Y16645*X52791*Y16261*X52759Y16303*X52695Y16377*X52660Y16409*X52592Y16468*X52520Y16520*X52451Y16564*X52380Y16601*X52314Y16630*X52247Y16653*X52186Y16672*X52132Y16685*X52080Y16695*X52001Y16707*X51986*X51974Y16709*G37*G36*X78193Y17703D2*G1X78168D1*X78067Y17698*X77974Y17686*X77885Y17669*X77804Y17644*X77728Y17615*X77657Y17580*X77593Y17546*X77534Y17511*X77437Y17440*X77401Y17405*X77369Y17378*X77344Y17354*X77327Y17334*X77315Y17322*X77312Y17317*X77278Y17270*X77246Y17223*X77216Y17169*X77189Y17115*X77140Y17000*X77098Y16879*X77061Y16751*X77032Y16623*X77007Y16498*X76987Y16372*X76973Y16254*X76965Y16198*X76956Y16089*X76953Y16043*X76948Y15996*X76946Y15954*Y15915*X76943Y15880*Y15851*X76941Y15826*Y15678*X76946Y15583*X76948Y15491*X76963Y15317*X76992Y15083*X77005Y15012*X77032Y14882*X77061Y14766*X77093Y14663*X77125Y14571*X77140Y14530*X77157Y14493*X77172Y14458*X77187Y14426*X77199Y14397*X77214Y14372*X77226Y14350*X77236Y14330*X77246Y14313*X77256Y14298*X77263Y14286*X77270Y14279*X77273Y14271*X77278Y14269*Y14267*X77310Y14227*X77344Y14193*X77413Y14126*X77487Y14070*X77561Y14023*X77634Y13981*X77708Y13947*X77782Y13920*X77851Y13897*X77915Y13878*X77976Y13865*X78030Y13856*X78077Y13851*X78114Y13846*X78132*X78144Y13843*X78168*X78269Y13848*X78363Y13861*X78451Y13880*X78532Y13905*X78611Y13932*X78680Y13966*X78744Y14001*X78803Y14038*X78855Y14072*X78899Y14106*X78968Y14171*X79009Y14212*X79022Y14224*X79024Y14230*X79059Y14276*X79091Y14323*X79120Y14374*X79147Y14431*X79197Y14545*X79238Y14667*X79275Y14795*X79305Y14923*X79329Y15051*X79349Y15177*X79371Y15354*X79381Y15459*X79384Y15509*X79391Y15597*Y15634*X79393Y15669*Y15700*X79396Y15725*Y15871*X79381Y16146*X79352Y16392*X79339Y16466*X79295Y16670*X79280Y16732*X79263Y16790*X79246Y16845*X79211Y16945*X79177Y17034*X79159Y17071*X79128Y17142*X79113Y17172*X79084Y17223*X79071Y17243*X79061Y17263*X79051Y17278*X79041Y17290*X79037Y17300*X79032Y17307*X79027Y17309*Y17312*X78965Y17381*X78901Y17442*X78832Y17494*X78761Y17538*X78690Y17575*X78619Y17607*X78550Y17634*X78481Y17654*X78417Y17671*X78358Y17684*X78259Y17698*X78220Y17700*X78205*X78193Y17703*G37*G36*X48493Y17615D2*G1X47765Y17191D1*Y16645*X47433*Y16067*X47765*Y14741*X47767Y14685*X47770Y14633*Y14586*X47772Y14545*X47782Y14424*X47785Y14404*Y14389*X47787Y14377*X47790Y14370*Y14362*X47802Y14298*X47817Y14244*X47834Y14195*X47866Y14121*X47878Y14099*X47888Y14084*X47891Y14082*Y14080*X47922Y14043*X47957Y14011*X47997Y13981*X48033Y13956*X48107Y13917*X48119Y13910*X48122*X48184Y13887*X48245Y13873*X48304Y13861*X48358Y13853*X48383Y13851*X48405Y13848*X48427*X48444Y13846*X48476*X48535Y13848*X48592Y13851*X48648Y13856*X48700Y13863*X48752Y13871*X48798Y13880*X48843Y13890*X48919Y13910*X48953Y13917*X48980Y13927*X49005Y13934*X49037Y13947*X49047Y13952*X49049*X48985Y14515*X48919Y14493*X48860Y14476*X48811Y14463*X48737Y14451*X48715Y14446*X48695*X48671Y14448*X48646Y14451*X48624Y14456*X48606Y14463*X48582Y14476*X48574Y14478*X48555Y14495*X48530Y14525*X48523Y14539*X48510Y14561*X48500Y14628*Y14658*X48496Y14721*Y14822*X48493Y14854*Y16067*X48988*Y16645*X48493*Y17615*G37*G36*X38439Y17688D2*G1X35433D1*Y17048*X36555*Y13907*X37317*Y17048*X38439*Y17688*G37*G36*X43760Y16645D2*G1X43037D1*Y13907*X43760*Y16645*G37*G36*X50215Y16645D2*G1X49492D1*Y13907*X50215*Y16645*G37*G36*X56402Y17688D2*G1X55637D1*Y13907*X56402*Y17688*G37*G36*X74390Y17703D2*G1X73802D1*X73777Y17639*X73745Y17578*X73713Y17519*X73639Y17410*X73602Y17361*X73563Y17314*X73526Y17272*X73489Y17233*X73425Y17169*X73359Y17110*X73349Y17100*X73344Y17098*X73283Y17051*X73221Y17009*X73165Y16970*X73108Y16933*X73054Y16901*X73002Y16874*X72956Y16847*X72911Y16825*X72872Y16805*X72835Y16790*X72803Y16776*X72776Y16766*X72756Y16756*X72739Y16751*X72729Y16746*X72727*Y16089*X72828Y16124*X72924Y16163*X73015Y16205*X73101Y16249*X73261Y16340*X73398Y16431*X73509Y16510*X73593Y16576*X73624Y16604*X73647Y16621*X73664Y16638*Y13907*X74390*Y17703*G37*G36*X76353Y14630D2*G1X75630D1*Y13907*X76353*Y14630*G37*G36*X64542Y17688D2*G1X63777D1*Y15513*X63775Y15440*Y15369*X63770Y15248*X63767Y15194*X63760Y15105*X63758Y15068*X63753Y15039*X63748Y14990*X63745Y14975*Y14963*X63735Y14918*X63726Y14884*X63698Y14822*X63667Y14766*X63632Y14719*X63615Y14699*X63600Y14680*X63573Y14653*X63561Y14643*X63546Y14628*X63514Y14606*X63477Y14584*X63440Y14567*X63401Y14552*X63320Y14527*X63239Y14512*X63202Y14508*X63167Y14502*X63111Y14498*X63089Y14495*X63056*X62943Y14500*X62892Y14508*X62843Y14517*X62798Y14527*X62756Y14539*X62719Y14552*X62685Y14567*X62653Y14579*X62628Y14591*X62587Y14613*X62562Y14630*X62555Y14633*X62552Y14635*X62488Y14692*X62461Y14721*X62439Y14754*X62417Y14783*X62397Y14815*X62365Y14874*X62353Y14901*X62343Y14926*X62336Y14948*X62328Y14967*X62323Y14985*X62321Y14997*X62319Y15004*Y15007*X62313Y15039*X62304Y15120*X62301Y15167*X62299Y15219*X62296Y15270*X62294Y15378*X62291Y15430*Y15477*X62289Y15521*Y17688*X61526*Y15556*X61529Y15447*X61543Y15167*X61551Y15088*X61556Y15017*X61563Y14953*X61588Y14773*X61593Y14746*X61600Y14717*Y14711*X61610Y14670*X61654Y14554*X61708Y14451*X61726Y14419*X61743Y14392*X61775Y14345*X61787Y14325*X61807Y14301*X61812Y14293*X61846Y14254*X61881Y14220*X61952Y14156*X62026Y14102*X62097Y14055*X62129Y14035*X62159Y14015*X62188Y14001*X62230Y13978*X62245Y13971*X62254Y13969*X62257Y13966*X62313Y13944*X62372Y13927*X62437Y13910*X62503Y13895*X62641Y13873*X62707Y13865*X62774Y13858*X62835Y13853*X62892Y13851*X62990Y13846*X63027Y13843*X63078*X63239Y13848*X63312Y13853*X63381Y13861*X63507Y13880*X63612Y13900*X63657Y13910*X63696Y13920*X63728Y13929*X63758Y13939*X63777Y13947*X63795Y13952*X63804Y13956*X63807*X63858Y13978*X63952Y14028*X63994Y14052*X64033Y14080*X64070Y14104*X64159Y14175*X64203Y14217*X64220Y14232*X64232Y14247*X64242Y14257*X64250Y14264*X64309Y14340*X64355Y14421*X64395Y14500*X64427Y14574*X64451Y14640*X64471Y14711*X64476Y14726*X64478Y14736*Y14739*X64491Y14795*X64500Y14862*X64508Y14933*X64522Y15088*X64528Y15167*X64530Y15248*X64535Y15327*X64537Y15400*X64540Y15472*Y15536*X64542Y15590*Y17688*G37*G36*X72245Y16645D2*G1X71499D1*X70978Y15248*X70963Y15204*X70934Y15125*X70924Y15088*X70901Y15022*X70899Y15019*X70897Y15004*X70891Y14990*X70882Y14955*X70869Y14916*X70857Y14876*X70835Y14810*X70830Y14798*X70828Y14788*X70825Y14783*X70675Y15248*X70158Y16645*X69398*X70503Y13907*X71155*X72245Y16645*G37*G36*X42653Y16645D2*G1X41940D1*X41416Y14849*X40958Y16645*X40259*X39787Y14849*X39273Y16645*X38570*X39435Y13907*X40141*X40604Y15669*X41076Y13907*X41775*X42653Y16645*G37*G36*X60774Y17688D2*G1X59627D1*X58948Y15108*X58262Y17688*X57121*Y13907*X57829*Y16884*X58577Y13907*X59312*X60063Y16884*Y13907*X60774*Y17688*G37*G36*X66395Y16709D2*G1X66341D1*X66232Y16707*X66134Y16699*X66041Y16687*X65954Y16672*X65876Y16653*X65804Y16633*X65740Y16611*X65681Y16589*X65588Y16542*X65521Y16505*X65480Y16476*X65467Y16466*X65418Y16419*X65374Y16370*X65337Y16321*X65305Y16269*X65278Y16220*X65256Y16171*X65236Y16121*X65221Y16074*X65202Y15993*X65197Y15956*X65192Y15927*X65187Y15883*Y15868*X65192Y15797*X65202Y15728*X65216Y15664*X65239Y15605*X65263Y15548*X65290Y15499*X65320Y15452*X65349Y15410*X65379Y15373*X65408Y15341*X65435Y15314*X65482Y15272*X65497Y15260*X65509Y15253*X65511Y15250*X65536Y15235*X65563Y15221*X65593Y15204*X65661Y15174*X65785Y15128*X65873Y15098*X65967Y15069*X66060Y15039*X66247Y14990*X66333Y14965*X66412Y14945*X66449Y14938*X66483Y14928*X66513Y14921*X66540Y14916*X66565Y14908*X66587Y14906*X66601Y14901*X66621Y14896*X66658Y14889*X66687Y14879*X66717Y14872*X66741Y14862*X66784Y14847*X66840Y14820*X66865Y14803*X66884Y14778*X66897Y14756*X66906Y14734*X66911Y14711*X66916Y14695*X66919Y14680*Y14665*X66914Y14623*X66904Y14584*X66889Y14552*X66872Y14522*X66828Y14473*X66823Y14471*X66796Y14453*X66764Y14436*X66697Y14411*X66626Y14392*X66557Y14380*X66525Y14377*X66496Y14372*X66469Y14370*X66447*X66427Y14367*X66400*X66353Y14370*X66309Y14372*X66267Y14377*X66230Y14385*X66193Y14392*X66132Y14411*X66104Y14421*X66080Y14431*X66060Y14441*X66043Y14451*X66028Y14458*X66008Y14471*X66004Y14476*X66001*X65952Y14522*X65913Y14571*X65880Y14626*X65856Y14677*X65836Y14724*X65819Y14778*X65817Y14788*X65814Y14795*Y14798*X65086Y14687*X65108Y14616*X65133Y14549*X65162Y14485*X65194Y14426*X65229Y14372*X65265Y14321*X65300Y14276*X65337Y14234*X65403Y14163*X65433Y14136*X65482Y14097*X65497Y14082*X65509Y14074*X65511Y14072*X65576Y14033*X65645Y13998*X65716Y13966*X65789Y13942*X65863Y13920*X65937Y13900*X66008Y13885*X66144Y13865*X66205Y13858*X66306Y13848*X66345*X66363Y13846*X66400*X66510Y13848*X66616Y13858*X66715Y13871*X66806Y13887*X66963Y13932*X67034Y13956*X67096Y13981*X67150Y14006*X67197Y14030*X67271Y14074*X67315Y14104*X67330Y14116*X67386Y14168*X67433Y14222*X67474Y14276*X67511Y14333*X67541Y14387*X67568Y14441*X67588Y14493*X67605Y14542*X67627Y14630*X67635Y14667*X67642Y14726*X67645Y14746*Y14763*X67642Y14827*X67635Y14886*X67625Y14941*X67610Y14992*X67593Y15041*X67573Y15085*X67553Y15125*X67531Y15162*X67489Y15223*X67470Y15245*X67452Y15268*X67440Y15282*X67428Y15292*X67421Y15300*X67371Y15337*X67317Y15371*X67258Y15403*X67194Y15432*X67130Y15462*X67061Y15489*X66995Y15513*X66928Y15536*X66865Y15556*X66806Y15573*X66751Y15587*X66702Y15602*X66663Y15612*X66648Y15615*X66623Y15622*X66616*X66611Y15624*X66609*X66557Y15637*X66505Y15649*X66459Y15661*X66372Y15681*X66259Y15713*X66195Y15730*X66095Y15762*X65994Y15799*X65945Y15821*X65937Y15826*X65935Y15828*X65932*X65908Y15851*X65890Y15873*X65878Y15893*X65861Y15947*Y15959*X65863Y15991*X65873Y16021*X65885Y16045*X65917Y16084*X65930Y16097*X65942Y16106*X65967Y16121*X65996Y16134*X66058Y16153*X66126Y16168*X66193Y16178*X66225Y16180*X66254Y16183*X66282Y16185*X66306Y16188*X66395*X66434Y16185*X66503Y16175*X66535Y16168*X66562Y16161*X66613Y16146*X66680Y16116*X66690Y16109*X66697Y16106*X66700Y16102*X66702*X66744Y16067*X66781Y16028*X66810Y15986*X66833Y15947*X66850Y15909*X66859Y15883*X66865Y15871*X66867Y15863*X66869Y15858*Y15856*X67553Y15984*X67531Y16050*X67507Y16109*X67480Y16168*X67421Y16269*X67389Y16313*X67324Y16389*X67295Y16421*X67268Y16448*X67202Y16505*X67187Y16517*X67177Y16522*X67174Y16525*X67121Y16557*X67061Y16586*X66997Y16611*X66928Y16630*X66859Y16650*X66791Y16665*X66722Y16677*X66656Y16687*X66591Y16695*X66532Y16699*X66478Y16704*X66395Y16709*G37*G36*X46100Y16709D2*G1X46075D1*X46026Y16707*X45974Y16704*X45881Y16689*X45790Y16667*X45704Y16638*X45625Y16601*X45551Y16561*X45482Y16520*X45421Y16478*X45364Y16434*X45315Y16392*X45273Y16352*X45236Y16318*X45209Y16286*X45189Y16264*X45177Y16249*X45172Y16247*Y16645*X44501*Y13907*X45224*Y15231*X45226Y15307*X45229Y15376*X45231Y15440*X45241Y15548*X45246Y15595*X45256Y15669*X45266Y15723*X45271Y15743*X45273Y15757*X45276Y15769*X45278Y15774*Y15777*X45303Y15838*X45335Y15890*X45369Y15937*X45404Y15976*X45435Y16008*X45460Y16030*X45470Y16040*X45477Y16045*X45482Y16050*X45485*X45541Y16084*X45600Y16109*X45659Y16129*X45711Y16141*X45775Y16151*X45792*X45807Y16153*X45824*X45876Y16151*X45925Y16141*X45967Y16131*X46033Y16104*X46056Y16092*X46068Y16082*X46072Y16080*X46109Y16050*X46141Y16018*X46169Y15984*X46206Y15922*X46215Y15900*X46223Y15883*X46225Y15880*Y15878*X46232Y15851*X46240Y15816*X46247Y15777*X46257Y15688*X46259Y15639*X46267Y15543*Y15497*X46269Y15452*Y15410*X46272Y15376*Y13907*X46998*Y15669*X46993Y15772*X46990Y15819*X46988Y15863*X46985Y15902*X46980Y15939*X46978Y15971*X46973Y16001*X46968Y16025*X46961Y16080*X46956Y16094*Y16097*X46939Y16158*X46916Y16215*X46894Y16266*X46870Y16311*X46848Y16348*X46838Y16362*X46830Y16377*X46818Y16394*X46813Y16399*X46771Y16448*X46724Y16490*X46673Y16530*X46626Y16561*X46582Y16586*X46562Y16596*X46545Y16606*X46533Y16611*X46523Y16616*X46515Y16621*X46513*X46437Y16650*X46360Y16672*X46289Y16687*X46220Y16699*X46191Y16702*X46161Y16704*X46137Y16707*X46117*X46100Y16709*G37*G36*X43760Y17688D2*G1X43037D1*Y17017*X43760*Y17688*G37*G36*X50215Y17688D2*G1X49492D1*Y17017*X50215*Y17688*G37*
%LPC*%
X0Y0D2*G36*X52188Y16151D2*G1X52127Y16153D1*X52114Y16151*X52095*X52072Y16146*X52048Y16143*X52019Y16136*X51986Y16129*X51954Y16116*X51920Y16104*X51883Y16087*X51846Y16067*X51812Y16045*X51775Y16015*X51741Y15986*X51706Y15947*X51694Y15927*X51682Y15912*X51669Y15890*X51657Y15863*X51640Y15834*X51625Y15797*X51610Y15755*X51595Y15710*X51580Y15659*X51568Y15605*X51556Y15543*X51548Y15479*X51544Y15410*X51541Y15329*Y15292*X51544Y15263*X51546Y15226*X51556Y15140*X51563Y15091*X51583Y14985*X51595Y14933*X51613Y14879*X51632Y14827*X51654Y14781*X51679Y14734*X51708Y14695*X51716Y14687*X51726Y14675*X51738Y14663*X51775Y14630*X51800Y14613*X51824Y14594*X51854Y14574*X51885Y14557*X51920Y14539*X51957Y14525*X51997Y14512*X52038Y14502*X52080Y14495*X52127Y14493*X52139*X52151Y14495*X52171*X52193Y14500*X52220Y14502*X52250Y14510*X52316Y14530*X52353Y14545*X52390Y14559*X52427Y14579*X52466Y14604*X52503Y14630*X52540Y14663*X52577Y14702*X52582Y14709*X52592Y14721*X52604Y14739*X52616Y14761*X52634Y14785*X52651Y14817*X52668Y14854*X52685Y14894*X52700Y14941*X52717Y14990*X52730Y15046*X52742Y15105*X52752Y15172*X52756Y15241*X52759Y15319*Y15356*X52756Y15383*X52754Y15420*X52744Y15504*X52737Y15553*X52727Y15605*X52702Y15708*X52685Y15759*X52641Y15861*X52614Y15905*X52582Y15947*X52579Y15949*X52574Y15956*X52565Y15966*X52550Y15978*X52533Y15996*X52513Y16013*X52488Y16030*X52461Y16050*X52432Y16070*X52397Y16087*X52360Y16106*X52321Y16121*X52279Y16134*X52235Y16143*X52188Y16151*G37*G36*X78168Y17103D2*G1X78146D1*X78121Y17098*X78089Y17093*X78052Y17083*X78013Y17069*X77971Y17046*X77932Y17019*X77915Y17002*X77885Y16967*X77876Y16950*X77861Y16931*X77848Y16908*X77836Y16884*X77821Y16857*X77797Y16795*X77784Y16758*X77772Y16719*X77770Y16707*X77765Y16689*X77760Y16665*X77755Y16633*X77750Y16594*X77735Y16495*X77728Y16434*X77723Y16365*X77715Y16286*X77701Y16003*X77698Y15893*Y15664*X77701Y15609*Y15548*X77703Y15479*X77706Y15408*X77711Y15332*X77715Y15255*X77721Y15179*X77726Y15105*X77743Y14967*X77752Y14908*X77765Y14857*Y14854*X77777Y14817*X77784Y14798*X77792Y14773*X77811Y14721*X77836Y14667*X77880Y14586*X77915Y14542*X77939Y14522*X77952Y14512*X78001Y14485*X78035Y14468*X78075Y14456*X78119Y14446*X78168Y14443*X78180*X78190Y14446*X78215Y14448*X78247Y14453*X78284Y14463*X78321Y14478*X78363Y14500*X78402Y14527*X78419Y14545*X78439Y14564*X78448Y14579*X78461Y14596*X78473Y14616*X78485Y14638*X78500Y14663*X78513Y14689*X78525Y14719*X78540Y14754*X78552Y14788*X78562Y14827*Y14830*X78569Y14857*X78574Y14882*X78594Y14997*X78601Y15049*X78606Y15110*X78621Y15258*X78631Y15437*X78635Y15541*X78638Y15651*Y15880*X78635Y15934*Y15996*X78631Y16136*X78616Y16362*X78609Y16436*X78601Y16508*X78582Y16633*X78569Y16685*X78567Y16695*X78562Y16709*X78557Y16726*X78542Y16768*X78522Y16820*X78498Y16876*X78471Y16931*X78454Y16958*X78419Y17002*X78400Y17019*X78395Y17022*X78382Y17032*X78360Y17046*X78333Y17061*X78298Y17076*X78259Y17091*X78215Y17100*X78168Y17103*G37*
%LPD*%
X0Y0D2*D10*G75*G1X978937Y10630D2*G2X978937Y10630I-197J0D1*G1X821457Y10630D2*G2X821457Y10630I-197J0D1*G1X585236Y10630D2*G2X585236Y10630I-197J0D1*G1X270276Y10630D2*G2X270276Y10630I-197J0D1*G1X958071Y17520D2*G2X958071Y17520I-197J0D1*G1X800591Y17520D2*G2X800591Y17520I-197J0D1*G1X564370Y17520D2*G2X564370Y17520I-197J0D1*G1X249409Y17520D2*G2X249409Y17520I-196J0D1*G1X17520Y8465D2*G2X17520Y8465I-197J0D1*G1X0Y0D2*M02*