G04*
G04 #@! TF.GenerationSoftware,Altium Limited,Altium Designer,25.2.1 (25)*
G04*
G04 Layer_Physical_Order=2*
G04 Layer_Color=16711680*
%FSLAX44Y44*%
%MOMM*%
G71*
G04*
G04 #@! TF.SameCoordinates,741BC239-CE25-488D-92A1-4661A09ACA53*
G04*
G04*
G04 #@! TF.FilePolarity,Positive*
G04*
G01*
G75*
%ADD10C,0.1000*%
%ADD33C,1.0000*%
%ADD34C,0.3500*%
G36*
X12250Y38547D02*
Y37453D01*
X12369Y37166D01*
X12091Y36750D01*
X11953D01*
X10942Y36331D01*
X10169Y35558D01*
X9750Y34547D01*
Y33453D01*
X10169Y32442D01*
X10942Y31669D01*
X11953Y31250D01*
X12625D01*
X23024Y20852D01*
X24172Y20376D01*
X33657D01*
X34805Y20852D01*
X40329Y26376D01*
X70000D01*
Y21269D01*
X69736Y20926D01*
X68552Y18067D01*
X68149Y15000D01*
X68216D01*
Y10000D01*
X68216Y10000D01*
X68193D01*
X67914Y7879D01*
X67095Y5903D01*
X65793Y4207D01*
X64096Y2905D01*
X62120Y2086D01*
X60000Y1807D01*
Y1784D01*
X60000Y1784D01*
X10023D01*
Y1807D01*
X7896Y2087D01*
X5915Y2907D01*
X4213Y4213D01*
X2907Y5915D01*
X2087Y7896D01*
X1807Y10023D01*
X1784D01*
Y38918D01*
X12002D01*
X12250Y38547D01*
D02*
G37*
G36*
X60000Y78193D02*
X62120Y77914D01*
X64096Y77095D01*
X65793Y75793D01*
X67095Y74097D01*
X67914Y72120D01*
X68193Y70000D01*
X68216D01*
Y65000D01*
X68216Y65000D01*
X68149D01*
X68552Y61933D01*
X69736Y59074D01*
X70000Y58731D01*
Y51624D01*
X37673D01*
X30148Y59148D01*
X29000Y59624D01*
X27266D01*
X26558Y60331D01*
X25547Y60750D01*
X24453D01*
X23442Y60331D01*
X22669Y59558D01*
X22250Y58547D01*
Y57453D01*
X22669Y56442D01*
X23442Y55669D01*
X24453Y55250D01*
X24591D01*
X24869Y54834D01*
X24750Y54547D01*
Y53453D01*
X24869Y53166D01*
X24591Y52750D01*
X24453D01*
X23442Y52331D01*
X22669Y51558D01*
X22250Y50547D01*
Y49453D01*
X22669Y48442D01*
X23442Y47669D01*
X24453Y47250D01*
X24591D01*
X24869Y46834D01*
X24750Y46547D01*
Y45453D01*
X24869Y45166D01*
X24591Y44750D01*
X24453D01*
X23442Y44331D01*
X22669Y43558D01*
X22250Y42547D01*
Y41453D01*
X22645Y40500D01*
X22458Y40000D01*
X21416D01*
X21148Y40648D01*
X20250Y41546D01*
Y42547D01*
X19831Y43558D01*
X19058Y44331D01*
X18047Y44750D01*
X16953D01*
X15942Y44331D01*
X15169Y43558D01*
X14750Y42547D01*
Y41453D01*
X14869Y41166D01*
X14591Y40750D01*
X14453D01*
X13442Y40331D01*
X13111Y40000D01*
X1784D01*
Y69977D01*
X1807D01*
X2087Y72104D01*
X2907Y74085D01*
X4213Y75787D01*
X5915Y77093D01*
X7896Y77913D01*
X10023Y78193D01*
Y78216D01*
X10023Y78216D01*
X60000D01*
Y78193D01*
D02*
G37*
D10*
X20000Y32000D02*
Y39500D01*
X26000Y26000D02*
X32000D01*
X20000Y32000D02*
X26000Y26000D01*
X12500Y33672D02*
X24172Y22000D01*
X17000Y32000D02*
Y36000D01*
X25000Y24000D02*
X32828D01*
X17000Y32000D02*
X25000Y24000D01*
X12500Y33672D02*
Y34000D01*
X24172Y22000D02*
X33657D01*
X674000Y30000D02*
X676000Y32000D01*
X38828Y30000D02*
X674000D01*
X27500D02*
X27548Y30048D01*
X30048D02*
X36000Y36000D01*
X27548Y30048D02*
X30048D01*
X17500Y42000D02*
X20000Y39500D01*
X15000Y38000D02*
X17000Y36000D01*
X32000Y26000D02*
X38000Y32000D01*
X32828Y24000D02*
X38828Y30000D01*
X25000Y34000D02*
X31000D01*
X27500Y38000D02*
X29500Y40000D01*
X90000D01*
X33657Y22000D02*
X39657Y28000D01*
X679000D01*
X31000Y34000D02*
X35000Y38000D01*
X38000Y32000D02*
X668000D01*
X36000Y36000D02*
X70000D01*
X620000D01*
X620000D01*
X667000D01*
X35000Y38000D02*
X70000D01*
X620000D01*
X620000D01*
X664000D01*
X37000Y50000D02*
X70000D01*
X29000Y58000D02*
X37000Y50000D01*
X25000Y58000D02*
X29000D01*
X27500Y54000D02*
X27548Y53952D01*
X30048D01*
X36000Y48000D02*
X70000D01*
X30048Y53952D02*
X36000Y48000D01*
X70000Y50000D02*
X620000D01*
X620000D02*
X658000D01*
X620000D02*
X620000D01*
X70000Y48000D02*
X90000D01*
X70000Y46000D02*
X90000D01*
X35000D02*
X70000D01*
X31000Y50000D02*
X35000Y46000D01*
X25000Y50000D02*
X31000D01*
X673000Y40000D02*
X677000Y36000D01*
X666000Y40000D02*
X673000D01*
X664000Y38000D02*
X666000Y40000D01*
X27500Y46000D02*
X29500Y44000D01*
X1492000Y28000D02*
X2079000D01*
X2081000Y26000D02*
X2090000D01*
X2079000Y28000D02*
X2081000Y26000D01*
X2090000D02*
X2092000Y28000D01*
X2479000D01*
X2088000Y30000D02*
X2474000D01*
X2092000Y32000D02*
X2468000D01*
X2074000Y40000D02*
X2078000Y36000D01*
X2091000Y48000D02*
X2095000Y44000D01*
X2087000Y48000D02*
X2091000D01*
X2085000Y46000D02*
X2087000Y48000D01*
X1495000Y46000D02*
X2085000D01*
X2076000Y32000D02*
X2082000D01*
X2074000Y30000D02*
X2076000Y32000D01*
X1488000Y30000D02*
X2074000D01*
X2068000Y32000D02*
X2072000Y36000D01*
X1492000Y32000D02*
X2068000D01*
X2065000Y40000D02*
X2074000D01*
X2063000Y38000D02*
X2065000Y40000D01*
X1494000Y44000D02*
X2089000D01*
X2095000D02*
X2489000D01*
X1478000Y38000D02*
X2063000D01*
X1474000Y42000D02*
X1478000Y38000D01*
X1473000Y40000D02*
X1477000Y36000D01*
X1466000Y40000D02*
X1473000D01*
X1464000Y38000D02*
X1466000Y40000D01*
X1465000Y42000D02*
X1474000D01*
X1463000Y40000D02*
X1465000Y42000D01*
X1420000Y40000D02*
X1463000D01*
X2072212Y35788D02*
X2074384D01*
X2076172Y34000D01*
X2090000D01*
X2072000Y36000D02*
X2072212Y35788D01*
X2090000Y34000D02*
X2092000Y32000D01*
X1477000Y36000D02*
X2067000D01*
X2082000Y32000D02*
X2084000Y30000D01*
X2088000D01*
X1482000Y32000D02*
X1484000Y30000D01*
X1476000Y32000D02*
X1482000D01*
X1484000Y30000D02*
X1488000D01*
X1481000Y26000D02*
X1490000D01*
X1479000Y28000D02*
X1481000Y26000D01*
X692000Y28000D02*
X1479000D01*
X690000Y26000D02*
X692000Y28000D01*
X1474000Y30000D02*
X1476000Y32000D01*
X688000Y30000D02*
X1474000D01*
X696000Y48000D02*
X1484000D01*
X1486000Y50000D02*
X1491000D01*
X1484000Y48000D02*
X1486000Y50000D01*
X695000Y46000D02*
X1485000D01*
X1487000Y48000D02*
X1490000D01*
X1485000Y46000D02*
X1487000Y48000D01*
X694000Y44000D02*
X1489000D01*
X1490000Y48000D02*
X1494000Y44000D01*
X1491000Y50000D02*
X1495000Y46000D01*
X679000Y40000D02*
X1420000D01*
X678000Y38000D02*
X1464000D01*
X677000Y36000D02*
X1467000D01*
X690000Y34000D02*
X692000Y32000D01*
X676172Y34000D02*
X690000D01*
X684000Y30000D02*
X688000D01*
X681000Y26000D02*
X690000D01*
X682000Y32000D02*
X684000Y30000D01*
X679000Y28000D02*
X681000Y26000D01*
X675000Y44000D02*
X679000Y40000D01*
X664000Y44000D02*
X675000D01*
X674000Y42000D02*
X678000Y38000D01*
X665000Y42000D02*
X674000D01*
X674384Y35788D02*
X676172Y34000D01*
X672212Y35788D02*
X674384D01*
X663000Y40000D02*
X665000Y42000D01*
X662000D02*
X664000Y44000D01*
X1420000Y40000D02*
X1420000Y40000D01*
X1468000Y32000D02*
X1472000Y36000D01*
X692000Y32000D02*
X1468000D01*
X1472000Y36000D02*
X1472212Y35788D01*
X1474384D01*
X1476172Y34000D01*
X1490000D01*
X2468000Y32000D02*
X2472000Y36000D01*
X2078000D02*
X2467000D01*
X2482000Y32000D02*
X2484000Y30000D01*
X2474000D02*
X2476000Y32000D01*
X2482000D01*
X2484000Y30000D02*
X2488000D01*
X1490000Y34000D02*
X1492000Y32000D01*
X1490000Y26000D02*
X1492000Y28000D01*
X676000Y32000D02*
X682000D01*
X687000Y46000D02*
X689000Y44000D01*
X690000Y48000D02*
X694000Y44000D01*
X662000Y48000D02*
X690000D01*
X691000Y50000D02*
X695000Y46000D01*
X661000Y50000D02*
X691000D01*
X692000Y52000D02*
X696000Y48000D01*
X660000Y52000D02*
X692000D01*
X90000Y46000D02*
X620000Y46000D01*
X90000Y40000D02*
X620000Y40000D01*
X90000Y48000D02*
X620000Y48000D01*
X25000Y42000D02*
X662000Y42000D01*
X658000Y50000D02*
X660000Y52000D01*
X659000Y48000D02*
X661000Y50000D01*
X620000Y48000D02*
X659000D01*
X620000Y46000D02*
X660000D01*
X662000Y48000D01*
X668000Y32000D02*
X672000Y36000D01*
X663000Y46000D02*
X687000D01*
X29500Y44000D02*
X661000Y44000D01*
X672000Y36000D02*
X672212Y35788D01*
X661000Y44000D02*
X663000Y46000D01*
X620000Y40000D02*
X663000D01*
D33*
X2440000Y70000D02*
D03*
X2490000D02*
D03*
X2440000Y10000D02*
D03*
X2490000D02*
D03*
X2040000Y70000D02*
D03*
X2090000D02*
D03*
X2040000Y10000D02*
D03*
X2090000D02*
D03*
X1440000Y70000D02*
D03*
X1490000D02*
D03*
X1440000Y10000D02*
D03*
X1490000D02*
D03*
X690000D02*
D03*
X640000D02*
D03*
X690000Y70000D02*
D03*
X640000D02*
D03*
D34*
X65000Y62500D02*
D03*
X15000Y58000D02*
D03*
X12500Y54000D02*
D03*
X15000Y22000D02*
D03*
X12500Y26000D02*
D03*
X42500Y62500D02*
D03*
X67553Y22705D02*
D03*
X27500Y30000D02*
D03*
X12500Y34000D02*
D03*
X15000Y38000D02*
D03*
X17500Y42000D02*
D03*
X27500Y38000D02*
D03*
X25000Y34000D02*
D03*
X27500Y54000D02*
D03*
X25000Y42000D02*
D03*
Y50000D02*
D03*
Y58000D02*
D03*
X27500Y46000D02*
D03*
X2067000Y36000D02*
D03*
X2072000D02*
D03*
X2088000Y30000D02*
D03*
X1488000D02*
D03*
X1479000Y28000D02*
D03*
X1489000Y44000D02*
D03*
X688000Y30000D02*
D03*
X2472000Y36000D02*
D03*
X2467000D02*
D03*
X2479000Y28000D02*
D03*
X2489000Y44000D02*
D03*
X2488000Y30000D02*
D03*
X2079000Y28000D02*
D03*
X2089000Y44000D02*
D03*
X1472000Y36000D02*
D03*
X1467000D02*
D03*
X689000Y44000D02*
D03*
X679000Y28000D02*
D03*
X672000Y36000D02*
D03*
X667000D02*
D03*
M02*
