G04*
G04 #@! TF.GenerationSoftware,Altium Limited,Altium Designer,25.2.1 (25)*
G04*
G04 Layer_Color=8421504*
%FSLAX44Y44*%
%MOMM*%
G71*
G04*
G04 #@! TF.SameCoordinates,741BC239-CE25-488D-92A1-4661A09ACA53*
G04*
G04*
G04 #@! TF.FilePolarity,Positive*
G04*
G01*
G75*
%ADD12R,0.4750X0.2200*%
%ADD13R,0.6500X0.3200*%
%ADD14R,0.2500X0.3500*%
%ADD15R,0.3500X0.2500*%
%ADD16R,0.3000X0.4500*%
%ADD17R,0.5500X0.5500*%
%ADD18R,0.6000X0.3000*%
%ADD19R,0.3000X0.6000*%
%ADD20C,0.5000*%
D12*
X32120Y38000D02*
D03*
Y42000D02*
D03*
Y34000D02*
D03*
Y46000D02*
D03*
Y22000D02*
D03*
Y26000D02*
D03*
Y30000D02*
D03*
X7880Y58000D02*
D03*
Y54000D02*
D03*
Y50000D02*
D03*
Y46000D02*
D03*
Y42000D02*
D03*
Y38000D02*
D03*
Y34000D02*
D03*
Y30000D02*
D03*
Y26000D02*
D03*
Y22000D02*
D03*
X32120Y58000D02*
D03*
Y54000D02*
D03*
Y50000D02*
D03*
D13*
X30850Y12500D02*
D03*
Y67500D02*
D03*
X9150D02*
D03*
Y12500D02*
D03*
D14*
X52750Y62500D02*
D03*
X47250D02*
D03*
D15*
X635000Y55250D02*
D03*
Y49750D02*
D03*
X642500Y50000D02*
D03*
Y55500D02*
D03*
X650000Y50000D02*
D03*
Y55500D02*
D03*
X1435000Y55250D02*
D03*
Y49750D02*
D03*
X2035000Y55250D02*
D03*
Y49750D02*
D03*
X2435000Y55250D02*
D03*
Y49750D02*
D03*
X1442500Y50000D02*
D03*
Y55500D02*
D03*
X2042500Y50000D02*
D03*
Y55500D02*
D03*
X2442500Y50000D02*
D03*
Y55500D02*
D03*
X1450000Y50000D02*
D03*
Y55500D02*
D03*
X2050000Y50000D02*
D03*
Y55500D02*
D03*
X2450000Y50000D02*
D03*
Y55500D02*
D03*
D16*
X62500Y54250D02*
D03*
Y25750D02*
D03*
X47500Y54250D02*
D03*
X52500D02*
D03*
X57500D02*
D03*
Y25750D02*
D03*
X52500D02*
D03*
X47500D02*
D03*
D17*
X647250Y39750D02*
D03*
Y30250D02*
D03*
X637750D02*
D03*
Y39750D02*
D03*
X1447250D02*
D03*
Y30250D02*
D03*
X1437750D02*
D03*
Y39750D02*
D03*
X2047250D02*
D03*
Y30250D02*
D03*
X2037750D02*
D03*
Y39750D02*
D03*
X2447250D02*
D03*
Y30250D02*
D03*
X2437750D02*
D03*
Y39750D02*
D03*
D18*
X682500Y32500D02*
D03*
Y37500D02*
D03*
Y42500D02*
D03*
Y47500D02*
D03*
X657500D02*
D03*
Y42500D02*
D03*
Y37500D02*
D03*
Y32500D02*
D03*
X1482500D02*
D03*
Y37500D02*
D03*
Y42500D02*
D03*
Y47500D02*
D03*
X1457500D02*
D03*
Y42500D02*
D03*
Y37500D02*
D03*
Y32500D02*
D03*
X2082500D02*
D03*
Y37500D02*
D03*
Y42500D02*
D03*
Y47500D02*
D03*
X2057500D02*
D03*
Y42500D02*
D03*
Y37500D02*
D03*
Y32500D02*
D03*
X2482500D02*
D03*
Y37500D02*
D03*
Y42500D02*
D03*
Y47500D02*
D03*
X2457500D02*
D03*
Y42500D02*
D03*
Y37500D02*
D03*
Y32500D02*
D03*
D19*
X675000Y30000D02*
D03*
X665000D02*
D03*
X670000D02*
D03*
X675000Y50000D02*
D03*
X670000D02*
D03*
X665000D02*
D03*
X1475000Y30000D02*
D03*
X1465000D02*
D03*
X1470000D02*
D03*
X1475000Y50000D02*
D03*
X1470000D02*
D03*
X1465000D02*
D03*
X2075000Y30000D02*
D03*
X2065000D02*
D03*
X2070000D02*
D03*
X2075000Y50000D02*
D03*
X2070000D02*
D03*
X2065000D02*
D03*
X2475000Y30000D02*
D03*
X2465000D02*
D03*
X2470000D02*
D03*
X2475000Y50000D02*
D03*
X2470000D02*
D03*
X2465000D02*
D03*
D20*
X2495000Y30000D02*
D03*
X2480000Y20000D02*
D03*
X2466500D02*
D03*
X2453500D02*
D03*
M02*
