G04*
G04 #@! TF.GenerationSoftware,Altium Limited,Altium Designer,25.2.1 (25)*
G04*
G04 Layer_Color=65535*
%FSLAX44Y44*%
%MOMM*%
G71*
G04*
G04 #@! TF.SameCoordinates,DCC88B80-0BF3-41F3-BA1F-DE07C47E3E1C*
G04*
G04*
G04 #@! TF.FilePolarity,Positive*
G04*
G01*
G75*
%ADD10C,0.1000*%
%ADD11C,0.0100*%
G36*
X127500Y43220D02*
X125663D01*
Y44919D01*
X127500D01*
Y43220D01*
D02*
G37*
G36*
X111122D02*
X109284D01*
Y44919D01*
X111122D01*
Y43220D01*
D02*
G37*
G36*
X117147Y42423D02*
X117210Y42416D01*
X117279Y42409D01*
X117355Y42402D01*
X117529Y42374D01*
X117716Y42340D01*
X117903Y42284D01*
X118097Y42208D01*
X118104D01*
X118118Y42201D01*
X118146Y42187D01*
X118181Y42166D01*
X118222Y42146D01*
X118271Y42118D01*
X118382Y42055D01*
X118506Y41972D01*
X118631Y41875D01*
X118756Y41771D01*
X118860Y41646D01*
Y41639D01*
X118874Y41632D01*
X118888Y41611D01*
X118902Y41584D01*
X118950Y41515D01*
X119006Y41424D01*
X119068Y41306D01*
X119124Y41182D01*
X119179Y41036D01*
X119228Y40876D01*
Y40870D01*
X119235Y40856D01*
Y40835D01*
X119242Y40800D01*
X119255Y40752D01*
X119262Y40696D01*
X119269Y40634D01*
X119283Y40558D01*
X119290Y40474D01*
X119297Y40384D01*
X119311Y40280D01*
X119318Y40169D01*
X119325Y40051D01*
Y39920D01*
X119332Y39781D01*
Y39635D01*
Y35322D01*
X117494D01*
Y38866D01*
Y38879D01*
Y38914D01*
Y38970D01*
Y39046D01*
X117487Y39136D01*
Y39240D01*
Y39351D01*
X117480Y39469D01*
X117466Y39712D01*
X117452Y39836D01*
X117439Y39954D01*
X117425Y40065D01*
X117411Y40162D01*
X117390Y40252D01*
X117369Y40322D01*
Y40329D01*
X117362Y40336D01*
X117348Y40377D01*
X117321Y40440D01*
X117279Y40509D01*
X117224Y40592D01*
X117161Y40682D01*
X117078Y40759D01*
X116988Y40835D01*
X116974Y40842D01*
X116939Y40863D01*
X116884Y40897D01*
X116808Y40932D01*
X116718Y40960D01*
X116607Y40994D01*
X116482Y41015D01*
X116350Y41022D01*
X116301D01*
X116267Y41015D01*
X116225D01*
X116177Y41008D01*
X116059Y40988D01*
X115927Y40960D01*
X115781Y40911D01*
X115629Y40849D01*
X115483Y40759D01*
X115476D01*
X115469Y40745D01*
X115449Y40731D01*
X115421Y40710D01*
X115358Y40655D01*
X115275Y40571D01*
X115192Y40474D01*
X115102Y40349D01*
X115026Y40211D01*
X114963Y40058D01*
Y40051D01*
X114956Y40037D01*
X114949Y40010D01*
X114942Y39975D01*
X114928Y39927D01*
X114922Y39864D01*
X114908Y39788D01*
X114894Y39698D01*
X114880Y39594D01*
X114866Y39483D01*
X114859Y39351D01*
X114845Y39205D01*
X114838Y39046D01*
X114831Y38866D01*
X114824Y38671D01*
Y38463D01*
Y35322D01*
X112987D01*
Y42277D01*
X114693D01*
Y41251D01*
X114707Y41265D01*
X114734Y41300D01*
X114783Y41362D01*
X114859Y41438D01*
X114949Y41521D01*
X115053Y41625D01*
X115178Y41729D01*
X115324Y41840D01*
X115476Y41951D01*
X115650Y42055D01*
X115844Y42159D01*
X116045Y42243D01*
X116260Y42319D01*
X116489Y42381D01*
X116731Y42416D01*
X116988Y42430D01*
X117092D01*
X117147Y42423D01*
D02*
G37*
G36*
X168627Y42423D02*
X168745Y42416D01*
X168876Y42402D01*
X169029Y42388D01*
X169195Y42374D01*
X169362Y42347D01*
X169535Y42312D01*
X169716Y42277D01*
X169889Y42229D01*
X170062Y42180D01*
X170222Y42111D01*
X170374Y42042D01*
X170513Y41958D01*
X170520Y41951D01*
X170541Y41937D01*
X170582Y41910D01*
X170624Y41875D01*
X170679Y41820D01*
X170749Y41764D01*
X170818Y41695D01*
X170894Y41612D01*
X170971Y41521D01*
X171054Y41417D01*
X171130Y41307D01*
X171206Y41182D01*
X171283Y41050D01*
X171352Y40904D01*
X171414Y40752D01*
X171470Y40585D01*
X169736Y40266D01*
Y40273D01*
X169729Y40287D01*
X169722Y40308D01*
X169716Y40336D01*
X169681Y40405D01*
X169639Y40495D01*
X169577Y40592D01*
X169508Y40696D01*
X169417Y40793D01*
X169306Y40883D01*
X169293Y40890D01*
X169272Y40904D01*
X169251Y40918D01*
X169216Y40932D01*
X169182Y40953D01*
X169084Y40994D01*
X168960Y41036D01*
X168807Y41071D01*
X168627Y41098D01*
X168426Y41105D01*
X168308D01*
X168246Y41098D01*
X168176Y41091D01*
X168107D01*
X168024Y41078D01*
X167850Y41057D01*
X167677Y41015D01*
X167517Y40967D01*
X167448Y40932D01*
X167386Y40897D01*
X167379Y40890D01*
X167351Y40870D01*
X167323Y40842D01*
X167282Y40800D01*
X167247Y40745D01*
X167212Y40682D01*
X167185Y40606D01*
X167178Y40523D01*
Y40516D01*
Y40488D01*
X167185Y40454D01*
X167198Y40412D01*
X167219Y40356D01*
X167254Y40301D01*
X167295Y40245D01*
X167358Y40190D01*
X167372Y40183D01*
X167393Y40169D01*
X167420Y40155D01*
X167462Y40142D01*
X167517Y40114D01*
X167580Y40086D01*
X167663Y40058D01*
X167767Y40024D01*
X167885Y39989D01*
X168024Y39940D01*
X168183Y39899D01*
X168370Y39850D01*
X168578Y39795D01*
X168807Y39739D01*
X168939Y39705D01*
X169071Y39677D01*
X169078D01*
X169084Y39670D01*
X169105D01*
X169133Y39663D01*
X169209Y39642D01*
X169306Y39615D01*
X169431Y39587D01*
X169570Y39545D01*
X169716Y39504D01*
X169882Y39448D01*
X170215Y39330D01*
X170388Y39261D01*
X170555Y39192D01*
X170721Y39115D01*
X170867Y39032D01*
X171005Y38949D01*
X171123Y38859D01*
X171130Y38852D01*
X171151Y38838D01*
X171179Y38810D01*
X171213Y38769D01*
X171262Y38720D01*
X171310Y38658D01*
X171359Y38588D01*
X171414Y38505D01*
X171470Y38408D01*
X171518Y38311D01*
X171574Y38200D01*
X171616Y38075D01*
X171650Y37943D01*
X171678Y37805D01*
X171699Y37652D01*
X171706Y37493D01*
Y37479D01*
Y37451D01*
X171699Y37403D01*
X171692Y37333D01*
X171678Y37250D01*
X171664Y37153D01*
X171636Y37049D01*
X171609Y36931D01*
X171560Y36806D01*
X171511Y36674D01*
X171442Y36536D01*
X171366Y36397D01*
X171276Y36258D01*
X171165Y36120D01*
X171040Y35981D01*
X170901Y35849D01*
X170894Y35842D01*
X170867Y35821D01*
X170818Y35787D01*
X170756Y35745D01*
X170665Y35690D01*
X170569Y35634D01*
X170444Y35572D01*
X170305Y35510D01*
X170152Y35440D01*
X169972Y35378D01*
X169785Y35322D01*
X169570Y35274D01*
X169341Y35225D01*
X169091Y35190D01*
X168828Y35170D01*
X168544Y35163D01*
X168481D01*
X168405Y35170D01*
X168308D01*
X168190Y35184D01*
X168051Y35190D01*
X167899Y35211D01*
X167732Y35232D01*
X167552Y35267D01*
X167372Y35301D01*
X167185Y35350D01*
X166990Y35405D01*
X166810Y35475D01*
X166623Y35551D01*
X166450Y35634D01*
X166290Y35738D01*
X166283Y35745D01*
X166255Y35766D01*
X166214Y35801D01*
X166158Y35842D01*
X166089Y35905D01*
X166013Y35974D01*
X165936Y36057D01*
X165846Y36147D01*
X165756Y36258D01*
X165666Y36376D01*
X165576Y36501D01*
X165486Y36640D01*
X165409Y36792D01*
X165333Y36952D01*
X165271Y37125D01*
X165215Y37305D01*
X167060Y37590D01*
Y37583D01*
X167067Y37569D01*
X167074Y37541D01*
X167081Y37500D01*
X167094Y37458D01*
X167115Y37403D01*
X167164Y37285D01*
X167226Y37153D01*
X167302Y37014D01*
X167407Y36889D01*
X167531Y36772D01*
X167538D01*
X167545Y36758D01*
X167566Y36744D01*
X167601Y36730D01*
X167635Y36709D01*
X167677Y36681D01*
X167732Y36661D01*
X167795Y36633D01*
X167864Y36605D01*
X167940Y36584D01*
X168024Y36556D01*
X168114Y36536D01*
X168211Y36522D01*
X168315Y36508D01*
X168426Y36494D01*
X168613D01*
X168662Y36501D01*
X168724D01*
X168786Y36508D01*
X168863Y36515D01*
X168946Y36529D01*
X169119Y36556D01*
X169300Y36605D01*
X169466Y36667D01*
X169549Y36709D01*
X169618Y36751D01*
X169632Y36758D01*
X169660Y36785D01*
X169695Y36827D01*
X169743Y36883D01*
X169785Y36952D01*
X169827Y37035D01*
X169854Y37132D01*
X169861Y37243D01*
Y37250D01*
Y37278D01*
X169854Y37319D01*
X169847Y37368D01*
X169827Y37416D01*
X169806Y37479D01*
X169771Y37534D01*
X169729Y37590D01*
X169722Y37597D01*
X169702Y37610D01*
X169660Y37638D01*
X169598Y37673D01*
X169521Y37708D01*
X169410Y37749D01*
X169348Y37770D01*
X169279Y37791D01*
X169195Y37812D01*
X169112Y37832D01*
X169105D01*
X169084Y37839D01*
X169057Y37846D01*
X169015Y37853D01*
X168967Y37867D01*
X168904Y37881D01*
X168835Y37895D01*
X168759Y37916D01*
X168668Y37936D01*
X168578Y37957D01*
X168377Y38013D01*
X168155Y38068D01*
X167927Y38131D01*
X167684Y38193D01*
X167448Y38269D01*
X167212Y38339D01*
X166984Y38415D01*
X166775Y38498D01*
X166581Y38574D01*
X166498Y38609D01*
X166422Y38651D01*
X166353Y38692D01*
X166290Y38727D01*
X166283Y38734D01*
X166255Y38755D01*
X166214Y38782D01*
X166165Y38831D01*
X166103Y38886D01*
X166033Y38956D01*
X165957Y39039D01*
X165881Y39136D01*
X165805Y39240D01*
X165728Y39358D01*
X165659Y39483D01*
X165597Y39628D01*
X165548Y39774D01*
X165506Y39940D01*
X165479Y40114D01*
X165472Y40294D01*
Y40308D01*
Y40336D01*
X165479Y40384D01*
X165486Y40447D01*
X165493Y40523D01*
X165506Y40613D01*
X165534Y40710D01*
X165562Y40821D01*
X165597Y40939D01*
X165645Y41064D01*
X165701Y41189D01*
X165770Y41313D01*
X165853Y41445D01*
X165943Y41570D01*
X166054Y41695D01*
X166179Y41813D01*
X166186Y41820D01*
X166214Y41840D01*
X166255Y41868D01*
X166318Y41910D01*
X166394Y41958D01*
X166484Y42007D01*
X166595Y42062D01*
X166727Y42125D01*
X166873Y42180D01*
X167032Y42236D01*
X167212Y42284D01*
X167413Y42333D01*
X167628Y42374D01*
X167864Y42402D01*
X168121Y42423D01*
X168391Y42430D01*
X168530D01*
X168627Y42423D01*
D02*
G37*
G36*
X154266Y35322D02*
X152470D01*
X152463Y42874D01*
X150563Y35322D01*
X148698D01*
X146805Y42874D01*
Y35322D01*
X145009D01*
Y44919D01*
X147907D01*
X149641Y38366D01*
X151354Y44919D01*
X154266D01*
Y35322D01*
D02*
G37*
G36*
X106074D02*
X104312D01*
X103113Y39795D01*
X101934Y35322D01*
X100152D01*
X97954Y42277D01*
X99736D01*
X101039Y37715D01*
X102239Y42277D01*
X104007D01*
X105165Y37715D01*
X106496Y42277D01*
X108313D01*
X106074Y35322D01*
D02*
G37*
G36*
X180616Y35322D02*
X178959D01*
X176157Y42277D01*
X178085D01*
X179396Y38727D01*
X179777Y37541D01*
Y37548D01*
X179784Y37562D01*
X179791Y37583D01*
X179805Y37617D01*
X179826Y37694D01*
X179860Y37784D01*
X179888Y37888D01*
X179923Y37985D01*
X179944Y38068D01*
X179957Y38110D01*
X179964Y38138D01*
X179971Y38151D01*
X179978Y38186D01*
X179999Y38249D01*
X180027Y38318D01*
X180054Y38408D01*
X180089Y38512D01*
X180124Y38616D01*
X180165Y38727D01*
X181483Y42277D01*
X183376D01*
X180616Y35322D01*
D02*
G37*
G36*
X163835Y39871D02*
Y39864D01*
Y39850D01*
Y39829D01*
Y39795D01*
Y39753D01*
Y39705D01*
Y39649D01*
Y39594D01*
X163828Y39448D01*
Y39289D01*
X163822Y39108D01*
X163815Y38921D01*
X163808Y38720D01*
X163794Y38519D01*
X163787Y38311D01*
X163766Y38110D01*
X163752Y37923D01*
X163731Y37742D01*
X163704Y37576D01*
X163676Y37430D01*
Y37423D01*
X163669Y37396D01*
X163662Y37361D01*
X163641Y37312D01*
X163627Y37250D01*
X163606Y37181D01*
X163579Y37097D01*
X163544Y37014D01*
X163461Y36820D01*
X163364Y36619D01*
X163239Y36418D01*
X163093Y36224D01*
X163086Y36217D01*
X163073Y36203D01*
X163052Y36175D01*
X163017Y36140D01*
X162976Y36106D01*
X162927Y36057D01*
X162865Y36002D01*
X162795Y35946D01*
X162719Y35884D01*
X162636Y35821D01*
X162546Y35759D01*
X162442Y35690D01*
X162338Y35627D01*
X162220Y35565D01*
X162102Y35503D01*
X161970Y35447D01*
X161963D01*
X161935Y35433D01*
X161901Y35419D01*
X161845Y35398D01*
X161769Y35378D01*
X161686Y35357D01*
X161589Y35329D01*
X161478Y35301D01*
X161346Y35274D01*
X161207Y35246D01*
X161055Y35225D01*
X160895Y35204D01*
X160715Y35183D01*
X160535Y35170D01*
X160334Y35163D01*
X160126Y35156D01*
X159994D01*
X159897Y35163D01*
X159786D01*
X159654Y35170D01*
X159508Y35183D01*
X159349Y35197D01*
X159183Y35211D01*
X159009Y35232D01*
X158662Y35288D01*
X158496Y35322D01*
X158330Y35364D01*
X158177Y35412D01*
X158038Y35468D01*
X158031Y35475D01*
X158011Y35482D01*
X157969Y35503D01*
X157921Y35523D01*
X157865Y35558D01*
X157796Y35593D01*
X157719Y35641D01*
X157636Y35690D01*
X157456Y35808D01*
X157269Y35953D01*
X157081Y36113D01*
X156915Y36293D01*
X156908Y36300D01*
X156894Y36314D01*
X156873Y36342D01*
X156853Y36383D01*
X156818Y36425D01*
X156776Y36480D01*
X156735Y36550D01*
X156693Y36619D01*
X156603Y36778D01*
X156513Y36959D01*
X156437Y37153D01*
X156374Y37361D01*
Y37368D01*
X156367Y37403D01*
X156360Y37451D01*
X156346Y37513D01*
X156333Y37604D01*
X156312Y37708D01*
X156298Y37832D01*
X156284Y37978D01*
X156263Y38138D01*
X156249Y38318D01*
X156229Y38519D01*
X156215Y38734D01*
X156208Y38970D01*
X156194Y39226D01*
X156187Y39504D01*
Y39795D01*
Y44919D01*
X158122D01*
Y39718D01*
Y39705D01*
Y39663D01*
Y39601D01*
Y39517D01*
Y39420D01*
X158128Y39309D01*
Y39185D01*
Y39053D01*
X158135Y38782D01*
X158142Y38644D01*
X158149Y38519D01*
X158156Y38394D01*
X158170Y38283D01*
X158177Y38186D01*
X158191Y38110D01*
Y38103D01*
X158198Y38082D01*
X158205Y38054D01*
X158219Y38013D01*
X158232Y37964D01*
X158253Y37902D01*
X158309Y37770D01*
X158392Y37617D01*
X158489Y37465D01*
X158552Y37389D01*
X158621Y37312D01*
X158697Y37236D01*
X158780Y37167D01*
X158787Y37160D01*
X158801Y37153D01*
X158829Y37132D01*
X158863Y37111D01*
X158912Y37083D01*
X158975Y37056D01*
X159037Y37021D01*
X159120Y36993D01*
X159203Y36959D01*
X159300Y36924D01*
X159404Y36896D01*
X159522Y36869D01*
X159647Y36848D01*
X159772Y36827D01*
X159917Y36820D01*
X160063Y36813D01*
X160139D01*
X160202Y36820D01*
X160264D01*
X160347Y36834D01*
X160431Y36841D01*
X160528Y36855D01*
X160729Y36896D01*
X160937Y36952D01*
X161131Y37035D01*
X161221Y37090D01*
X161304Y37146D01*
X161311Y37153D01*
X161325Y37160D01*
X161346Y37181D01*
X161374Y37208D01*
X161443Y37278D01*
X161526Y37375D01*
X161616Y37500D01*
X161700Y37638D01*
X161762Y37798D01*
X161790Y37881D01*
X161811Y37971D01*
Y37978D01*
X161817Y37992D01*
Y38027D01*
X161824Y38068D01*
X161831Y38124D01*
X161838Y38186D01*
X161845Y38269D01*
X161859Y38359D01*
X161866Y38470D01*
X161873Y38588D01*
X161880Y38720D01*
X161887Y38872D01*
X161894Y39032D01*
Y39212D01*
X161901Y39399D01*
Y39608D01*
Y44919D01*
X163835Y44919D01*
Y39871D01*
D02*
G37*
G36*
X193791Y35322D02*
X191954D01*
Y37160D01*
X193791D01*
Y35322D01*
D02*
G37*
G36*
X188812D02*
X186975D01*
Y42249D01*
X186961Y42236D01*
X186926Y42208D01*
X186871Y42159D01*
X186794Y42097D01*
X186697Y42021D01*
X186579Y41930D01*
X186448Y41827D01*
X186295Y41722D01*
X186129Y41612D01*
X185949Y41494D01*
X185754Y41376D01*
X185546Y41265D01*
X185324Y41154D01*
X185089Y41043D01*
X184846Y40946D01*
X184596Y40856D01*
Y42527D01*
X184603D01*
X184631Y42541D01*
X184666Y42555D01*
X184721Y42575D01*
X184790Y42603D01*
X184867Y42631D01*
X184957Y42673D01*
X185061Y42721D01*
X185172Y42783D01*
X185290Y42846D01*
X185422Y42915D01*
X185553Y42998D01*
X185699Y43089D01*
X185844Y43186D01*
X185997Y43297D01*
X186157Y43415D01*
X186164Y43421D01*
X186191Y43442D01*
X186240Y43484D01*
X186295Y43532D01*
X186365Y43595D01*
X186441Y43671D01*
X186524Y43754D01*
X186621Y43851D01*
X186711Y43962D01*
X186808Y44080D01*
X186905Y44205D01*
X187003Y44344D01*
X187093Y44482D01*
X187176Y44635D01*
X187252Y44794D01*
X187315Y44954D01*
X188812D01*
Y35322D01*
D02*
G37*
G36*
X143185Y35322D02*
X141251D01*
Y44919D01*
X143185D01*
Y35322D01*
D02*
G37*
G36*
X127500D02*
X125663D01*
Y42277D01*
X127500D01*
Y35322D01*
D02*
G37*
G36*
X111122D02*
X109284D01*
Y42277D01*
X111122D01*
Y35322D01*
D02*
G37*
G36*
X97628Y43297D02*
X94785D01*
Y35322D01*
X92850D01*
Y43297D01*
X90000D01*
Y44919D01*
X97628D01*
Y43297D01*
D02*
G37*
G36*
X123118Y42277D02*
X124373D01*
Y40814D01*
X123118D01*
Y38006D01*
Y37999D01*
Y37971D01*
Y37929D01*
Y37867D01*
Y37805D01*
Y37728D01*
X123125Y37562D01*
Y37389D01*
X123132Y37305D01*
Y37222D01*
X123139Y37153D01*
Y37090D01*
X123146Y37042D01*
X123152Y37007D01*
Y37000D01*
X123159Y36986D01*
X123173Y36959D01*
X123187Y36924D01*
X123208Y36889D01*
X123236Y36855D01*
X123270Y36813D01*
X123312Y36778D01*
X123319Y36772D01*
X123333Y36765D01*
X123360Y36751D01*
X123402Y36737D01*
X123444Y36716D01*
X123499Y36702D01*
X123561Y36695D01*
X123624Y36688D01*
X123673D01*
X123728Y36695D01*
X123811Y36709D01*
X123915Y36730D01*
X124047Y36765D01*
X124192Y36806D01*
X124366Y36862D01*
X124525Y35433D01*
X124518D01*
X124498Y35419D01*
X124463Y35405D01*
X124414Y35392D01*
X124352Y35371D01*
X124276Y35350D01*
X124192Y35322D01*
X124102Y35301D01*
X123998Y35274D01*
X123887Y35246D01*
X123770Y35225D01*
X123638Y35204D01*
X123367Y35177D01*
X123069Y35163D01*
X122986D01*
X122944Y35170D01*
X122896D01*
X122771Y35183D01*
X122632Y35204D01*
X122487Y35232D01*
X122327Y35274D01*
X122175Y35329D01*
X122168D01*
X122161Y35336D01*
X122140Y35343D01*
X122112Y35357D01*
X122043Y35398D01*
X121953Y35447D01*
X121856Y35510D01*
X121766Y35579D01*
X121669Y35662D01*
X121592Y35759D01*
X121585Y35773D01*
X121565Y35808D01*
X121530Y35870D01*
X121488Y35946D01*
X121447Y36050D01*
X121405Y36175D01*
X121363Y36321D01*
X121336Y36480D01*
Y36487D01*
Y36494D01*
X121329Y36515D01*
Y36543D01*
X121322Y36584D01*
Y36633D01*
X121315Y36695D01*
X121308Y36765D01*
X121301Y36841D01*
Y36938D01*
X121294Y37042D01*
X121287Y37160D01*
Y37292D01*
X121280Y37444D01*
Y37604D01*
Y37777D01*
Y40814D01*
X120434D01*
Y42277D01*
X121280D01*
Y43657D01*
X123118Y44739D01*
Y42277D01*
D02*
G37*
G36*
X198520Y44947D02*
X198617Y44940D01*
X198735Y44926D01*
X198874Y44898D01*
X199020Y44871D01*
X199186Y44829D01*
X199352Y44774D01*
X199533Y44711D01*
X199713Y44628D01*
X199893Y44531D01*
X200074Y44420D01*
X200247Y44288D01*
X200413Y44129D01*
X200566Y43955D01*
X200580Y43941D01*
X200587Y43928D01*
X200607Y43900D01*
X200628Y43865D01*
X200656Y43830D01*
X200684Y43782D01*
X200711Y43727D01*
X200746Y43671D01*
X200788Y43602D01*
X200822Y43525D01*
X200864Y43442D01*
X200906Y43345D01*
X200947Y43248D01*
X200996Y43144D01*
X201037Y43026D01*
X201079Y42901D01*
X201127Y42770D01*
X201169Y42631D01*
X201211Y42485D01*
X201252Y42326D01*
X201287Y42166D01*
X201329Y41993D01*
X201363Y41813D01*
X201391Y41618D01*
X201419Y41424D01*
X201446Y41216D01*
X201467Y41001D01*
X201488Y40780D01*
X201502Y40544D01*
X201509Y40301D01*
Y40051D01*
Y40044D01*
Y40024D01*
Y39982D01*
Y39934D01*
Y39871D01*
X201502Y39795D01*
Y39705D01*
X201495Y39608D01*
X201488Y39497D01*
X201481Y39386D01*
X201474Y39261D01*
X201460Y39129D01*
X201433Y38845D01*
X201391Y38540D01*
X201342Y38221D01*
X201280Y37895D01*
X201204Y37569D01*
X201114Y37250D01*
X201003Y36938D01*
X200878Y36647D01*
X200809Y36508D01*
X200732Y36376D01*
X200649Y36251D01*
X200566Y36134D01*
X200559Y36120D01*
X200531Y36092D01*
X200483Y36043D01*
X200420Y35981D01*
X200344Y35905D01*
X200247Y35821D01*
X200129Y35738D01*
X199997Y35648D01*
X199852Y35551D01*
X199692Y35468D01*
X199512Y35385D01*
X199318Y35308D01*
X199110Y35246D01*
X198881Y35197D01*
X198645Y35170D01*
X198389Y35156D01*
X198326D01*
X198257Y35163D01*
X198160Y35170D01*
X198035Y35190D01*
X197903Y35211D01*
X197744Y35246D01*
X197584Y35288D01*
X197404Y35350D01*
X197223Y35419D01*
X197036Y35503D01*
X196842Y35607D01*
X196655Y35731D01*
X196475Y35877D01*
X196294Y36043D01*
X196128Y36231D01*
X196121Y36244D01*
X196093Y36279D01*
X196073Y36314D01*
X196052Y36349D01*
X196024Y36390D01*
X195996Y36439D01*
X195961Y36501D01*
X195934Y36563D01*
X195892Y36640D01*
X195858Y36716D01*
X195823Y36806D01*
X195781Y36896D01*
X195740Y37000D01*
X195705Y37111D01*
X195663Y37229D01*
X195622Y37361D01*
X195580Y37493D01*
X195546Y37638D01*
X195511Y37791D01*
X195476Y37950D01*
X195441Y38124D01*
X195407Y38304D01*
X195379Y38491D01*
X195351Y38685D01*
X195331Y38893D01*
X195310Y39108D01*
X195296Y39330D01*
X195282Y39566D01*
X195275Y39809D01*
Y40065D01*
Y40072D01*
Y40093D01*
Y40135D01*
Y40183D01*
X195282Y40245D01*
Y40322D01*
Y40412D01*
X195289Y40509D01*
X195296Y40613D01*
X195303Y40731D01*
X195317Y40856D01*
X195324Y40988D01*
X195351Y41265D01*
X195393Y41570D01*
X195441Y41889D01*
X195504Y42208D01*
X195580Y42534D01*
X195670Y42860D01*
X195774Y43165D01*
X195899Y43456D01*
X195975Y43595D01*
X196045Y43727D01*
X196128Y43851D01*
X196211Y43969D01*
X196218Y43983D01*
X196246Y44011D01*
X196294Y44059D01*
X196357Y44122D01*
X196433Y44198D01*
X196530Y44281D01*
X196648Y44371D01*
X196780Y44461D01*
X196925Y44552D01*
X197085Y44642D01*
X197265Y44725D01*
X197459Y44801D01*
X197667Y44864D01*
X197896Y44912D01*
X198132Y44940D01*
X198389Y44954D01*
X198451D01*
X198520Y44947D01*
D02*
G37*
G36*
X132028Y42423D02*
X132118Y42409D01*
X132229Y42395D01*
X132354Y42367D01*
X132500Y42333D01*
X132652Y42291D01*
X132819Y42229D01*
X132992Y42152D01*
X133165Y42062D01*
X133346Y41951D01*
X133526Y41820D01*
X133699Y41667D01*
X133873Y41494D01*
X134032Y41293D01*
Y42277D01*
X135752D01*
Y36030D01*
Y36016D01*
Y35974D01*
Y35912D01*
Y35828D01*
X135745Y35731D01*
X135738Y35614D01*
Y35482D01*
X135724Y35343D01*
X135717Y35197D01*
X135703Y35045D01*
X135662Y34740D01*
X135641Y34594D01*
X135613Y34455D01*
X135578Y34317D01*
X135544Y34199D01*
Y34192D01*
X135537Y34171D01*
X135523Y34143D01*
X135509Y34102D01*
X135488Y34046D01*
X135461Y33991D01*
X135398Y33852D01*
X135315Y33700D01*
X135218Y33540D01*
X135107Y33381D01*
X134975Y33242D01*
X134968Y33235D01*
X134961Y33228D01*
X134941Y33207D01*
X134906Y33187D01*
X134871Y33159D01*
X134830Y33124D01*
X134774Y33082D01*
X134712Y33048D01*
X134649Y32999D01*
X134573Y32958D01*
X134407Y32868D01*
X134213Y32777D01*
X133991Y32701D01*
X133984D01*
X133963Y32694D01*
X133928Y32680D01*
X133880Y32673D01*
X133824Y32653D01*
X133748Y32639D01*
X133665Y32618D01*
X133568Y32604D01*
X133464Y32583D01*
X133346Y32562D01*
X133221Y32549D01*
X133082Y32535D01*
X132937Y32521D01*
X132777Y32507D01*
X132618Y32500D01*
X132326D01*
X132278Y32507D01*
X132160D01*
X132014Y32521D01*
X131848Y32535D01*
X131661Y32549D01*
X131467Y32576D01*
X131265Y32611D01*
X131057Y32653D01*
X130842Y32701D01*
X130641Y32757D01*
X130440Y32826D01*
X130253Y32909D01*
X130087Y33006D01*
X129934Y33110D01*
X129927Y33117D01*
X129899Y33138D01*
X129865Y33173D01*
X129816Y33221D01*
X129761Y33284D01*
X129698Y33353D01*
X129636Y33436D01*
X129566Y33533D01*
X129497Y33637D01*
X129435Y33755D01*
X129372Y33880D01*
X129317Y34019D01*
X129268Y34164D01*
X129234Y34317D01*
X129206Y34476D01*
X129199Y34650D01*
Y34657D01*
Y34670D01*
Y34684D01*
Y34712D01*
Y34781D01*
X129206Y34871D01*
X131307Y34615D01*
Y34608D01*
Y34601D01*
X131321Y34553D01*
X131335Y34490D01*
X131356Y34414D01*
X131390Y34331D01*
X131432Y34247D01*
X131480Y34171D01*
X131550Y34109D01*
X131564Y34102D01*
X131598Y34081D01*
X131661Y34046D01*
X131751Y34012D01*
X131862Y33970D01*
X131931Y33956D01*
X132007Y33942D01*
X132091Y33928D01*
X132174Y33915D01*
X132271Y33908D01*
X132444D01*
X132493Y33915D01*
X132555D01*
X132625Y33921D01*
X132701Y33928D01*
X132784Y33935D01*
X132957Y33963D01*
X133138Y34005D01*
X133304Y34053D01*
X133387Y34088D01*
X133457Y34130D01*
X133470Y34137D01*
X133498Y34157D01*
X133540Y34192D01*
X133595Y34241D01*
X133651Y34310D01*
X133713Y34386D01*
X133776Y34483D01*
X133824Y34594D01*
X133831Y34608D01*
X133838Y34643D01*
X133852Y34698D01*
X133859Y34740D01*
X133873Y34788D01*
X133880Y34837D01*
X133886Y34899D01*
X133893Y34969D01*
X133900Y35045D01*
X133907Y35128D01*
Y35225D01*
X133914Y35322D01*
Y35433D01*
X133921Y36453D01*
X133914Y36439D01*
X133886Y36404D01*
X133838Y36349D01*
X133769Y36279D01*
X133692Y36189D01*
X133588Y36092D01*
X133477Y35995D01*
X133346Y35891D01*
X133200Y35780D01*
X133048Y35683D01*
X132874Y35586D01*
X132687Y35503D01*
X132486Y35426D01*
X132278Y35371D01*
X132056Y35336D01*
X131827Y35322D01*
X131765D01*
X131695Y35329D01*
X131598Y35343D01*
X131480Y35357D01*
X131342Y35385D01*
X131189Y35419D01*
X131023Y35468D01*
X130849Y35530D01*
X130669Y35614D01*
X130489Y35704D01*
X130302Y35821D01*
X130114Y35953D01*
X129941Y36113D01*
X129768Y36293D01*
X129608Y36501D01*
X129601Y36515D01*
X129580Y36543D01*
X129553Y36598D01*
X129511Y36667D01*
X129462Y36758D01*
X129407Y36869D01*
X129352Y37000D01*
X129289Y37146D01*
X129227Y37305D01*
X129171Y37479D01*
X129116Y37673D01*
X129067Y37881D01*
X129033Y38096D01*
X128998Y38332D01*
X128977Y38574D01*
X128970Y38831D01*
Y38838D01*
Y38852D01*
Y38872D01*
Y38907D01*
Y38949D01*
X128977Y38997D01*
Y39053D01*
X128984Y39115D01*
X128998Y39268D01*
X129012Y39434D01*
X129039Y39621D01*
X129074Y39822D01*
X129123Y40031D01*
X129178Y40252D01*
X129241Y40474D01*
X129324Y40696D01*
X129421Y40911D01*
X129532Y41119D01*
X129664Y41320D01*
X129809Y41501D01*
X129816Y41515D01*
X129851Y41542D01*
X129893Y41584D01*
X129962Y41646D01*
X130045Y41716D01*
X130142Y41792D01*
X130253Y41882D01*
X130385Y41965D01*
X130530Y42055D01*
X130690Y42139D01*
X130863Y42215D01*
X131044Y42284D01*
X131245Y42347D01*
X131453Y42388D01*
X131674Y42423D01*
X131903Y42430D01*
X131959D01*
X132028Y42423D01*
D02*
G37*
%LPC*%
G36*
X198389Y43428D02*
X198333D01*
X198271Y43415D01*
X198187Y43401D01*
X198097Y43373D01*
X198000Y43338D01*
X197896Y43283D01*
X197792Y43213D01*
X197778Y43206D01*
X197750Y43172D01*
X197702Y43116D01*
X197640Y43040D01*
X197577Y42936D01*
X197542Y42874D01*
X197508Y42804D01*
X197473Y42728D01*
X197445Y42638D01*
X197411Y42548D01*
X197383Y42451D01*
Y42444D01*
X197376Y42416D01*
X197369Y42374D01*
X197355Y42312D01*
X197341Y42236D01*
X197321Y42139D01*
X197307Y42021D01*
X197293Y41882D01*
X197272Y41729D01*
X197258Y41549D01*
X197237Y41355D01*
X197223Y41140D01*
X197217Y40897D01*
X197203Y40641D01*
X197196Y40356D01*
Y40051D01*
Y40044D01*
Y40031D01*
Y40010D01*
Y39975D01*
Y39940D01*
Y39892D01*
Y39774D01*
X197203Y39642D01*
Y39483D01*
X197210Y39309D01*
X197217Y39129D01*
X197223Y38935D01*
X197237Y38741D01*
X197251Y38547D01*
X197265Y38359D01*
X197286Y38179D01*
X197307Y38013D01*
X197334Y37860D01*
X197362Y37728D01*
Y37722D01*
X197369Y37701D01*
X197383Y37666D01*
X197397Y37624D01*
X197411Y37576D01*
X197432Y37520D01*
X197480Y37389D01*
X197542Y37250D01*
X197619Y37111D01*
X197702Y36986D01*
X197744Y36931D01*
X197792Y36889D01*
X197806Y36883D01*
X197841Y36855D01*
X197896Y36827D01*
X197966Y36785D01*
X198056Y36751D01*
X198153Y36716D01*
X198271Y36688D01*
X198389Y36681D01*
X198402D01*
X198444Y36688D01*
X198506Y36695D01*
X198590Y36709D01*
X198680Y36730D01*
X198784Y36772D01*
X198881Y36820D01*
X198985Y36889D01*
X198999Y36903D01*
X199026Y36931D01*
X199075Y36986D01*
X199137Y37063D01*
X199200Y37174D01*
X199235Y37236D01*
X199269Y37305D01*
X199304Y37382D01*
X199331Y37465D01*
X199366Y37555D01*
X199394Y37652D01*
Y37659D01*
X199401Y37687D01*
X199415Y37728D01*
X199422Y37791D01*
X199443Y37867D01*
X199456Y37964D01*
X199470Y38082D01*
X199491Y38221D01*
X199512Y38373D01*
X199526Y38547D01*
X199547Y38748D01*
X199560Y38963D01*
X199567Y39199D01*
X199581Y39462D01*
X199588Y39746D01*
Y40051D01*
Y40058D01*
Y40072D01*
Y40093D01*
Y40128D01*
Y40162D01*
Y40211D01*
Y40322D01*
X199581Y40461D01*
Y40620D01*
X199574Y40786D01*
X199567Y40974D01*
X199560Y41161D01*
X199547Y41355D01*
X199533Y41549D01*
X199512Y41736D01*
X199498Y41917D01*
X199470Y42090D01*
X199443Y42236D01*
X199415Y42367D01*
Y42374D01*
X199408Y42395D01*
X199394Y42430D01*
X199387Y42471D01*
X199366Y42520D01*
X199345Y42575D01*
X199297Y42707D01*
X199235Y42853D01*
X199158Y42991D01*
X199075Y43116D01*
X199026Y43172D01*
X198978Y43213D01*
X198964Y43220D01*
X198936Y43248D01*
X198881Y43283D01*
X198811Y43324D01*
X198721Y43359D01*
X198624Y43394D01*
X198506Y43421D01*
X198389Y43428D01*
D02*
G37*
G36*
X132368Y41022D02*
X132306D01*
X132257Y41015D01*
X132201Y41008D01*
X132139Y40994D01*
X132063Y40981D01*
X131987Y40960D01*
X131903Y40932D01*
X131813Y40897D01*
X131723Y40856D01*
X131633Y40800D01*
X131543Y40745D01*
X131453Y40675D01*
X131362Y40592D01*
X131279Y40502D01*
X131272Y40495D01*
X131258Y40481D01*
X131238Y40447D01*
X131217Y40405D01*
X131182Y40349D01*
X131147Y40287D01*
X131106Y40204D01*
X131071Y40114D01*
X131030Y40010D01*
X130988Y39892D01*
X130953Y39767D01*
X130926Y39621D01*
X130898Y39469D01*
X130877Y39302D01*
X130863Y39129D01*
X130856Y38935D01*
Y38921D01*
Y38886D01*
Y38831D01*
X130863Y38755D01*
X130870Y38665D01*
X130877Y38561D01*
X130891Y38443D01*
X130912Y38318D01*
X130960Y38054D01*
X130995Y37923D01*
X131037Y37791D01*
X131085Y37659D01*
X131141Y37534D01*
X131203Y37423D01*
X131279Y37319D01*
X131286Y37312D01*
X131300Y37299D01*
X131321Y37271D01*
X131356Y37236D01*
X131397Y37201D01*
X131446Y37160D01*
X131508Y37111D01*
X131571Y37063D01*
X131647Y37014D01*
X131730Y36966D01*
X131910Y36889D01*
X132007Y36855D01*
X132111Y36827D01*
X132222Y36813D01*
X132340Y36806D01*
X132368D01*
X132403Y36813D01*
X132451D01*
X132514Y36820D01*
X132576Y36834D01*
X132652Y36848D01*
X132736Y36876D01*
X132826Y36903D01*
X132916Y36938D01*
X133006Y36979D01*
X133103Y37028D01*
X133200Y37090D01*
X133297Y37160D01*
X133387Y37243D01*
X133477Y37333D01*
X133484Y37340D01*
X133498Y37361D01*
X133519Y37389D01*
X133554Y37430D01*
X133588Y37486D01*
X133623Y37555D01*
X133665Y37631D01*
X133713Y37728D01*
X133755Y37832D01*
X133796Y37943D01*
X133831Y38075D01*
X133873Y38214D01*
X133900Y38366D01*
X133921Y38533D01*
X133935Y38706D01*
X133942Y38893D01*
Y38907D01*
Y38942D01*
Y38997D01*
X133935Y39067D01*
X133928Y39157D01*
X133921Y39261D01*
X133907Y39372D01*
X133886Y39497D01*
X133831Y39760D01*
X133796Y39892D01*
X133755Y40024D01*
X133699Y40148D01*
X133637Y40273D01*
X133568Y40391D01*
X133491Y40495D01*
X133484Y40502D01*
X133470Y40516D01*
X133443Y40544D01*
X133415Y40578D01*
X133366Y40620D01*
X133318Y40662D01*
X133256Y40710D01*
X133186Y40759D01*
X133110Y40807D01*
X133020Y40856D01*
X132930Y40897D01*
X132833Y40939D01*
X132722Y40974D01*
X132611Y41001D01*
X132493Y41015D01*
X132368Y41022D01*
D02*
G37*
%LPD*%
D10*
X2433500Y44500D02*
G03*
X2433500Y44500I-500J0D01*
G01*
X2033500D02*
G03*
X2033500Y44500I-500J0D01*
G01*
X1433500D02*
G03*
X1433500Y44500I-500J0D01*
G01*
X633500D02*
G03*
X633500Y44500I-500J0D01*
G01*
X686500Y27000D02*
G03*
X686500Y27000I-500J0D01*
G01*
X2486500D02*
G03*
X2486500Y27000I-500J0D01*
G01*
X2086500D02*
G03*
X2086500Y27000I-500J0D01*
G01*
X1486500D02*
G03*
X1486500Y27000I-500J0D01*
G01*
X44500Y21500D02*
G03*
X44500Y21500I-500J0D01*
G01*
D11*
X2440080Y35292D02*
Y34875D01*
X2440163Y34792D01*
X2440330D01*
X2440413Y34875D01*
Y35292D01*
X2440580Y35208D02*
X2440663Y35292D01*
X2440830D01*
X2440913Y35208D01*
Y35125D01*
X2440830Y35042D01*
X2440746D01*
X2440830D01*
X2440913Y34958D01*
Y34875D01*
X2440830Y34792D01*
X2440663D01*
X2440580Y34875D01*
X2441080Y34708D02*
X2441413D01*
X2441579Y35292D02*
X2441746D01*
X2441663D01*
Y34792D01*
X2441579D01*
X2441746D01*
X2441996D02*
Y35292D01*
X2442163Y35125D01*
X2442329Y35292D01*
Y34792D01*
X2442496Y35292D02*
Y34875D01*
X2442579Y34792D01*
X2442746D01*
X2442829Y34875D01*
Y35292D01*
X2443246Y34792D02*
Y35292D01*
X2442996Y35042D01*
X2443329D01*
X2040080Y35292D02*
Y34875D01*
X2040163Y34792D01*
X2040330D01*
X2040413Y34875D01*
Y35292D01*
X2040580Y35208D02*
X2040663Y35292D01*
X2040830D01*
X2040913Y35208D01*
Y35125D01*
X2040830Y35042D01*
X2040746D01*
X2040830D01*
X2040913Y34958D01*
Y34875D01*
X2040830Y34792D01*
X2040663D01*
X2040580Y34875D01*
X2041080Y34708D02*
X2041413D01*
X2041579Y35292D02*
X2041746D01*
X2041663D01*
Y34792D01*
X2041579D01*
X2041746D01*
X2041996D02*
Y35292D01*
X2042163Y35125D01*
X2042329Y35292D01*
Y34792D01*
X2042496Y35292D02*
Y34875D01*
X2042579Y34792D01*
X2042746D01*
X2042829Y34875D01*
Y35292D01*
X2042996Y35208D02*
X2043079Y35292D01*
X2043246D01*
X2043329Y35208D01*
Y35125D01*
X2043246Y35042D01*
X2043162D01*
X2043246D01*
X2043329Y34958D01*
Y34875D01*
X2043246Y34792D01*
X2043079D01*
X2042996Y34875D01*
X1440080Y35292D02*
Y34875D01*
X1440163Y34792D01*
X1440330D01*
X1440413Y34875D01*
Y35292D01*
X1440580Y35208D02*
X1440663Y35292D01*
X1440830D01*
X1440913Y35208D01*
Y35125D01*
X1440830Y35042D01*
X1440746D01*
X1440830D01*
X1440913Y34958D01*
Y34875D01*
X1440830Y34792D01*
X1440663D01*
X1440580Y34875D01*
X1441080Y34708D02*
X1441413D01*
X1441579Y35292D02*
X1441746D01*
X1441663D01*
Y34792D01*
X1441579D01*
X1441746D01*
X1441996D02*
Y35292D01*
X1442163Y35125D01*
X1442329Y35292D01*
Y34792D01*
X1442496Y35292D02*
Y34875D01*
X1442579Y34792D01*
X1442746D01*
X1442829Y34875D01*
Y35292D01*
X1443329Y34792D02*
X1442996D01*
X1443329Y35125D01*
Y35208D01*
X1443246Y35292D01*
X1443079D01*
X1442996Y35208D01*
X2468782Y40378D02*
Y39961D01*
X2468865Y39878D01*
X2469032D01*
X2469115Y39961D01*
Y40378D01*
X2469615Y39878D02*
X2469282D01*
X2469615Y40211D01*
Y40294D01*
X2469532Y40378D01*
X2469365D01*
X2469282Y40294D01*
X2469782Y39795D02*
X2470115D01*
X2470282Y40378D02*
X2470448D01*
X2470365D01*
Y39878D01*
X2470282D01*
X2470448D01*
X2470698D02*
Y40378D01*
X2470865Y40211D01*
X2471031Y40378D01*
Y39878D01*
X2471198Y40378D02*
Y39961D01*
X2471281Y39878D01*
X2471448D01*
X2471531Y39961D01*
Y40378D01*
X2471948Y39878D02*
Y40378D01*
X2471698Y40128D01*
X2472031D01*
X2068782Y40378D02*
Y39961D01*
X2068865Y39878D01*
X2069032D01*
X2069115Y39961D01*
Y40378D01*
X2069615Y39878D02*
X2069282D01*
X2069615Y40211D01*
Y40294D01*
X2069532Y40378D01*
X2069365D01*
X2069282Y40294D01*
X2069782Y39795D02*
X2070115D01*
X2070282Y40378D02*
X2070448D01*
X2070365D01*
Y39878D01*
X2070282D01*
X2070448D01*
X2070698D02*
Y40378D01*
X2070865Y40211D01*
X2071031Y40378D01*
Y39878D01*
X2071198Y40378D02*
Y39961D01*
X2071281Y39878D01*
X2071448D01*
X2071531Y39961D01*
Y40378D01*
X2071698Y40294D02*
X2071781Y40378D01*
X2071948D01*
X2072031Y40294D01*
Y40211D01*
X2071948Y40128D01*
X2071864D01*
X2071948D01*
X2072031Y40045D01*
Y39961D01*
X2071948Y39878D01*
X2071781D01*
X2071698Y39961D01*
X1468782Y40378D02*
Y39961D01*
X1468865Y39878D01*
X1469032D01*
X1469115Y39961D01*
Y40378D01*
X1469615Y39878D02*
X1469282D01*
X1469615Y40211D01*
Y40294D01*
X1469532Y40378D01*
X1469365D01*
X1469282Y40294D01*
X1469782Y39795D02*
X1470115D01*
X1470282Y40378D02*
X1470448D01*
X1470365D01*
Y39878D01*
X1470282D01*
X1470448D01*
X1470698D02*
Y40378D01*
X1470865Y40211D01*
X1471031Y40378D01*
Y39878D01*
X1471198Y40378D02*
Y39961D01*
X1471281Y39878D01*
X1471448D01*
X1471531Y39961D01*
Y40378D01*
X1472031Y39878D02*
X1471698D01*
X1472031Y40211D01*
Y40294D01*
X1471948Y40378D01*
X1471781D01*
X1471698Y40294D01*
X2448795Y52994D02*
X2448712Y53078D01*
X2448545D01*
X2448462Y52994D01*
Y52661D01*
X2448545Y52578D01*
X2448712D01*
X2448795Y52661D01*
X2449212Y52578D02*
Y53078D01*
X2448962Y52828D01*
X2449295D01*
X2449462Y52495D02*
X2449795D01*
X2449962Y53078D02*
X2450128D01*
X2450045D01*
Y52578D01*
X2449962D01*
X2450128D01*
X2450378D02*
Y53078D01*
X2450545Y52911D01*
X2450711Y53078D01*
Y52578D01*
X2450878Y53078D02*
Y52661D01*
X2450961Y52578D01*
X2451128D01*
X2451211Y52661D01*
Y53078D01*
X2451628Y52578D02*
Y53078D01*
X2451378Y52828D01*
X2451711D01*
X2048795Y52994D02*
X2048712Y53078D01*
X2048545D01*
X2048462Y52994D01*
Y52661D01*
X2048545Y52578D01*
X2048712D01*
X2048795Y52661D01*
X2049212Y52578D02*
Y53078D01*
X2048962Y52828D01*
X2049295D01*
X2049462Y52495D02*
X2049795D01*
X2049962Y53078D02*
X2050128D01*
X2050045D01*
Y52578D01*
X2049962D01*
X2050128D01*
X2050378D02*
Y53078D01*
X2050545Y52911D01*
X2050711Y53078D01*
Y52578D01*
X2050878Y53078D02*
Y52661D01*
X2050961Y52578D01*
X2051128D01*
X2051211Y52661D01*
Y53078D01*
X2051378Y52994D02*
X2051461Y53078D01*
X2051628D01*
X2051711Y52994D01*
Y52911D01*
X2051628Y52828D01*
X2051544D01*
X2051628D01*
X2051711Y52745D01*
Y52661D01*
X2051628Y52578D01*
X2051461D01*
X2051378Y52661D01*
X1448795Y52994D02*
X1448712Y53078D01*
X1448545D01*
X1448462Y52994D01*
Y52661D01*
X1448545Y52578D01*
X1448712D01*
X1448795Y52661D01*
X1449212Y52578D02*
Y53078D01*
X1448962Y52828D01*
X1449295D01*
X1449462Y52495D02*
X1449795D01*
X1449962Y53078D02*
X1450128D01*
X1450045D01*
Y52578D01*
X1449962D01*
X1450128D01*
X1450378D02*
Y53078D01*
X1450545Y52911D01*
X1450711Y53078D01*
Y52578D01*
X1450878Y53078D02*
Y52661D01*
X1450961Y52578D01*
X1451128D01*
X1451211Y52661D01*
Y53078D01*
X1451711Y52578D02*
X1451378D01*
X1451711Y52911D01*
Y52994D01*
X1451628Y53078D01*
X1451461D01*
X1451378Y52994D01*
X2441175D02*
X2441092Y53078D01*
X2440925D01*
X2440842Y52994D01*
Y52661D01*
X2440925Y52578D01*
X2441092D01*
X2441175Y52661D01*
X2441342Y52994D02*
X2441425Y53078D01*
X2441592D01*
X2441675Y52994D01*
Y52911D01*
X2441592Y52828D01*
X2441508D01*
X2441592D01*
X2441675Y52745D01*
Y52661D01*
X2441592Y52578D01*
X2441425D01*
X2441342Y52661D01*
X2441842Y52495D02*
X2442175D01*
X2442341Y53078D02*
X2442508D01*
X2442425D01*
Y52578D01*
X2442341D01*
X2442508D01*
X2442758D02*
Y53078D01*
X2442925Y52911D01*
X2443091Y53078D01*
Y52578D01*
X2443258Y53078D02*
Y52661D01*
X2443341Y52578D01*
X2443508D01*
X2443591Y52661D01*
Y53078D01*
X2444008Y52578D02*
Y53078D01*
X2443758Y52828D01*
X2444091D01*
X2041175Y52994D02*
X2041092Y53078D01*
X2040925D01*
X2040842Y52994D01*
Y52661D01*
X2040925Y52578D01*
X2041092D01*
X2041175Y52661D01*
X2041342Y52994D02*
X2041425Y53078D01*
X2041592D01*
X2041675Y52994D01*
Y52911D01*
X2041592Y52828D01*
X2041508D01*
X2041592D01*
X2041675Y52745D01*
Y52661D01*
X2041592Y52578D01*
X2041425D01*
X2041342Y52661D01*
X2041842Y52495D02*
X2042175D01*
X2042341Y53078D02*
X2042508D01*
X2042425D01*
Y52578D01*
X2042341D01*
X2042508D01*
X2042758D02*
Y53078D01*
X2042925Y52911D01*
X2043091Y53078D01*
Y52578D01*
X2043258Y53078D02*
Y52661D01*
X2043341Y52578D01*
X2043508D01*
X2043591Y52661D01*
Y53078D01*
X2043758Y52994D02*
X2043841Y53078D01*
X2044008D01*
X2044091Y52994D01*
Y52911D01*
X2044008Y52828D01*
X2043924D01*
X2044008D01*
X2044091Y52745D01*
Y52661D01*
X2044008Y52578D01*
X2043841D01*
X2043758Y52661D01*
X1441175Y52994D02*
X1441092Y53078D01*
X1440925D01*
X1440842Y52994D01*
Y52661D01*
X1440925Y52578D01*
X1441092D01*
X1441175Y52661D01*
X1441342Y52994D02*
X1441425Y53078D01*
X1441592D01*
X1441675Y52994D01*
Y52911D01*
X1441592Y52828D01*
X1441508D01*
X1441592D01*
X1441675Y52745D01*
Y52661D01*
X1441592Y52578D01*
X1441425D01*
X1441342Y52661D01*
X1441842Y52495D02*
X1442175D01*
X1442341Y53078D02*
X1442508D01*
X1442425D01*
Y52578D01*
X1442341D01*
X1442508D01*
X1442758D02*
Y53078D01*
X1442925Y52911D01*
X1443091Y53078D01*
Y52578D01*
X1443258Y53078D02*
Y52661D01*
X1443341Y52578D01*
X1443508D01*
X1443591Y52661D01*
Y53078D01*
X1444091Y52578D02*
X1443758D01*
X1444091Y52911D01*
Y52994D01*
X1444008Y53078D01*
X1443841D01*
X1443758Y52994D01*
X2433809Y52741D02*
X2433726Y52824D01*
X2433559D01*
X2433476Y52741D01*
Y52407D01*
X2433559Y52324D01*
X2433726D01*
X2433809Y52407D01*
X2434309Y52324D02*
X2433976D01*
X2434309Y52657D01*
Y52741D01*
X2434226Y52824D01*
X2434059D01*
X2433976Y52741D01*
X2434476Y52241D02*
X2434809D01*
X2434975Y52824D02*
X2435142D01*
X2435059D01*
Y52324D01*
X2434975D01*
X2435142D01*
X2435392D02*
Y52824D01*
X2435559Y52657D01*
X2435725Y52824D01*
Y52324D01*
X2435892Y52824D02*
Y52407D01*
X2435975Y52324D01*
X2436142D01*
X2436225Y52407D01*
Y52824D01*
X2436642Y52324D02*
Y52824D01*
X2436392Y52574D01*
X2436725D01*
X2033809Y52741D02*
X2033726Y52824D01*
X2033559D01*
X2033476Y52741D01*
Y52407D01*
X2033559Y52324D01*
X2033726D01*
X2033809Y52407D01*
X2034309Y52324D02*
X2033976D01*
X2034309Y52657D01*
Y52741D01*
X2034226Y52824D01*
X2034059D01*
X2033976Y52741D01*
X2034476Y52241D02*
X2034809D01*
X2034975Y52824D02*
X2035142D01*
X2035059D01*
Y52324D01*
X2034975D01*
X2035142D01*
X2035392D02*
Y52824D01*
X2035559Y52657D01*
X2035725Y52824D01*
Y52324D01*
X2035892Y52824D02*
Y52407D01*
X2035975Y52324D01*
X2036142D01*
X2036225Y52407D01*
Y52824D01*
X2036392Y52741D02*
X2036475Y52824D01*
X2036642D01*
X2036725Y52741D01*
Y52657D01*
X2036642Y52574D01*
X2036558D01*
X2036642D01*
X2036725Y52491D01*
Y52407D01*
X2036642Y52324D01*
X2036475D01*
X2036392Y52407D01*
X1433809Y52741D02*
X1433726Y52824D01*
X1433559D01*
X1433476Y52741D01*
Y52407D01*
X1433559Y52324D01*
X1433726D01*
X1433809Y52407D01*
X1434309Y52324D02*
X1433976D01*
X1434309Y52657D01*
Y52741D01*
X1434226Y52824D01*
X1434059D01*
X1433976Y52741D01*
X1434476Y52241D02*
X1434809D01*
X1434975Y52824D02*
X1435142D01*
X1435059D01*
Y52324D01*
X1434975D01*
X1435142D01*
X1435392D02*
Y52824D01*
X1435559Y52657D01*
X1435725Y52824D01*
Y52324D01*
X1435892Y52824D02*
Y52407D01*
X1435975Y52324D01*
X1436142D01*
X1436225Y52407D01*
Y52824D01*
X1436725Y52324D02*
X1436392D01*
X1436725Y52657D01*
Y52741D01*
X1436642Y52824D01*
X1436475D01*
X1436392Y52741D01*
X668782Y40378D02*
Y39961D01*
X668865Y39878D01*
X669032D01*
X669115Y39961D01*
Y40378D01*
X669615Y39878D02*
X669282D01*
X669615Y40211D01*
Y40294D01*
X669532Y40378D01*
X669365D01*
X669282Y40294D01*
X669782Y39795D02*
X670115D01*
X670282Y40378D02*
X670448D01*
X670365D01*
Y39878D01*
X670282D01*
X670448D01*
X670698D02*
Y40378D01*
X670865Y40211D01*
X671031Y40378D01*
Y39878D01*
X671198Y40378D02*
Y39961D01*
X671281Y39878D01*
X671448D01*
X671531Y39961D01*
Y40378D01*
X671698Y39878D02*
X671864D01*
X671781D01*
Y40378D01*
X671698Y40294D01*
X648795Y52994D02*
X648712Y53078D01*
X648545D01*
X648462Y52994D01*
Y52661D01*
X648545Y52578D01*
X648712D01*
X648795Y52661D01*
X649212Y52578D02*
Y53078D01*
X648962Y52828D01*
X649295D01*
X649462Y52495D02*
X649795D01*
X649961Y53078D02*
X650128D01*
X650045D01*
Y52578D01*
X649961D01*
X650128D01*
X650378D02*
Y53078D01*
X650545Y52911D01*
X650711Y53078D01*
Y52578D01*
X650878Y53078D02*
Y52661D01*
X650961Y52578D01*
X651128D01*
X651211Y52661D01*
Y53078D01*
X651378Y52578D02*
X651544D01*
X651461D01*
Y53078D01*
X651378Y52994D01*
X641175D02*
X641092Y53078D01*
X640925D01*
X640842Y52994D01*
Y52661D01*
X640925Y52578D01*
X641092D01*
X641175Y52661D01*
X641342Y52994D02*
X641425Y53078D01*
X641592D01*
X641675Y52994D01*
Y52911D01*
X641592Y52828D01*
X641508D01*
X641592D01*
X641675Y52745D01*
Y52661D01*
X641592Y52578D01*
X641425D01*
X641342Y52661D01*
X641842Y52495D02*
X642175D01*
X642342Y53078D02*
X642508D01*
X642425D01*
Y52578D01*
X642342D01*
X642508D01*
X642758D02*
Y53078D01*
X642925Y52911D01*
X643091Y53078D01*
Y52578D01*
X643258Y53078D02*
Y52661D01*
X643341Y52578D01*
X643508D01*
X643591Y52661D01*
Y53078D01*
X643758Y52578D02*
X643924D01*
X643841D01*
Y53078D01*
X643758Y52994D01*
X640080Y35292D02*
Y34875D01*
X640163Y34792D01*
X640330D01*
X640413Y34875D01*
Y35292D01*
X640580Y35208D02*
X640663Y35292D01*
X640830D01*
X640913Y35208D01*
Y35125D01*
X640830Y35042D01*
X640747D01*
X640830D01*
X640913Y34958D01*
Y34875D01*
X640830Y34792D01*
X640663D01*
X640580Y34875D01*
X641080Y34708D02*
X641413D01*
X641580Y35292D02*
X641746D01*
X641663D01*
Y34792D01*
X641580D01*
X641746D01*
X641996D02*
Y35292D01*
X642163Y35125D01*
X642329Y35292D01*
Y34792D01*
X642496Y35292D02*
Y34875D01*
X642579Y34792D01*
X642746D01*
X642829Y34875D01*
Y35292D01*
X642996Y34792D02*
X643162D01*
X643079D01*
Y35292D01*
X642996Y35208D01*
X633809Y52741D02*
X633726Y52824D01*
X633559D01*
X633476Y52741D01*
Y52407D01*
X633559Y52324D01*
X633726D01*
X633809Y52407D01*
X634309Y52324D02*
X633976D01*
X634309Y52657D01*
Y52741D01*
X634226Y52824D01*
X634059D01*
X633976Y52741D01*
X634476Y52241D02*
X634809D01*
X634976Y52824D02*
X635142D01*
X635059D01*
Y52324D01*
X634976D01*
X635142D01*
X635392D02*
Y52824D01*
X635559Y52657D01*
X635725Y52824D01*
Y52324D01*
X635892Y52824D02*
Y52407D01*
X635975Y52324D01*
X636142D01*
X636225Y52407D01*
Y52824D01*
X636392Y52324D02*
X636558D01*
X636475D01*
Y52824D01*
X636392Y52741D01*
X53594Y39362D02*
Y38945D01*
X53677Y38862D01*
X53844D01*
X53927Y38945D01*
Y39362D01*
X54094Y38862D02*
X54261D01*
X54177D01*
Y39362D01*
X54094Y39279D01*
X19891Y40124D02*
X19725D01*
X19808D01*
Y39707D01*
X19725Y39624D01*
X19641D01*
X19558Y39707D01*
X20058Y39624D02*
X20224D01*
X20141D01*
Y40124D01*
X20058Y40040D01*
X50117Y62646D02*
X50034Y62730D01*
X49867D01*
X49784Y62646D01*
Y62313D01*
X49867Y62230D01*
X50034D01*
X50117Y62313D01*
X50284Y62230D02*
X50451D01*
X50367D01*
Y62730D01*
X50284Y62646D01*
M02*
